<svg width="1651" height="3296" viewBox="0 0 1651 3296" fill="none" xmlns="http://www.w3.org/2000/svg">
<g clip-path="url(#clip0_1404_5)">
<path fill-rule="evenodd" clip-rule="evenodd" d="M1795.9 -317.622L1331.27 -338.492L1402.5 -201.186L1093.38 -215.071L1164.91 -77.2064L854.521 -91.1477L925.758 46.158L616.632 32.2731L688.159 170.138L377.774 156.196L449.011 293.502L139.885 279.617L211.605 417.854L-99.6178 403.875L-28.3813 541.181L-337.507 527.296L-265.98 665.161L-576.365 651.22L-505.128 788.525L-814.254 774.64L-742.727 912.505L-1053.11 898.564L-981.875 1035.87L-1291 1021.98L-1076.86 1434.74L-910.203 1174.01L-838.967 1311.32L-671.636 1049.53L-600.109 1187.4L-433.457 926.669L-362.22 1063.98L-194.889 802.187L-123.362 940.052L43.2902 679.325L114.527 816.631L282.31 554.136L354.03 692.373L520.682 431.646L591.919 568.952L759.25 307.164L830.776 445.029L997.429 184.302L1068.67 321.608L1236 59.8199L1307.52 197.685L1474.18 -63.0421L1545.41 74.2637L1795.9 -317.622ZM65.5558 644.491L117.757 745.107L263.275 517.446L230.64 454.544L-39.282 442.42L12.9195 543.036L127.125 548.166L65.5558 644.491ZM31.9545 579.726L63.5592 581.145L46.5208 607.802L31.9545 579.726ZM-9.34623 577.87L24.2551 642.636L-120.132 868.528L-172.623 767.353L-111.732 672.089L-224.68 667.016L-277.171 565.841L-9.34623 577.87ZM-246.945 701.85L-516.029 689.764L-463.827 790.38L-349.621 795.51L-411.191 891.835L-358.99 992.451L-213.924 765.498L-246.945 701.85ZM-191.659 730.664L-205.645 703.705L-175.299 705.068L-191.659 730.664ZM-430.226 855.146L-413.188 828.489L-444.792 827.07L-430.226 855.146ZM-486.093 825.215L-753.918 813.185L-701.427 914.36L-588.479 919.433L-649.37 1014.7L-596.879 1115.87L-452.492 889.98L-486.093 825.215ZM-668.405 978.008L-652.045 952.413L-682.392 951.05L-668.405 978.008ZM-723.692 949.194L-992.776 937.108L-940.574 1037.72L-826.368 1042.85L-887.938 1139.18L-835.736 1239.8L-690.671 1012.84L-723.692 949.194ZM-906.973 1102.49L-889.934 1075.83L-921.539 1074.41L-906.973 1102.49ZM-962.84 1072.56L-1230.66 1060.53L-1073.63 1363.22L-929.238 1137.32L-962.84 1072.56ZM301.448 457.724L271.941 456.399L285.54 482.612L301.448 457.724ZM365.015 424.745L304.575 519.301L357.26 620.849L501.647 394.957L468.046 330.192L200.221 318.162L252.906 419.709L365.015 424.745ZM1496.44 -97.8764L1548.64 2.73999L1732.33 -284.643L1391.6 -299.947L1443.81 -199.331L1558.01 -194.201L1496.44 -97.8764ZM1462.84 -162.642L1494.44 -161.222L1477.41 -134.566L1462.84 -162.642ZM1455.14 -99.7315L1310.75 126.161L1258.26 24.9856L1319.15 -70.2781L1206.21 -75.3513L1153.71 -176.527L1421.54 -164.497L1455.14 -99.7315ZM1183.94 -40.517L914.857 -52.6033L967.058 48.0131L1081.26 53.1428L1019.69 149.468L1071.9 250.084L1216.96 23.1305L1183.94 -40.517ZM1225.24 -38.6619L1255.59 -37.2989L1239.23 -11.7037L1225.24 -38.6619ZM1000.66 112.778L1017.7 86.122L986.093 84.7024L1000.66 112.778ZM944.793 82.8474L676.968 70.8176L729.459 171.993L842.407 177.066L781.516 272.33L834.007 373.505L978.394 147.613L944.793 82.8474ZM762.48 235.64L778.84 210.045L748.494 208.682L762.48 235.64ZM707.194 206.827L438.11 194.741L490.312 295.357L604.517 300.487L542.948 396.812L595.149 497.428L740.215 270.475L707.194 206.827ZM523.913 360.123L540.951 333.466L509.347 332.047L523.913 360.123Z" fill="white"/>
<path fill-rule="evenodd" clip-rule="evenodd" d="M2157.54 379.425L1692.91 358.555L1764.15 495.861L1455.02 481.976L1526.55 619.841L1216.16 605.899L1287.4 743.205L978.273 729.32L1049.8 867.185L739.415 853.243L810.652 990.549L501.526 976.664L573.246 1114.9L262.023 1100.92L333.259 1238.23L24.1337 1224.34L95.6602 1362.21L-214.724 1348.27L-143.488 1485.57L-452.613 1471.69L-381.087 1609.55L-691.471 1595.61L-620.234 1732.92L-929.36 1719.03L-715.215 2131.79L-548.563 1871.06L-477.326 2008.37L-309.995 1746.58L-238.469 1884.44L-71.816 1623.72L-0.579539 1761.02L166.752 1499.23L238.278 1637.1L404.931 1376.37L476.167 1513.68L643.951 1251.18L715.67 1389.42L882.323 1128.69L953.559 1266L1120.89 1004.21L1192.42 1142.08L1359.07 881.349L1430.31 1018.65L1597.64 756.867L1669.16 894.731L1835.82 634.005L1907.05 771.311L2157.54 379.425ZM427.196 1341.54L479.398 1442.15L624.915 1214.49L592.281 1151.59L322.359 1139.47L374.56 1240.08L488.766 1245.21L427.196 1341.54ZM393.595 1276.77L425.2 1278.19L408.161 1304.85L393.595 1276.77ZM352.294 1274.92L385.896 1339.68L241.509 1565.58L189.017 1464.4L249.909 1369.14L136.961 1364.06L84.4693 1262.89L352.294 1274.92ZM114.695 1398.9L-154.388 1386.81L-102.187 1487.43L12.0193 1492.56L-49.5503 1588.88L2.65107 1689.5L147.717 1462.54L114.695 1398.9ZM169.982 1427.71L155.996 1400.75L186.342 1402.12L169.982 1427.71ZM-68.5854 1552.19L-51.5471 1525.54L-83.1517 1524.12L-68.5854 1552.19ZM-124.452 1522.26L-392.277 1510.23L-339.786 1611.41L-226.838 1616.48L-287.73 1711.74L-235.238 1812.92L-90.8511 1587.03L-124.452 1522.26ZM-306.765 1675.05L-290.405 1649.46L-320.751 1648.1L-306.765 1675.05ZM-362.052 1646.24L-631.135 1634.15L-578.933 1734.77L-464.728 1739.9L-526.297 1836.23L-474.096 1936.84L-329.03 1709.89L-362.052 1646.24ZM-545.332 1799.54L-528.294 1772.88L-559.898 1771.46L-545.332 1799.54ZM-601.199 1769.61L-869.024 1757.58L-711.985 2060.26L-567.598 1834.37L-601.199 1769.61ZM663.089 1154.77L633.581 1153.45L647.181 1179.66L663.089 1154.77ZM726.655 1121.79L666.216 1216.35L718.901 1317.9L863.288 1092L829.687 1027.24L561.862 1015.21L614.546 1116.76L726.655 1121.79ZM1858.08 599.171L1910.28 699.787L2093.97 412.404L1753.24 397.099L1805.45 497.716L1919.65 502.846L1858.08 599.171ZM1824.48 534.405L1856.09 535.825L1839.05 562.481L1824.48 534.405ZM1816.78 597.315L1672.39 823.208L1619.9 722.032L1680.79 626.769L1567.85 621.696L1515.36 520.52L1783.18 532.55L1816.78 597.315ZM1545.58 656.53L1276.5 644.444L1328.7 745.06L1442.9 750.19L1381.34 846.515L1433.54 947.131L1578.6 720.177L1545.58 656.53ZM1586.88 658.385L1617.23 659.748L1600.87 685.343L1586.88 658.385ZM1362.3 809.825L1379.34 783.169L1347.73 781.749L1362.3 809.825ZM1306.43 779.894L1038.61 767.864L1091.1 869.04L1204.05 874.113L1143.16 969.377L1195.65 1070.55L1340.03 844.66L1306.43 779.894ZM1124.12 932.687L1140.48 907.092L1110.13 905.729L1124.12 932.687ZM1068.83 903.874L799.751 891.788L851.952 992.404L966.158 997.534L904.589 1093.86L956.79 1194.48L1101.86 967.522L1068.83 903.874ZM885.553 1057.17L902.592 1030.51L870.987 1029.09L885.553 1057.17Z" fill="white"/>
<path fill-rule="evenodd" clip-rule="evenodd" d="M2519.18 1076.47L2054.55 1055.6L2125.78 1192.91L1816.66 1179.02L1888.18 1316.89L1577.8 1302.95L1649.04 1440.25L1339.91 1426.37L1411.44 1564.23L1101.05 1550.29L1172.29 1687.6L863.164 1673.71L934.884 1811.95L623.662 1797.97L694.898 1935.27L385.772 1921.39L457.299 2059.25L146.915 2045.31L218.151 2182.62L-90.9745 2168.73L-19.4481 2306.6L-329.832 2292.66L-258.596 2429.96L-567.721 2416.08L-353.577 2828.83L-186.924 2568.11L-115.688 2705.41L51.6435 2443.62L123.17 2581.49L289.823 2320.76L361.059 2458.07L528.39 2196.28L599.917 2334.15L766.569 2073.42L837.806 2210.72L1005.59 1948.23L1077.31 2086.47L1243.96 1825.74L1315.2 1963.05L1482.53 1701.26L1554.06 1839.12L1720.71 1578.4L1791.94 1715.7L1959.28 1453.91L2030.8 1591.78L2197.46 1331.05L2268.69 1468.36L2519.18 1076.47ZM788.835 2038.58L841.037 2139.2L986.554 1911.54L953.919 1848.64L683.997 1836.51L736.199 1937.13L850.405 1942.26L788.835 2038.58ZM755.234 1973.82L786.838 1975.24L769.8 2001.9L755.234 1973.82ZM713.933 1971.96L747.534 2036.73L603.147 2262.62L550.656 2161.45L611.547 2066.18L498.599 2061.11L446.108 1959.93L713.933 1971.96ZM476.334 2095.94L207.25 2083.86L259.452 2184.47L373.658 2189.6L312.088 2285.93L364.29 2386.54L509.355 2159.59L476.334 2095.94ZM531.621 2124.76L517.634 2097.8L547.981 2099.16L531.621 2124.76ZM293.053 2249.24L310.092 2222.58L278.487 2221.16L293.053 2249.24ZM237.186 2219.31L-30.6387 2207.28L21.8527 2308.45L134.8 2313.53L73.9091 2408.79L126.401 2509.97L270.788 2284.07L237.186 2219.31ZM54.874 2372.1L71.2341 2346.51L40.8877 2345.14L54.874 2372.1ZM-0.413031 2343.29L-269.496 2331.2L-217.295 2431.82L-103.089 2436.95L-164.658 2533.27L-112.457 2633.89L32.6084 2406.94L-0.413031 2343.29ZM-183.693 2496.58L-166.655 2469.93L-198.26 2468.51L-183.693 2496.58ZM-239.56 2466.65L-507.385 2454.62L-350.346 2757.31L-205.959 2531.42L-239.56 2466.65ZM1024.73 1851.82L995.22 1850.49L1008.82 1876.71L1024.73 1851.82ZM1088.29 1818.84L1027.85 1913.39L1080.54 2014.94L1224.93 1789.05L1191.33 1724.29L923.5 1712.26L976.185 1813.8L1088.29 1818.84ZM2219.72 1296.22L2271.92 1396.83L2455.61 1109.45L2114.88 1094.15L2167.08 1194.76L2281.29 1199.89L2219.72 1296.22ZM2186.12 1231.45L2217.72 1232.87L2200.69 1259.53L2186.12 1231.45ZM2178.42 1294.36L2034.03 1520.25L1981.54 1419.08L2042.43 1323.82L1929.49 1318.74L1876.99 1217.57L2144.82 1229.6L2178.42 1294.36ZM1907.22 1353.58L1638.14 1341.49L1690.34 1442.11L1804.54 1447.24L1742.97 1543.56L1795.18 1644.18L1940.24 1417.22L1907.22 1353.58ZM1948.52 1355.43L1978.87 1356.79L1962.51 1382.39L1948.52 1355.43ZM1723.94 1506.87L1740.98 1480.22L1709.37 1478.8L1723.94 1506.87ZM1668.07 1476.94L1400.25 1464.91L1452.74 1566.09L1565.69 1571.16L1504.79 1666.42L1557.29 1767.6L1701.67 1541.71L1668.07 1476.94ZM1485.76 1629.73L1502.12 1604.14L1471.77 1602.78L1485.76 1629.73ZM1430.47 1600.92L1161.39 1588.83L1213.59 1689.45L1327.8 1694.58L1266.23 1790.91L1318.43 1891.52L1463.49 1664.57L1430.47 1600.92ZM1247.19 1754.22L1264.23 1727.56L1232.63 1726.14L1247.19 1754.22Z" fill="white"/>
<path fill-rule="evenodd" clip-rule="evenodd" d="M2880.82 1773.52L2416.19 1752.65L2487.42 1889.95L2178.3 1876.07L2249.82 2013.93L1939.44 1999.99L2010.68 2137.3L1701.55 2123.41L1773.08 2261.28L1462.69 2247.34L1533.93 2384.64L1224.8 2370.76L1296.52 2509L985.3 2495.02L1056.54 2632.32L747.411 2618.44L818.938 2756.3L508.553 2742.36L579.79 2879.67L270.664 2865.78L342.191 3003.65L31.8067 2989.7L103.043 3127.01L-206.083 3113.13L8.06186 3525.88L174.715 3265.15L245.951 3402.46L413.282 3140.67L484.809 3278.54L651.461 3017.81L722.698 3155.12L890.029 2893.33L961.556 3031.19L1128.21 2770.47L1199.44 2907.77L1367.23 2645.28L1438.95 2783.51L1605.6 2522.79L1676.84 2660.09L1844.17 2398.3L1915.69 2536.17L2082.35 2275.44L2153.58 2412.75L2320.91 2150.96L2392.44 2288.83L2559.09 2028.1L2630.33 2165.4L2880.82 1773.52ZM1150.47 2735.63L1202.68 2836.25L1348.19 2608.59L1315.56 2545.68L1045.64 2533.56L1097.84 2634.18L1212.04 2639.31L1150.47 2735.63ZM1116.87 2670.87L1148.48 2672.29L1131.44 2698.94L1116.87 2670.87ZM1075.57 2669.01L1109.17 2733.78L964.786 2959.67L912.295 2858.49L973.186 2763.23L860.238 2758.16L807.747 2656.98L1075.57 2669.01ZM837.973 2792.99L568.889 2780.9L621.091 2881.52L735.297 2886.65L673.727 2982.98L725.928 3083.59L870.994 2856.64L837.973 2792.99ZM893.259 2821.8L879.273 2794.85L909.619 2796.21L893.259 2821.8ZM654.692 2946.29L671.73 2919.63L640.126 2918.21L654.692 2946.29ZM598.825 2916.36L331 2904.33L383.491 3005.5L496.439 3010.57L435.548 3105.84L488.039 3207.01L632.426 2981.12L598.825 2916.36ZM416.513 3069.15L432.873 3043.55L402.526 3042.19L416.513 3069.15ZM361.226 3040.34L92.1424 3028.25L144.344 3128.87L258.55 3133.99L196.98 3230.32L249.182 3330.94L394.247 3103.98L361.226 3040.34ZM177.945 3193.63L194.983 3166.97L163.379 3165.55L177.945 3193.63ZM122.078 3163.7L-145.747 3151.67L11.2925 3454.36L155.68 3228.46L122.078 3163.7ZM1386.37 2548.86L1356.86 2547.54L1370.46 2573.75L1386.37 2548.86ZM1449.93 2515.89L1389.49 2610.44L1442.18 2711.99L1586.57 2486.1L1552.96 2421.33L1285.14 2409.3L1337.82 2510.85L1449.93 2515.89ZM2581.36 1993.26L2633.56 2093.88L2817.25 1806.5L2476.52 1791.19L2528.72 1891.81L2642.93 1896.94L2581.36 1993.26ZM2547.76 1928.5L2579.36 1929.92L2562.32 1956.57L2547.76 1928.5ZM2540.06 1991.41L2395.67 2217.3L2343.18 2116.13L2404.07 2020.86L2291.12 2015.79L2238.63 1914.61L2506.46 1926.64L2540.06 1991.41ZM2268.86 2050.62L1999.77 2038.54L2051.98 2139.15L2166.18 2144.28L2104.61 2240.61L2156.81 2341.22L2301.88 2114.27L2268.86 2050.62ZM2310.16 2052.48L2340.51 2053.84L2324.15 2079.44L2310.16 2052.48ZM2085.58 2203.92L2102.62 2177.26L2071.01 2175.84L2085.58 2203.92ZM2029.71 2173.99L1761.89 2161.96L1814.38 2263.13L1927.32 2268.21L1866.43 2363.47L1918.92 2464.65L2063.31 2238.75L2029.71 2173.99ZM1847.4 2326.78L1863.76 2301.19L1833.41 2299.82L1847.4 2326.78ZM1792.11 2297.97L1523.03 2285.88L1575.23 2386.5L1689.44 2391.63L1627.87 2487.95L1680.07 2588.57L1825.13 2361.62L1792.11 2297.97ZM1608.83 2451.26L1625.87 2424.61L1594.26 2423.19L1608.83 2451.26Z" fill="white"/>
<path fill-rule="evenodd" clip-rule="evenodd" d="M3242.46 2470.57L2777.83 2449.7L2849.06 2587L2539.94 2573.12L2611.46 2710.98L2301.08 2697.04L2372.32 2834.35L2063.19 2820.46L2134.72 2958.33L1824.33 2944.38L1895.57 3081.69L1586.44 3067.8L1658.16 3206.04L1346.94 3192.06L1418.18 3329.37L1109.05 3315.48L1180.58 3453.35L870.194 3439.41L941.43 3576.71L632.305 3562.83L703.831 3700.69L393.447 3686.75L464.684 3824.06L155.558 3810.17L369.702 4222.93L536.355 3962.2L607.592 4099.51L774.923 3837.72L846.449 3975.58L1013.1 3714.86L1084.34 3852.16L1251.67 3590.37L1323.2 3728.24L1489.85 3467.51L1561.09 3604.82L1728.87 3342.32L1800.59 3480.56L1967.24 3219.83L2038.48 3357.14L2205.81 3095.35L2277.34 3233.22L2443.99 2972.49L2515.22 3109.8L2682.56 2848.01L2754.08 2985.87L2920.73 2725.15L2991.97 2862.45L3242.46 2470.57ZM1512.11 3432.68L1564.32 3533.29L1709.83 3305.63L1677.2 3242.73L1407.28 3230.61L1459.48 3331.22L1573.68 3336.35L1512.11 3432.68ZM1478.51 3367.91L1510.12 3369.33L1493.08 3395.99L1478.51 3367.91ZM1437.21 3366.06L1470.81 3430.82L1326.43 3656.72L1273.94 3555.54L1334.83 3460.28L1221.88 3455.2L1169.39 3354.03L1437.21 3366.06ZM1199.61 3490.04L930.53 3477.95L982.731 3578.57L1096.94 3583.7L1035.37 3680.02L1087.57 3780.64L1232.63 3553.69L1199.61 3490.04ZM1254.9 3518.85L1240.91 3491.89L1271.26 3493.26L1254.9 3518.85ZM1016.33 3643.33L1033.37 3616.68L1001.77 3615.26L1016.33 3643.33ZM960.466 3613.4L692.641 3601.37L745.132 3702.55L858.08 3707.62L797.188 3802.88L849.68 3904.06L994.067 3678.17L960.466 3613.4ZM778.153 3766.2L794.513 3740.6L764.167 3739.24L778.153 3766.2ZM722.866 3737.38L453.783 3725.3L505.985 3825.91L620.19 3831.04L558.621 3927.37L610.822 4027.98L755.888 3801.03L722.866 3737.38ZM539.586 3890.68L556.624 3864.02L525.02 3862.6L539.586 3890.68ZM483.719 3860.75L215.894 3848.72L372.933 4151.4L517.32 3925.51L483.719 3860.75ZM1748.01 3245.91L1718.5 3244.59L1732.1 3270.8L1748.01 3245.91ZM1811.57 3212.93L1751.13 3307.49L1803.82 3409.04L1948.21 3183.14L1914.6 3118.38L1646.78 3106.35L1699.46 3207.9L1811.57 3212.93ZM2943 2690.31L2995.2 2790.93L3178.89 2503.54L2838.16 2488.24L2890.36 2588.86L3004.57 2593.99L2943 2690.31ZM2909.4 2625.55L2941 2626.97L2923.97 2653.62L2909.4 2625.55ZM2901.7 2688.46L2757.31 2914.35L2704.82 2813.17L2765.71 2717.91L2652.76 2712.84L2600.27 2611.66L2868.1 2623.69L2901.7 2688.46ZM2630.5 2747.67L2361.42 2735.58L2413.62 2836.2L2527.82 2841.33L2466.25 2937.66L2518.45 3038.27L2663.52 2811.32L2630.5 2747.67ZM2671.8 2749.53L2702.15 2750.89L2685.79 2776.48L2671.8 2749.53ZM2447.22 2900.97L2464.26 2874.31L2432.65 2872.89L2447.22 2900.97ZM2391.35 2871.03L2123.53 2859.01L2176.02 2960.18L2288.97 2965.25L2228.07 3060.52L2280.57 3161.69L2424.95 2935.8L2391.35 2871.03ZM2209.04 3023.83L2225.4 2998.23L2195.05 2996.87L2209.04 3023.83ZM2153.75 2995.01L1884.67 2982.93L1936.87 3083.54L2051.08 3088.67L1989.51 3185L2041.71 3285.62L2186.77 3058.66L2153.75 2995.01ZM1970.47 3148.31L1987.51 3121.65L1955.91 3120.23L1970.47 3148.31Z" fill="white"/>
<path fill-rule="evenodd" clip-rule="evenodd" d="M1558.9 -632.622L1094.27 -653.492L1165.5 -516.186L856.379 -530.071L927.905 -392.206L617.521 -406.148L688.758 -268.842L379.632 -282.727L451.159 -144.862L140.774 -158.804L212.011 -21.4978L-97.1148 -35.3827L-25.3951 102.854L-336.618 88.8754L-265.381 226.181L-574.507 212.296L-502.98 350.161L-813.365 336.22L-742.128 473.525L-1051.25 459.64L-979.727 597.505L-1290.11 583.564L-1218.87 720.869L-1528 706.985L-1313.86 1119.74L-1147.2 859.013L-1075.97 996.319L-908.636 734.531L-837.109 872.396L-670.457 611.669L-599.22 748.975L-431.889 487.187L-360.362 625.052L-193.71 364.325L-122.473 501.631L45.3099 239.136L117.03 377.373L283.682 116.646L354.919 253.952L522.25 -7.83601L593.776 130.029L760.429 -130.698L831.666 6.60783L998.997 -255.18L1070.52 -117.315L1237.18 -378.042L1308.41 -240.736L1558.9 -632.622ZM-171.444 329.491L-119.243 430.107L26.2749 202.446L-6.36004 139.544L-276.282 127.42L-224.081 228.036L-109.875 233.166L-171.444 329.491ZM-205.045 264.726L-173.441 266.145L-190.479 292.802L-205.045 264.726ZM-246.346 262.87L-212.745 327.636L-357.132 553.528L-409.623 452.353L-348.732 357.089L-461.68 352.016L-514.171 250.841L-246.346 262.87ZM-483.945 386.85L-753.029 374.764L-700.827 475.38L-586.621 480.51L-648.191 576.835L-595.99 677.451L-450.924 450.498L-483.945 386.85ZM-428.659 415.664L-442.645 388.705L-412.299 390.068L-428.659 415.664ZM-667.226 540.146L-650.188 513.489L-681.792 512.07L-667.226 540.146ZM-723.093 510.215L-990.918 498.185L-938.427 599.36L-825.479 604.433L-886.37 699.697L-833.879 800.872L-689.492 574.98L-723.093 510.215ZM-905.405 663.008L-889.045 637.413L-919.392 636.05L-905.405 663.008ZM-960.692 634.194L-1229.78 622.108L-1177.57 722.725L-1063.37 727.854L-1124.94 824.179L-1072.74 924.795L-927.671 697.842L-960.692 634.194ZM-1143.97 787.49L-1126.93 760.833L-1158.54 759.414L-1143.97 787.49ZM-1199.84 757.559L-1467.66 745.529L-1310.63 1048.22L-1166.24 822.324L-1199.84 757.559ZM64.4484 142.724L34.9406 141.399L48.5404 167.612L64.4484 142.724ZM128.015 109.745L67.5755 204.301L120.26 305.849L264.647 79.9568L231.046 15.1915L-36.7791 3.16176L15.9055 104.709L128.015 109.745ZM1259.44 -412.876L1311.64 -312.26L1495.33 -599.643L1154.6 -614.947L1206.81 -514.331L1321.01 -509.201L1259.44 -412.876ZM1225.84 -477.642L1257.44 -476.222L1240.41 -449.566L1225.84 -477.642ZM1218.14 -414.731L1073.75 -188.839L1021.26 -290.014L1082.15 -385.278L969.206 -390.351L916.714 -491.527L1184.54 -479.497L1218.14 -414.731ZM946.94 -355.517L677.857 -367.603L730.058 -266.987L844.264 -261.857L782.695 -165.532L834.896 -64.9159L979.962 -291.869L946.94 -355.517ZM988.241 -353.662L1018.59 -352.299L1002.23 -326.704L988.241 -353.662ZM763.66 -202.222L780.698 -228.878L749.093 -230.298L763.66 -202.222ZM707.793 -232.153L439.968 -244.182L492.459 -143.007L605.407 -137.934L544.516 -42.6703L597.007 58.505L741.394 -167.387L707.793 -232.153ZM525.48 -79.3596L541.84 -104.955L511.494 -106.318L525.48 -79.3596ZM470.194 -108.173L201.11 -120.259L253.312 -19.6428L367.517 -14.513L305.948 81.8119L358.149 182.428L503.215 -44.5254L470.194 -108.173ZM286.913 45.1226L303.951 18.4662L272.347 17.0466L286.913 45.1226Z" fill="url(#paint0_linear_1404_5)"/>
<path fill-rule="evenodd" clip-rule="evenodd" d="M1920.54 64.4247L1455.91 43.555L1527.15 180.861L1218.02 166.976L1289.55 304.841L979.162 290.899L1050.4 428.205L741.273 414.32L812.799 552.185L502.415 538.243L573.652 675.549L264.526 661.664L336.246 799.901L25.0229 785.922L96.2593 923.228L-212.866 909.343L-141.34 1047.21L-451.724 1033.27L-380.488 1170.57L-689.613 1156.69L-618.087 1294.55L-928.471 1280.61L-857.234 1417.92L-1166.36 1404.03L-952.215 1816.79L-785.563 1556.06L-714.326 1693.37L-546.995 1431.58L-475.469 1569.44L-308.816 1308.72L-237.58 1446.02L-70.2483 1184.23L1.27817 1322.1L167.931 1061.37L239.167 1198.68L406.951 936.183L478.67 1074.42L645.323 813.693L716.559 950.999L883.891 689.211L955.417 827.076L1122.07 566.349L1193.31 703.655L1360.64 441.867L1432.16 579.731L1598.82 319.005L1670.05 456.311L1920.54 64.4247ZM190.196 1026.54L242.398 1127.15L387.915 899.493L355.281 836.591L85.3587 824.467L137.56 925.083L251.766 930.213L190.196 1026.54ZM156.595 961.772L188.2 963.192L171.161 989.848L156.595 961.772ZM115.294 959.917L148.896 1024.68L4.50856 1250.58L-47.9828 1149.4L12.9085 1054.14L-100.039 1049.06L-152.531 947.888L115.294 959.917ZM-122.305 1083.9L-391.388 1071.81L-339.187 1172.43L-224.981 1177.56L-286.55 1273.88L-234.349 1374.5L-89.2834 1147.54L-122.305 1083.9ZM-67.0179 1112.71L-81.0042 1085.75L-50.6579 1087.12L-67.0179 1112.71ZM-305.585 1237.19L-288.547 1210.54L-320.152 1209.12L-305.585 1237.19ZM-361.452 1207.26L-629.277 1195.23L-576.786 1296.41L-463.838 1301.48L-524.73 1396.74L-472.238 1497.92L-327.851 1272.03L-361.452 1207.26ZM-543.765 1360.05L-527.405 1334.46L-557.751 1333.1L-543.765 1360.05ZM-599.052 1331.24L-868.135 1319.15L-815.933 1419.77L-701.728 1424.9L-763.297 1521.23L-711.096 1621.84L-566.03 1394.89L-599.052 1331.24ZM-782.332 1484.54L-765.294 1457.88L-796.898 1456.46L-782.332 1484.54ZM-838.199 1454.61L-1106.02 1442.58L-948.985 1745.26L-804.598 1519.37L-838.199 1454.61ZM426.089 839.771L396.581 838.446L410.181 864.659L426.089 839.771ZM489.655 806.792L429.216 901.348L481.901 1002.9L626.288 777.004L592.687 712.238L324.862 700.209L377.546 801.756L489.655 806.792ZM1621.08 284.171L1673.28 384.787L1856.97 97.4039L1516.24 82.0994L1568.45 182.716L1682.65 187.846L1621.08 284.171ZM1587.48 219.405L1619.09 220.825L1602.05 247.481L1587.48 219.405ZM1579.78 282.315L1435.39 508.208L1382.9 407.032L1443.79 311.769L1330.85 306.696L1278.36 205.52L1546.18 217.55L1579.78 282.315ZM1308.58 341.53L1039.5 329.444L1091.7 430.06L1205.9 435.19L1144.34 531.515L1196.54 632.131L1341.6 405.177L1308.58 341.53ZM1349.88 343.385L1380.23 344.748L1363.87 370.343L1349.88 343.385ZM1125.3 494.825L1142.34 468.169L1110.73 466.749L1125.3 494.825ZM1069.43 464.894L801.608 452.864L854.1 554.04L967.047 559.113L906.156 654.377L958.648 755.552L1103.03 529.66L1069.43 464.894ZM887.121 617.687L903.481 592.092L873.135 590.729L887.121 617.687ZM831.834 588.874L562.751 576.788L614.952 677.404L729.158 682.534L667.589 778.859L719.79 879.475L864.856 652.522L831.834 588.874ZM648.553 742.169L665.592 715.513L633.987 714.093L648.553 742.169Z" fill="url(#paint1_linear_1404_5)"/>
<path fill-rule="evenodd" clip-rule="evenodd" d="M2282.18 761.471L1817.55 740.602L1888.78 877.907L1579.66 864.022L1651.18 1001.89L1340.8 987.946L1412.04 1125.25L1102.91 1111.37L1174.44 1249.23L864.054 1235.29L935.29 1372.6L626.164 1358.71L697.884 1496.95L386.662 1482.97L457.898 1620.27L148.772 1606.39L220.299 1744.25L-90.0853 1730.31L-18.8488 1867.62L-327.975 1853.73L-256.448 1991.6L-566.832 1977.66L-495.596 2114.96L-804.721 2101.08L-590.577 2513.83L-423.924 2253.11L-352.688 2390.41L-185.357 2128.62L-113.83 2266.49L52.8227 2005.76L124.059 2143.07L291.39 1881.28L362.917 2019.15L529.569 1758.42L600.806 1895.72L768.589 1633.23L840.309 1771.47L1006.96 1510.74L1078.2 1648.05L1245.53 1386.26L1317.06 1524.12L1483.71 1263.4L1554.94 1400.7L1722.28 1138.91L1793.8 1276.78L1960.46 1016.05L2031.69 1153.36L2282.18 761.471ZM551.835 1723.58L604.037 1824.2L749.554 1596.54L716.919 1533.64L446.997 1521.51L499.199 1622.13L613.405 1627.26L551.835 1723.58ZM518.234 1658.82L549.838 1660.24L532.8 1686.9L518.234 1658.82ZM476.933 1656.96L510.534 1721.73L366.147 1947.62L313.656 1846.45L374.547 1751.18L261.599 1746.11L209.108 1644.93L476.933 1656.96ZM239.334 1780.94L-29.7495 1768.86L22.4519 1869.47L136.658 1874.6L75.0883 1970.93L127.29 2071.54L272.355 1844.59L239.334 1780.94ZM294.621 1809.76L280.634 1782.8L310.981 1784.16L294.621 1809.76ZM56.0532 1934.24L73.0915 1907.58L41.487 1906.16L56.0532 1934.24ZM0.186247 1904.31L-267.639 1892.28L-215.147 1993.45L-102.2 1998.53L-163.091 2093.79L-110.599 2194.97L33.7876 1969.07L0.186247 1904.31ZM-182.126 2057.1L-165.766 2031.51L-196.112 2030.14L-182.126 2057.1ZM-237.413 2028.29L-506.496 2016.2L-454.295 2116.82L-340.089 2121.95L-401.658 2218.27L-349.457 2318.89L-204.392 2091.94L-237.413 2028.29ZM-420.693 2181.58L-403.655 2154.93L-435.26 2153.51L-420.693 2181.58ZM-476.56 2151.65L-744.385 2139.62L-587.346 2442.31L-442.959 2216.42L-476.56 2151.65ZM787.728 1536.82L758.22 1535.49L771.82 1561.71L787.728 1536.82ZM851.294 1503.84L790.855 1598.39L843.539 1699.94L987.927 1474.05L954.325 1409.29L686.5 1397.26L739.185 1498.8L851.294 1503.84ZM1982.72 981.217L2034.92 1081.83L2218.61 794.451L1877.88 779.146L1930.08 879.762L2044.29 884.892L1982.72 981.217ZM1949.12 916.452L1980.72 917.871L1963.69 944.528L1949.12 916.452ZM1941.42 979.362L1797.03 1205.25L1744.54 1104.08L1805.43 1008.82L1692.49 1003.74L1639.99 902.567L1907.82 914.597L1941.42 979.362ZM1670.22 1038.58L1401.14 1026.49L1453.34 1127.11L1567.54 1132.24L1505.97 1228.56L1558.18 1329.18L1703.24 1102.22L1670.22 1038.58ZM1711.52 1040.43L1741.87 1041.79L1725.51 1067.39L1711.52 1040.43ZM1486.94 1191.87L1503.98 1165.22L1472.37 1163.8L1486.94 1191.87ZM1431.07 1161.94L1163.25 1149.91L1215.74 1251.09L1328.69 1256.16L1267.79 1351.42L1320.29 1452.6L1464.67 1226.71L1431.07 1161.94ZM1248.76 1314.73L1265.12 1289.14L1234.77 1287.78L1248.76 1314.73ZM1193.47 1285.92L924.389 1273.83L976.591 1374.45L1090.8 1379.58L1029.23 1475.91L1081.43 1576.52L1226.49 1349.57L1193.47 1285.92ZM1010.19 1439.22L1027.23 1412.56L995.626 1411.14L1010.19 1439.22Z" fill="url(#paint2_linear_1404_5)"/>
<path fill-rule="evenodd" clip-rule="evenodd" d="M2643.82 1458.52L2179.19 1437.65L2250.42 1574.95L1941.3 1561.07L2012.82 1698.93L1702.44 1684.99L1773.68 1822.3L1464.55 1808.41L1536.08 1946.28L1225.69 1932.34L1296.93 2069.64L987.803 2055.76L1059.52 2194L748.3 2180.02L819.537 2317.32L510.411 2303.44L581.938 2441.3L271.553 2427.36L342.79 2564.67L33.6641 2550.78L105.191 2688.65L-205.193 2674.7L-133.957 2812.01L-443.083 2798.13L-228.938 3210.88L-62.2854 2950.15L8.95108 3087.46L176.282 2825.67L247.809 2963.54L414.461 2702.81L485.698 2840.12L653.029 2578.33L724.556 2716.19L891.208 2455.47L962.445 2592.77L1130.23 2330.28L1201.95 2468.51L1368.6 2207.79L1439.84 2345.09L1607.17 2083.3L1678.69 2221.17L1845.35 1960.44L1916.58 2097.75L2083.91 1835.96L2155.44 1973.83L2322.09 1713.1L2393.33 1850.4L2643.82 1458.52ZM913.474 2420.63L965.675 2521.25L1111.19 2293.59L1078.56 2230.68L808.636 2218.56L860.837 2319.18L975.043 2324.31L913.474 2420.63ZM879.872 2355.87L911.477 2357.29L894.439 2383.94L879.872 2355.87ZM838.572 2354.01L872.173 2418.78L727.786 2644.67L675.295 2543.49L736.186 2448.23L623.238 2443.16L570.747 2341.98L838.572 2354.01ZM600.973 2477.99L331.889 2465.9L384.091 2566.52L498.297 2571.65L436.727 2667.98L488.928 2768.59L633.994 2541.64L600.973 2477.99ZM656.259 2506.8L642.273 2479.85L672.619 2481.21L656.259 2506.8ZM417.692 2631.29L434.73 2604.63L403.126 2603.21L417.692 2631.29ZM361.825 2601.36L93.9999 2589.33L146.491 2690.5L259.439 2695.57L198.548 2790.84L251.039 2892.01L395.426 2666.12L361.825 2601.36ZM179.513 2754.15L195.873 2728.55L165.526 2727.19L179.513 2754.15ZM124.226 2725.34L-144.858 2713.25L-92.6561 2813.87L21.5497 2818.99L-40.0198 2915.32L12.1817 3015.94L157.247 2788.98L124.226 2725.34ZM-59.0548 2878.63L-42.0165 2851.97L-73.621 2850.55L-59.0548 2878.63ZM-114.922 2848.7L-382.747 2836.67L-225.708 3139.36L-81.3205 2913.46L-114.922 2848.7ZM1149.37 2233.86L1119.86 2232.54L1133.46 2258.75L1149.37 2233.86ZM1212.93 2200.89L1152.49 2295.44L1205.18 2396.99L1349.57 2171.1L1315.96 2106.33L1048.14 2094.3L1100.82 2195.85L1212.93 2200.89ZM2344.36 1678.26L2396.56 1778.88L2580.25 1491.5L2239.52 1476.19L2291.72 1576.81L2405.93 1581.94L2344.36 1678.26ZM2310.76 1613.5L2342.36 1614.92L2325.32 1641.57L2310.76 1613.5ZM2303.06 1676.41L2158.67 1902.3L2106.18 1801.13L2167.07 1705.86L2054.12 1700.79L2001.63 1599.61L2269.46 1611.64L2303.06 1676.41ZM2031.86 1735.62L1762.77 1723.54L1814.98 1824.15L1929.18 1829.28L1867.61 1925.61L1919.81 2026.22L2064.88 1799.27L2031.86 1735.62ZM2073.16 1737.48L2103.51 1738.84L2087.15 1764.44L2073.16 1737.48ZM1848.58 1888.92L1865.62 1862.26L1834.01 1860.84L1848.58 1888.92ZM1792.71 1858.99L1524.89 1846.96L1577.38 1948.13L1690.32 1953.21L1629.43 2048.47L1681.92 2149.65L1826.31 1923.75L1792.71 1858.99ZM1610.4 2011.78L1626.76 1986.19L1596.41 1984.82L1610.4 2011.78ZM1555.11 1982.97L1286.03 1970.88L1338.23 2071.5L1452.44 2076.63L1390.87 2172.95L1443.07 2273.57L1588.13 2046.62L1555.11 1982.97ZM1371.83 2136.26L1388.87 2109.61L1357.26 2108.19L1371.83 2136.26Z" fill="url(#paint3_linear_1404_5)"/>
<path fill-rule="evenodd" clip-rule="evenodd" d="M3005.46 2155.57L2540.83 2134.7L2612.06 2272L2302.94 2258.12L2374.46 2395.98L2064.08 2382.04L2135.32 2519.35L1826.19 2505.46L1897.72 2643.33L1587.33 2629.38L1658.57 2766.69L1349.44 2752.8L1421.16 2891.04L1109.94 2877.06L1181.18 3014.37L872.052 3000.48L943.578 3138.35L633.194 3124.41L704.43 3261.71L395.305 3247.83L466.831 3385.69L156.447 3371.75L227.684 3509.06L-81.442 3495.17L132.702 3907.93L299.355 3647.2L370.592 3784.51L537.923 3522.72L609.449 3660.58L776.102 3399.86L847.338 3537.16L1014.67 3275.37L1086.2 3413.24L1252.85 3152.51L1324.09 3289.82L1491.87 3027.32L1563.59 3165.56L1730.24 2904.83L1801.48 3042.14L1968.81 2780.35L2040.34 2918.22L2206.99 2657.49L2278.22 2794.8L2445.56 2533.01L2517.08 2670.87L2683.73 2410.15L2754.97 2547.45L3005.46 2155.57ZM1275.11 3117.68L1327.32 3218.29L1472.83 2990.63L1440.2 2927.73L1170.28 2915.61L1222.48 3016.22L1336.68 3021.35L1275.11 3117.68ZM1241.51 3052.91L1273.12 3054.33L1256.08 3080.99L1241.51 3052.91ZM1200.21 3051.06L1233.81 3115.82L1089.43 3341.72L1036.94 3240.54L1097.83 3145.28L984.879 3140.2L932.387 3039.03L1200.21 3051.06ZM962.613 3175.04L693.53 3162.95L745.731 3263.57L859.937 3268.7L798.368 3365.02L850.569 3465.64L995.635 3238.69L962.613 3175.04ZM1017.9 3203.85L1003.91 3176.89L1034.26 3178.26L1017.9 3203.85ZM779.333 3328.33L796.371 3301.68L764.766 3300.26L779.333 3328.33ZM723.466 3298.4L455.641 3286.37L508.132 3387.55L621.08 3392.62L560.188 3487.88L612.68 3589.06L757.067 3363.17L723.466 3298.4ZM541.153 3451.2L557.513 3425.6L527.167 3424.24L541.153 3451.2ZM485.866 3422.38L216.783 3410.3L268.985 3510.91L383.19 3516.04L321.621 3612.37L373.822 3712.98L518.888 3486.03L485.866 3422.38ZM302.586 3575.68L319.624 3549.02L288.02 3547.6L302.586 3575.68ZM246.719 3545.75L-21.1062 3533.72L135.933 3836.4L280.32 3610.51L246.719 3545.75ZM1511.01 2930.91L1481.5 2929.59L1495.1 2955.8L1511.01 2930.91ZM1574.57 2897.93L1514.13 2992.49L1566.82 3094.04L1711.21 2868.14L1677.6 2803.38L1409.78 2791.35L1462.46 2892.9L1574.57 2897.93ZM2706 2375.31L2758.2 2475.93L2941.89 2188.54L2601.16 2173.24L2653.36 2273.86L2767.57 2278.99L2706 2375.31ZM2672.4 2310.55L2704 2311.97L2686.97 2338.62L2672.4 2310.55ZM2664.7 2373.46L2520.31 2599.35L2467.82 2498.17L2528.71 2402.91L2415.76 2397.84L2363.27 2296.66L2631.1 2308.69L2664.7 2373.46ZM2393.5 2432.67L2124.42 2420.58L2176.62 2521.2L2290.82 2526.33L2229.25 2622.66L2281.45 2723.27L2426.52 2496.32L2393.5 2432.67ZM2434.8 2434.53L2465.15 2435.89L2448.79 2461.48L2434.8 2434.53ZM2210.22 2585.97L2227.26 2559.31L2195.65 2557.89L2210.22 2585.97ZM2154.35 2556.03L1886.53 2544.01L1939.02 2645.18L2051.97 2650.25L1991.07 2745.52L2043.57 2846.69L2187.95 2620.8L2154.35 2556.03ZM1972.04 2708.83L1988.4 2683.23L1958.05 2681.87L1972.04 2708.83ZM1916.75 2680.01L1647.67 2667.93L1699.87 2768.54L1814.08 2773.67L1752.51 2870L1804.71 2970.62L1949.77 2743.66L1916.75 2680.01ZM1733.47 2833.31L1750.51 2806.65L1718.91 2805.23L1733.47 2833.31Z" fill="url(#paint4_linear_1404_5)"/>
</g>
<defs>
<linearGradient id="paint0_linear_1404_5" x1="1558.9" y1="-632.622" x2="-1420.93" y2="913.362" gradientUnits="userSpaceOnUse">
<stop offset="0.245" stop-color="#D2691E"/>
<stop offset="1" stop-color="#EFB994" stop-opacity="0.7"/>
</linearGradient>
<linearGradient id="paint1_linear_1404_5" x1="1920.54" y1="64.4247" x2="-1059.29" y2="1610.41" gradientUnits="userSpaceOnUse">
<stop offset="0.245" stop-color="#D2691E"/>
<stop offset="1" stop-color="#EFB994" stop-opacity="0.7"/>
</linearGradient>
<linearGradient id="paint2_linear_1404_5" x1="2282.18" y1="761.471" x2="-697.649" y2="2307.46" gradientUnits="userSpaceOnUse">
<stop offset="0.245" stop-color="#D2691E"/>
<stop offset="1" stop-color="#EFB994" stop-opacity="0.7"/>
</linearGradient>
<linearGradient id="paint3_linear_1404_5" x1="2643.82" y1="1458.52" x2="-336.01" y2="3004.5" gradientUnits="userSpaceOnUse">
<stop offset="0.245" stop-color="#D2691E"/>
<stop offset="1" stop-color="#EFB994" stop-opacity="0.7"/>
</linearGradient>
<linearGradient id="paint4_linear_1404_5" x1="3005.46" y1="2155.57" x2="25.6303" y2="3701.55" gradientUnits="userSpaceOnUse">
<stop offset="0.245" stop-color="#D2691E"/>
<stop offset="1" stop-color="#EFB994" stop-opacity="0.7"/>
</linearGradient>
<clipPath id="clip0_1404_5">
<rect width="1651" height="3296" fill="white"/>
</clipPath>
</defs>
</svg>
