<svg width="1651" height="3296" viewBox="0 0 1651 3296" fill="none" xmlns="http://www.w3.org/2000/svg">
<g clip-path="url(#clip0_1403_24)">
<path d="M1266.4 1300.55L1374.15 1192.8L1455.2 1273.85L1347.45 1381.6L1337.55 1391.5L1347.45 1401.4L1455.2 1509.15L1374.15 1590.2L1266.4 1482.45L1256.5 1472.55L1246.6 1482.45L1138.85 1590.2L1057.8 1509.15L1165.55 1401.4L1175.45 1391.5L1165.55 1381.6L1057.8 1273.85L1138.85 1192.8L1246.6 1300.55L1256.5 1310.45L1266.4 1300.55Z" stroke="white" stroke-width="28"/>
<path fill-rule="evenodd" clip-rule="evenodd" d="M405.5 1463L173 1865.82H638L405.5 1463ZM405.5 1534.61L235 1830.01H576L405.5 1534.61Z" fill="white"/>
<path fill-rule="evenodd" clip-rule="evenodd" d="M405.5 2000.09L173 2402.91H638L405.5 2000.09ZM405.5 2071.7L235 2367.1H576L405.5 2071.7Z" fill="white"/>
<path fill-rule="evenodd" clip-rule="evenodd" d="M405.5 2537.18L638 2940H173L405.5 2537.18ZM235 2904.19L405.5 2608.79L576 2904.19H235Z" fill="white"/>
<path d="M1787.36 -97.0878C1788.88 -94.4497 1790.37 -91.7857 1791.81 -89.0968C1789.19 -90.8107 1787.44 -93.7424 1787.36 -97.0878Z" fill="white"/>
<path d="M1733.58 -164.894C1738.16 -160.599 1742.6 -156.159 1746.89 -151.583C1745.23 -148.513 1741.98 -146.429 1738.25 -146.429C1732.83 -146.429 1728.43 -150.826 1728.43 -156.25C1728.43 -159.985 1730.51 -163.233 1733.58 -164.894Z" fill="white"/>
<path d="M1671.1 -209.809C1673.79 -208.366 1676.45 -206.883 1679.09 -205.36C1675.74 -205.438 1672.81 -207.189 1671.1 -209.809Z" fill="white"/>
<path d="M1384.91 -205.36C1387.55 -206.883 1390.21 -208.366 1392.9 -209.809C1391.19 -207.189 1388.26 -205.438 1384.91 -205.36Z" fill="white"/>
<path d="M1317.11 -151.583C1321.4 -156.159 1325.84 -160.599 1330.42 -164.894C1333.49 -163.233 1335.57 -159.985 1335.57 -156.25C1335.57 -150.826 1331.17 -146.429 1325.75 -146.429C1322.02 -146.429 1318.77 -148.513 1317.11 -151.583Z" fill="white"/>
<path d="M1272.19 -89.0968C1273.63 -91.7857 1275.12 -94.4497 1276.64 -97.0878C1276.56 -93.7424 1274.81 -90.8107 1272.19 -89.0968Z" fill="white"/>
<path d="M1791.81 189.097C1790.37 191.786 1788.88 194.45 1787.36 197.088C1787.44 193.742 1789.19 190.811 1791.81 189.097Z" fill="white"/>
<path d="M1746.89 251.583C1745.23 248.513 1741.98 246.429 1738.25 246.429C1732.83 246.429 1728.43 250.826 1728.43 256.25C1728.43 259.985 1730.51 263.233 1733.58 264.894C1738.16 260.599 1742.6 256.159 1746.89 251.583Z" fill="white"/>
<path d="M1679.09 305.36C1675.74 305.438 1672.81 307.189 1671.1 309.809C1673.79 308.366 1676.45 306.883 1679.09 305.36Z" fill="white"/>
<path d="M1392.9 309.809C1391.19 307.189 1388.26 305.438 1384.91 305.36C1387.55 306.883 1390.21 308.366 1392.9 309.809Z" fill="white"/>
<path d="M1330.42 264.894C1333.49 263.233 1335.57 259.985 1335.57 256.25C1335.57 250.826 1331.17 246.429 1325.75 246.429C1322.02 246.429 1318.77 248.513 1317.11 251.583C1321.4 256.159 1325.84 260.599 1330.42 264.894Z" fill="white"/>
<path d="M1276.64 197.088C1276.56 193.742 1274.81 190.811 1272.19 189.097C1273.63 191.786 1275.12 194.45 1276.64 197.088Z" fill="white"/>
<path d="M1453.43 -215.179C1453.43 -209.754 1449.03 -205.357 1443.61 -205.357C1438.18 -205.357 1433.79 -209.754 1433.79 -215.179C1433.79 -220.603 1438.18 -225 1443.61 -225C1449.03 -225 1453.43 -220.603 1453.43 -215.179Z" fill="white"/>
<path d="M1512.36 -215.179C1512.36 -209.754 1507.96 -205.357 1502.54 -205.357C1497.11 -205.357 1492.71 -209.754 1492.71 -215.179C1492.71 -220.603 1497.11 -225 1502.54 -225C1507.96 -225 1512.36 -220.603 1512.36 -215.179Z" fill="white"/>
<path d="M1571.29 -215.179C1571.29 -209.754 1566.89 -205.357 1561.46 -205.357C1556.04 -205.357 1551.64 -209.754 1551.64 -215.179C1551.64 -220.603 1556.04 -225 1561.46 -225C1566.89 -225 1571.29 -220.603 1571.29 -215.179Z" fill="white"/>
<path d="M1630.21 -215.179C1630.21 -209.754 1625.82 -205.357 1620.39 -205.357C1614.97 -205.357 1610.57 -209.754 1610.57 -215.179C1610.57 -220.603 1614.97 -225 1620.39 -225C1625.82 -225 1630.21 -220.603 1630.21 -215.179Z" fill="white"/>
<path d="M1394.5 -156.25C1394.5 -150.826 1390.1 -146.429 1384.68 -146.429C1379.25 -146.429 1374.86 -150.826 1374.86 -156.25C1374.86 -161.674 1379.25 -166.071 1384.68 -166.071C1390.1 -166.071 1394.5 -161.674 1394.5 -156.25Z" fill="white"/>
<path d="M1453.43 -156.25C1453.43 -150.826 1449.03 -146.429 1443.61 -146.429C1438.18 -146.429 1433.79 -150.826 1433.79 -156.25C1433.79 -161.674 1438.18 -166.071 1443.61 -166.071C1449.03 -166.071 1453.43 -161.674 1453.43 -156.25Z" fill="white"/>
<path d="M1512.36 -156.25C1512.36 -150.826 1507.96 -146.429 1502.54 -146.429C1497.11 -146.429 1492.71 -150.826 1492.71 -156.25C1492.71 -161.674 1497.11 -166.071 1502.54 -166.071C1507.96 -166.071 1512.36 -161.674 1512.36 -156.25Z" fill="white"/>
<path d="M1571.29 -156.25C1571.29 -150.826 1566.89 -146.429 1561.46 -146.429C1556.04 -146.429 1551.64 -150.826 1551.64 -156.25C1551.64 -161.674 1556.04 -166.071 1561.46 -166.071C1566.89 -166.071 1571.29 -161.674 1571.29 -156.25Z" fill="white"/>
<path d="M1630.21 -156.25C1630.21 -150.826 1625.82 -146.429 1620.39 -146.429C1614.97 -146.429 1610.57 -150.826 1610.57 -156.25C1610.57 -161.674 1614.97 -166.071 1620.39 -166.071C1625.82 -166.071 1630.21 -161.674 1630.21 -156.25Z" fill="white"/>
<path d="M1689.14 -156.25C1689.14 -150.826 1684.75 -146.429 1679.32 -146.429C1673.9 -146.429 1669.5 -150.826 1669.5 -156.25C1669.5 -161.674 1673.9 -166.071 1679.32 -166.071C1684.75 -166.071 1689.14 -161.674 1689.14 -156.25Z" fill="white"/>
<path d="M1335.57 -97.3214C1335.57 -91.8972 1331.17 -87.5 1325.75 -87.5C1320.33 -87.5 1315.93 -91.8972 1315.93 -97.3214C1315.93 -102.746 1320.33 -107.143 1325.75 -107.143C1331.17 -107.143 1335.57 -102.746 1335.57 -97.3214Z" fill="white"/>
<path d="M1394.5 -97.3214C1394.5 -91.8972 1390.1 -87.5 1384.68 -87.5C1379.25 -87.5 1374.86 -91.8972 1374.86 -97.3214C1374.86 -102.746 1379.25 -107.143 1384.68 -107.143C1390.1 -107.143 1394.5 -102.746 1394.5 -97.3214Z" fill="white"/>
<path d="M1453.43 -97.3214C1453.43 -91.8972 1449.03 -87.5 1443.61 -87.5C1438.18 -87.5 1433.79 -91.8972 1433.79 -97.3214C1433.79 -102.746 1438.18 -107.143 1443.61 -107.143C1449.03 -107.143 1453.43 -102.746 1453.43 -97.3214Z" fill="white"/>
<path d="M1512.36 -97.3214C1512.36 -91.8972 1507.96 -87.5 1502.54 -87.5C1497.11 -87.5 1492.71 -91.8972 1492.71 -97.3214C1492.71 -102.746 1497.11 -107.143 1502.54 -107.143C1507.96 -107.143 1512.36 -102.746 1512.36 -97.3214Z" fill="white"/>
<path d="M1571.29 -97.3214C1571.29 -91.8972 1566.89 -87.5 1561.46 -87.5C1556.04 -87.5 1551.64 -91.8972 1551.64 -97.3214C1551.64 -102.746 1556.04 -107.143 1561.46 -107.143C1566.89 -107.143 1571.29 -102.746 1571.29 -97.3214Z" fill="white"/>
<path d="M1630.21 -97.3214C1630.21 -91.8972 1625.82 -87.5 1620.39 -87.5C1614.97 -87.5 1610.57 -91.8972 1610.57 -97.3214C1610.57 -102.746 1614.97 -107.143 1620.39 -107.143C1625.82 -107.143 1630.21 -102.746 1630.21 -97.3214Z" fill="white"/>
<path d="M1689.14 -97.3214C1689.14 -91.8972 1684.75 -87.5 1679.32 -87.5C1673.9 -87.5 1669.5 -91.8972 1669.5 -97.3214C1669.5 -102.746 1673.9 -107.143 1679.32 -107.143C1684.75 -107.143 1689.14 -102.746 1689.14 -97.3214Z" fill="white"/>
<path d="M1748.07 -97.3214C1748.07 -91.8972 1743.67 -87.5 1738.25 -87.5C1732.83 -87.5 1728.43 -91.8972 1728.43 -97.3214C1728.43 -102.746 1732.83 -107.143 1738.25 -107.143C1743.67 -107.143 1748.07 -102.746 1748.07 -97.3214Z" fill="white"/>
<path d="M1276.64 -38.3929C1276.64 -32.9686 1272.25 -28.5714 1266.82 -28.5714C1261.4 -28.5714 1257 -32.9686 1257 -38.3929C1257 -43.8171 1261.4 -48.2143 1266.82 -48.2143C1272.25 -48.2143 1276.64 -43.8171 1276.64 -38.3929Z" fill="white"/>
<path d="M1335.57 -38.3929C1335.57 -32.9686 1331.17 -28.5714 1325.75 -28.5714C1320.33 -28.5714 1315.93 -32.9686 1315.93 -38.3929C1315.93 -43.8171 1320.33 -48.2143 1325.75 -48.2143C1331.17 -48.2143 1335.57 -43.8171 1335.57 -38.3929Z" fill="white"/>
<path d="M1394.5 -38.3929C1394.5 -32.9686 1390.1 -28.5714 1384.68 -28.5714C1379.25 -28.5714 1374.86 -32.9686 1374.86 -38.3929C1374.86 -43.8171 1379.25 -48.2143 1384.68 -48.2143C1390.1 -48.2143 1394.5 -43.8171 1394.5 -38.3929Z" fill="white"/>
<path d="M1453.43 -38.3929C1453.43 -32.9686 1449.03 -28.5714 1443.61 -28.5714C1438.18 -28.5714 1433.79 -32.9686 1433.79 -38.3929C1433.79 -43.8171 1438.18 -48.2143 1443.61 -48.2143C1449.03 -48.2143 1453.43 -43.8171 1453.43 -38.3929Z" fill="white"/>
<path d="M1512.36 -38.3929C1512.36 -32.9686 1507.96 -28.5714 1502.54 -28.5714C1497.11 -28.5714 1492.71 -32.9686 1492.71 -38.3929C1492.71 -43.8171 1497.11 -48.2143 1502.54 -48.2143C1507.96 -48.2143 1512.36 -43.8171 1512.36 -38.3929Z" fill="white"/>
<path d="M1571.29 -38.3929C1571.29 -32.9686 1566.89 -28.5714 1561.46 -28.5714C1556.04 -28.5714 1551.64 -32.9686 1551.64 -38.3929C1551.64 -43.8171 1556.04 -48.2143 1561.46 -48.2143C1566.89 -48.2143 1571.29 -43.8171 1571.29 -38.3929Z" fill="white"/>
<path d="M1630.21 -38.3929C1630.21 -32.9686 1625.82 -28.5714 1620.39 -28.5714C1614.97 -28.5714 1610.57 -32.9686 1610.57 -38.3929C1610.57 -43.8171 1614.97 -48.2143 1620.39 -48.2143C1625.82 -48.2143 1630.21 -43.8171 1630.21 -38.3929Z" fill="white"/>
<path d="M1689.14 -38.3929C1689.14 -32.9686 1684.75 -28.5714 1679.32 -28.5714C1673.9 -28.5714 1669.5 -32.9686 1669.5 -38.3929C1669.5 -43.8171 1673.9 -48.2143 1679.32 -48.2143C1684.75 -48.2143 1689.14 -43.8171 1689.14 -38.3929Z" fill="white"/>
<path d="M1748.07 -38.3929C1748.07 -32.9686 1743.67 -28.5714 1738.25 -28.5714C1732.83 -28.5714 1728.43 -32.9686 1728.43 -38.3929C1728.43 -43.8171 1732.83 -48.2143 1738.25 -48.2143C1743.67 -48.2143 1748.07 -43.8171 1748.07 -38.3929Z" fill="white"/>
<path d="M1807 -38.3929C1807 -32.9686 1802.6 -28.5714 1797.18 -28.5714C1791.75 -28.5714 1787.36 -32.9686 1787.36 -38.3929C1787.36 -43.8171 1791.75 -48.2143 1797.18 -48.2143C1802.6 -48.2143 1807 -43.8171 1807 -38.3929Z" fill="white"/>
<path d="M1276.64 20.5357C1276.64 25.9599 1272.25 30.3571 1266.82 30.3571C1261.4 30.3571 1257 25.9599 1257 20.5357C1257 15.1115 1261.4 10.7143 1266.82 10.7143C1272.25 10.7143 1276.64 15.1115 1276.64 20.5357Z" fill="white"/>
<path d="M1335.57 20.5357C1335.57 25.9599 1331.17 30.3571 1325.75 30.3571C1320.33 30.3571 1315.93 25.9599 1315.93 20.5357C1315.93 15.1115 1320.33 10.7143 1325.75 10.7143C1331.17 10.7143 1335.57 15.1115 1335.57 20.5357Z" fill="white"/>
<path d="M1394.5 20.5357C1394.5 25.9599 1390.1 30.3571 1384.68 30.3571C1379.25 30.3571 1374.86 25.9599 1374.86 20.5357C1374.86 15.1115 1379.25 10.7143 1384.68 10.7143C1390.1 10.7143 1394.5 15.1115 1394.5 20.5357Z" fill="white"/>
<path d="M1453.43 20.5357C1453.43 25.9599 1449.03 30.3571 1443.61 30.3571C1438.18 30.3571 1433.79 25.9599 1433.79 20.5357C1433.79 15.1115 1438.18 10.7143 1443.61 10.7143C1449.03 10.7143 1453.43 15.1115 1453.43 20.5357Z" fill="white"/>
<path d="M1512.36 20.5357C1512.36 25.9599 1507.96 30.3571 1502.54 30.3571C1497.11 30.3571 1492.71 25.9599 1492.71 20.5357C1492.71 15.1115 1497.11 10.7143 1502.54 10.7143C1507.96 10.7143 1512.36 15.1115 1512.36 20.5357Z" fill="white"/>
<path d="M1571.29 20.5357C1571.29 25.9599 1566.89 30.3571 1561.46 30.3571C1556.04 30.3571 1551.64 25.9599 1551.64 20.5357C1551.64 15.1115 1556.04 10.7143 1561.46 10.7143C1566.89 10.7143 1571.29 15.1115 1571.29 20.5357Z" fill="white"/>
<path d="M1630.21 20.5357C1630.21 25.9599 1625.82 30.3571 1620.39 30.3571C1614.97 30.3571 1610.57 25.9599 1610.57 20.5357C1610.57 15.1115 1614.97 10.7143 1620.39 10.7143C1625.82 10.7143 1630.21 15.1115 1630.21 20.5357Z" fill="white"/>
<path d="M1689.14 20.5357C1689.14 25.9599 1684.75 30.3571 1679.32 30.3571C1673.9 30.3571 1669.5 25.9599 1669.5 20.5357C1669.5 15.1115 1673.9 10.7143 1679.32 10.7143C1684.75 10.7143 1689.14 15.1115 1689.14 20.5357Z" fill="white"/>
<path d="M1748.07 20.5357C1748.07 25.9599 1743.67 30.3571 1738.25 30.3571C1732.83 30.3571 1728.43 25.9599 1728.43 20.5357C1728.43 15.1115 1732.83 10.7143 1738.25 10.7143C1743.67 10.7143 1748.07 15.1115 1748.07 20.5357Z" fill="white"/>
<path d="M1807 20.5357C1807 25.9599 1802.6 30.3571 1797.18 30.3571C1791.75 30.3571 1787.36 25.9599 1787.36 20.5357C1787.36 15.1115 1791.75 10.7143 1797.18 10.7143C1802.6 10.7143 1807 15.1115 1807 20.5357Z" fill="white"/>
<path d="M1276.64 79.4643C1276.64 84.8885 1272.25 89.2857 1266.82 89.2857C1261.4 89.2857 1257 84.8885 1257 79.4643C1257 74.0401 1261.4 69.6428 1266.82 69.6428C1272.25 69.6428 1276.64 74.0401 1276.64 79.4643Z" fill="white"/>
<path d="M1335.57 79.4643C1335.57 84.8885 1331.17 89.2857 1325.75 89.2857C1320.33 89.2857 1315.93 84.8885 1315.93 79.4643C1315.93 74.0401 1320.33 69.6428 1325.75 69.6428C1331.17 69.6428 1335.57 74.0401 1335.57 79.4643Z" fill="white"/>
<path d="M1394.5 79.4643C1394.5 84.8885 1390.1 89.2857 1384.68 89.2857C1379.25 89.2857 1374.86 84.8885 1374.86 79.4643C1374.86 74.0401 1379.25 69.6428 1384.68 69.6428C1390.1 69.6428 1394.5 74.0401 1394.5 79.4643Z" fill="white"/>
<path d="M1453.43 79.4643C1453.43 84.8885 1449.03 89.2857 1443.61 89.2857C1438.18 89.2857 1433.79 84.8885 1433.79 79.4643C1433.79 74.0401 1438.18 69.6428 1443.61 69.6428C1449.03 69.6428 1453.43 74.0401 1453.43 79.4643Z" fill="white"/>
<path d="M1512.36 79.4643C1512.36 84.8885 1507.96 89.2857 1502.54 89.2857C1497.11 89.2857 1492.71 84.8885 1492.71 79.4643C1492.71 74.0401 1497.11 69.6428 1502.54 69.6428C1507.96 69.6428 1512.36 74.0401 1512.36 79.4643Z" fill="white"/>
<path d="M1571.29 79.4643C1571.29 84.8885 1566.89 89.2857 1561.46 89.2857C1556.04 89.2857 1551.64 84.8885 1551.64 79.4643C1551.64 74.0401 1556.04 69.6428 1561.46 69.6428C1566.89 69.6428 1571.29 74.0401 1571.29 79.4643Z" fill="white"/>
<path d="M1630.21 79.4643C1630.21 84.8885 1625.82 89.2857 1620.39 89.2857C1614.97 89.2857 1610.57 84.8885 1610.57 79.4643C1610.57 74.0401 1614.97 69.6428 1620.39 69.6428C1625.82 69.6428 1630.21 74.0401 1630.21 79.4643Z" fill="white"/>
<path d="M1689.14 79.4643C1689.14 84.8885 1684.75 89.2857 1679.32 89.2857C1673.9 89.2857 1669.5 84.8885 1669.5 79.4643C1669.5 74.0401 1673.9 69.6428 1679.32 69.6428C1684.75 69.6428 1689.14 74.0401 1689.14 79.4643Z" fill="white"/>
<path d="M1748.07 79.4643C1748.07 84.8885 1743.67 89.2857 1738.25 89.2857C1732.83 89.2857 1728.43 84.8885 1728.43 79.4643C1728.43 74.0401 1732.83 69.6428 1738.25 69.6428C1743.67 69.6428 1748.07 74.0401 1748.07 79.4643Z" fill="white"/>
<path d="M1807 79.4643C1807 84.8885 1802.6 89.2857 1797.18 89.2857C1791.75 89.2857 1787.36 84.8885 1787.36 79.4643C1787.36 74.0401 1791.75 69.6428 1797.18 69.6428C1802.6 69.6428 1807 74.0401 1807 79.4643Z" fill="white"/>
<path d="M1276.64 138.393C1276.64 143.817 1272.25 148.214 1266.82 148.214C1261.4 148.214 1257 143.817 1257 138.393C1257 132.969 1261.4 128.571 1266.82 128.571C1272.25 128.571 1276.64 132.969 1276.64 138.393Z" fill="white"/>
<path d="M1335.57 138.393C1335.57 143.817 1331.17 148.214 1325.75 148.214C1320.33 148.214 1315.93 143.817 1315.93 138.393C1315.93 132.969 1320.33 128.571 1325.75 128.571C1331.17 128.571 1335.57 132.969 1335.57 138.393Z" fill="white"/>
<path d="M1394.5 138.393C1394.5 143.817 1390.1 148.214 1384.68 148.214C1379.25 148.214 1374.86 143.817 1374.86 138.393C1374.86 132.969 1379.25 128.571 1384.68 128.571C1390.1 128.571 1394.5 132.969 1394.5 138.393Z" fill="white"/>
<path d="M1453.43 138.393C1453.43 143.817 1449.03 148.214 1443.61 148.214C1438.18 148.214 1433.79 143.817 1433.79 138.393C1433.79 132.969 1438.18 128.571 1443.61 128.571C1449.03 128.571 1453.43 132.969 1453.43 138.393Z" fill="white"/>
<path d="M1512.36 138.393C1512.36 143.817 1507.96 148.214 1502.54 148.214C1497.11 148.214 1492.71 143.817 1492.71 138.393C1492.71 132.969 1497.11 128.571 1502.54 128.571C1507.96 128.571 1512.36 132.969 1512.36 138.393Z" fill="white"/>
<path d="M1571.29 138.393C1571.29 143.817 1566.89 148.214 1561.46 148.214C1556.04 148.214 1551.64 143.817 1551.64 138.393C1551.64 132.969 1556.04 128.571 1561.46 128.571C1566.89 128.571 1571.29 132.969 1571.29 138.393Z" fill="white"/>
<path d="M1630.21 138.393C1630.21 143.817 1625.82 148.214 1620.39 148.214C1614.97 148.214 1610.57 143.817 1610.57 138.393C1610.57 132.969 1614.97 128.571 1620.39 128.571C1625.82 128.571 1630.21 132.969 1630.21 138.393Z" fill="white"/>
<path d="M1689.14 138.393C1689.14 143.817 1684.75 148.214 1679.32 148.214C1673.9 148.214 1669.5 143.817 1669.5 138.393C1669.5 132.969 1673.9 128.571 1679.32 128.571C1684.75 128.571 1689.14 132.969 1689.14 138.393Z" fill="white"/>
<path d="M1748.07 138.393C1748.07 143.817 1743.67 148.214 1738.25 148.214C1732.83 148.214 1728.43 143.817 1728.43 138.393C1728.43 132.969 1732.83 128.571 1738.25 128.571C1743.67 128.571 1748.07 132.969 1748.07 138.393Z" fill="white"/>
<path d="M1807 138.393C1807 143.817 1802.6 148.214 1797.18 148.214C1791.75 148.214 1787.36 143.817 1787.36 138.393C1787.36 132.969 1791.75 128.571 1797.18 128.571C1802.6 128.571 1807 132.969 1807 138.393Z" fill="white"/>
<path d="M1335.57 197.321C1335.57 202.746 1331.17 207.143 1325.75 207.143C1320.33 207.143 1315.93 202.746 1315.93 197.321C1315.93 191.897 1320.33 187.5 1325.75 187.5C1331.17 187.5 1335.57 191.897 1335.57 197.321Z" fill="white"/>
<path d="M1394.5 197.321C1394.5 202.746 1390.1 207.143 1384.68 207.143C1379.25 207.143 1374.86 202.746 1374.86 197.321C1374.86 191.897 1379.25 187.5 1384.68 187.5C1390.1 187.5 1394.5 191.897 1394.5 197.321Z" fill="white"/>
<path d="M1453.43 197.321C1453.43 202.746 1449.03 207.143 1443.61 207.143C1438.18 207.143 1433.79 202.746 1433.79 197.321C1433.79 191.897 1438.18 187.5 1443.61 187.5C1449.03 187.5 1453.43 191.897 1453.43 197.321Z" fill="white"/>
<path d="M1512.36 197.321C1512.36 202.746 1507.96 207.143 1502.54 207.143C1497.11 207.143 1492.71 202.746 1492.71 197.321C1492.71 191.897 1497.11 187.5 1502.54 187.5C1507.96 187.5 1512.36 191.897 1512.36 197.321Z" fill="white"/>
<path d="M1571.29 197.321C1571.29 202.746 1566.89 207.143 1561.46 207.143C1556.04 207.143 1551.64 202.746 1551.64 197.321C1551.64 191.897 1556.04 187.5 1561.46 187.5C1566.89 187.5 1571.29 191.897 1571.29 197.321Z" fill="white"/>
<path d="M1630.21 197.321C1630.21 202.746 1625.82 207.143 1620.39 207.143C1614.97 207.143 1610.57 202.746 1610.57 197.321C1610.57 191.897 1614.97 187.5 1620.39 187.5C1625.82 187.5 1630.21 191.897 1630.21 197.321Z" fill="white"/>
<path d="M1689.14 197.321C1689.14 202.746 1684.75 207.143 1679.32 207.143C1673.9 207.143 1669.5 202.746 1669.5 197.321C1669.5 191.897 1673.9 187.5 1679.32 187.5C1684.75 187.5 1689.14 191.897 1689.14 197.321Z" fill="white"/>
<path d="M1748.07 197.321C1748.07 202.746 1743.67 207.143 1738.25 207.143C1732.83 207.143 1728.43 202.746 1728.43 197.321C1728.43 191.897 1732.83 187.5 1738.25 187.5C1743.67 187.5 1748.07 191.897 1748.07 197.321Z" fill="white"/>
<path d="M1394.5 256.25C1394.5 261.674 1390.1 266.071 1384.68 266.071C1379.25 266.071 1374.86 261.674 1374.86 256.25C1374.86 250.826 1379.25 246.429 1384.68 246.429C1390.1 246.429 1394.5 250.826 1394.5 256.25Z" fill="white"/>
<path d="M1453.43 256.25C1453.43 261.674 1449.03 266.071 1443.61 266.071C1438.18 266.071 1433.79 261.674 1433.79 256.25C1433.79 250.826 1438.18 246.429 1443.61 246.429C1449.03 246.429 1453.43 250.826 1453.43 256.25Z" fill="white"/>
<path d="M1512.36 256.25C1512.36 261.674 1507.96 266.071 1502.54 266.071C1497.11 266.071 1492.71 261.674 1492.71 256.25C1492.71 250.826 1497.11 246.429 1502.54 246.429C1507.96 246.429 1512.36 250.826 1512.36 256.25Z" fill="white"/>
<path d="M1571.29 256.25C1571.29 261.674 1566.89 266.071 1561.46 266.071C1556.04 266.071 1551.64 261.674 1551.64 256.25C1551.64 250.826 1556.04 246.429 1561.46 246.429C1566.89 246.429 1571.29 250.826 1571.29 256.25Z" fill="white"/>
<path d="M1630.21 256.25C1630.21 261.674 1625.82 266.071 1620.39 266.071C1614.97 266.071 1610.57 261.674 1610.57 256.25C1610.57 250.826 1614.97 246.429 1620.39 246.429C1625.82 246.429 1630.21 250.826 1630.21 256.25Z" fill="white"/>
<path d="M1689.14 256.25C1689.14 261.674 1684.75 266.071 1679.32 266.071C1673.9 266.071 1669.5 261.674 1669.5 256.25C1669.5 250.826 1673.9 246.429 1679.32 246.429C1684.75 246.429 1689.14 250.826 1689.14 256.25Z" fill="white"/>
<path d="M1453.43 315.179C1453.43 320.603 1449.03 325 1443.61 325C1438.18 325 1433.79 320.603 1433.79 315.179C1433.79 309.754 1438.18 305.357 1443.61 305.357C1449.03 305.357 1453.43 309.754 1453.43 315.179Z" fill="white"/>
<path d="M1512.36 315.179C1512.36 320.603 1507.96 325 1502.54 325C1497.11 325 1492.71 320.603 1492.71 315.179C1492.71 309.754 1497.11 305.357 1502.54 305.357C1507.96 305.357 1512.36 309.754 1512.36 315.179Z" fill="white"/>
<path d="M1571.29 315.179C1571.29 320.603 1566.89 325 1561.46 325C1556.04 325 1551.64 320.603 1551.64 315.179C1551.64 309.754 1556.04 305.357 1561.46 305.357C1566.89 305.357 1571.29 309.754 1571.29 315.179Z" fill="white"/>
<path d="M1630.21 315.179C1630.21 320.603 1625.82 325 1620.39 325C1614.97 325 1610.57 320.603 1610.57 315.179C1610.57 309.754 1614.97 305.357 1620.39 305.357C1625.82 305.357 1630.21 309.754 1630.21 315.179Z" fill="white"/>
<rect x="1773.73" y="1966.74" width="233.31" height="233.31" transform="rotate(93.8135 1773.73 1966.74)" stroke="white" stroke-width="6"/>
<path d="M1315.42 2186.43L1316.93 2185.11L1315.61 2183.61L1228.06 2083.55L1226.75 2082.05L1225.24 2083.36L1125.19 2170.91L1123.68 2172.23L1125 2173.74L1212.55 2273.79L1213.86 2275.3L1215.37 2273.98L1315.42 2186.43ZM1228.87 2050.17L1348.81 2187.24L1211.74 2307.17L1091.8 2170.11L1228.87 2050.17ZM1225.37 2102.7L1296.28 2183.74L1215.24 2254.64L1144.33 2173.61L1225.37 2102.7Z" fill="white" stroke="white" stroke-width="4"/>
<path d="M1616.86 2766.07L1368.89 2888.02L1387.27 2612.3L1616.86 2766.07Z" fill="white"/>
<path d="M1327.74 3221.31L1726.61 3357.2L1644.86 2943.82L1625.23 2961L1696.86 3323.2L1347.37 3204.13L1327.74 3221.31Z" fill="white"/>
<path d="M1370.47 3183.92L1661.84 3283.18L1602.12 2981.22L1370.47 3183.92Z" fill="white"/>
<path d="M989.36 3233.97L1138.81 3103.2L1177.34 3298.01L989.36 3233.97Z" stroke="white" stroke-width="5"/>
<path d="M-82.703 808.068L63.5927 600.115L306.576 674.989L310.452 929.218L69.8644 1011.46L-82.703 808.068Z" fill="white"/>
<path fill-rule="evenodd" clip-rule="evenodd" d="M642.587 668.274L575.604 763.334L728.417 966.737L969.402 884.48L967.362 750.662L1033.06 632.937L859.793 446.597L628.739 553.553L642.587 668.274ZM653.765 652.411L642.587 668.274L659.211 805.995L909.099 855.057L967.362 750.662L966.966 724.71L1017.11 634.857L856.692 462.337L642.774 561.361L653.765 652.411ZM653.765 652.411L722.145 555.367L965.526 630.239L966.966 724.71L902.341 840.504L670.986 795.081L653.765 652.411Z" fill="white"/>
<path d="M141.498 239.544L137.84 237.982L138.094 237.388L142.259 237.761L141.498 239.544ZM143.081 235.838L138.915 235.465L140.558 231.618L144.723 231.992L143.081 235.838ZM146.366 228.145L142.2 227.772L143.843 223.925L148.009 224.299L146.366 228.145ZM149.652 220.452L145.486 220.078L147.129 216.232L161.87 217.554L162.225 213.592L138.321 211.448L138.676 207.486L162.58 209.63L162.936 205.668L139.032 203.524L139.387 199.562L163.291 201.707L163.647 197.745L139.743 195.6L140.098 191.638L164.002 193.783L164.358 189.821L140.454 187.676L140.809 183.714L164.713 185.859L165.069 181.897L141.165 179.752L141.52 175.79L165.424 177.935L165.779 173.973L141.875 171.828L142.231 167.866L166.135 170.011L166.49 166.049L142.586 163.904L142.942 159.942L166.846 162.087L167.201 158.125L143.297 155.98L143.653 152.018L167.557 154.163L167.912 150.201L144.008 148.056L144.364 144.094L168.268 146.239L168.623 142.277L144.719 140.132L145.074 136.17L168.978 138.315L169.334 134.353L145.43 132.208L145.785 128.246L169.689 130.391L170.045 126.429L146.141 124.284L146.496 120.322L170.4 122.467L170.756 118.505L146.852 116.36L147.207 112.398L171.111 114.543L171.467 110.581L147.563 108.436L147.918 104.474L171.822 106.619L172.177 102.657L148.273 100.512L148.629 96.5502L172.533 98.6947L172.888 94.7327L148.984 92.5882L149.34 88.6262L173.244 90.7707L173.599 86.8087L149.695 84.6642L150.051 80.7022L173.955 82.8467L174.31 78.8847L150.406 76.7402L150.762 72.7782L174.666 74.9227L175.021 70.9607L151.117 68.8162L151.472 64.8542L175.376 66.9987L175.732 63.0368L151.828 60.8922L152.183 56.9302L176.087 59.0748L176.443 55.1128L152.539 52.9682L152.894 49.0062L176.798 51.1508L177.154 47.1888L153.25 45.0443L153.605 41.0823L177.509 43.2268L177.865 39.2648L153.961 37.1203L154.316 33.1583L178.22 35.3028L178.575 31.3408L154.671 29.1963L155.027 25.2343L178.931 27.3788L179.286 23.4168L155.382 21.2723L155.738 17.3103L179.642 19.4548L179.997 15.4928L156.093 13.3483L156.449 9.38632L180.353 11.5308L180.708 7.56884L156.804 5.42432L157.16 1.46233L181.064 3.60684L181.419 -0.355132L157.515 -2.49967L157.87 -6.46168L181.774 -4.31714L182.13 -8.27913L158.226 -10.4236L158.581 -14.3856L182.485 -12.2411L182.841 -16.2031L158.937 -18.3476L159.292 -22.3096L183.196 -20.1651L183.552 -24.1271L159.648 -26.2716L160.003 -30.2336L183.907 -28.0891L184.263 -32.0511L160.359 -34.1956L160.714 -38.1576L184.618 -36.0131L184.973 -39.9751L161.069 -42.1196L161.425 -46.0816L185.329 -43.9371L185.684 -47.8991L161.78 -50.0436L162.136 -54.0056L186.04 -51.8611L186.395 -55.823L162.491 -57.9676L162.847 -61.9296L186.751 -59.785L187.106 -63.747L163.202 -65.8916L163.558 -69.8536L187.462 -67.709L187.817 -71.671L163.913 -73.8156L164.268 -77.7775L188.172 -75.633L188.528 -79.595L164.624 -81.7395L164.979 -85.7015L188.883 -83.557L189.239 -87.519L165.335 -89.6635L165.69 -93.6255L189.594 -91.481L189.95 -95.443L166.046 -97.5874L166.401 -101.549L190.305 -99.405L190.661 -103.367L166.757 -105.511L167.112 -109.473L191.016 -107.329L191.371 -111.291L167.467 -113.435L167.823 -117.397L191.727 -115.253L192.082 -119.215L177.341 -120.537L176.409 -124.615L180.575 -124.241L181.297 -121.083L185.175 -121.969L184.741 -123.867L188.907 -123.494L189.053 -122.856L191.017 -123.304L192.438 -123.177L192.479 -123.639L192.931 -123.742L192.613 -125.132L192.793 -127.139L192.141 -127.197L191.209 -131.275L193.149 -131.101L193.504 -135.063L190.277 -135.352L189.346 -139.43L193.511 -139.056L196.809 -124.628L200.687 -125.514L195.34 -148.911L199.217 -149.797L204.565 -126.401L208.443 -127.287L203.095 -150.684L206.973 -151.57L212.32 -128.173L216.198 -129.059L210.851 -152.456L214.729 -153.342L220.076 -129.946L223.954 -130.832L218.607 -154.229L222.485 -155.115L227.832 -131.718L231.71 -132.605L226.363 -156.001L230.241 -156.888L235.588 -133.491L239.466 -134.377L234.119 -157.774L237.997 -158.66L243.344 -135.263L247.222 -136.15L241.875 -159.546L245.752 -160.433L251.1 -137.036L254.978 -137.922L249.63 -161.319L253.508 -162.205L258.856 -138.808L262.733 -139.695L257.386 -163.091L261.264 -163.978L266.611 -140.581L270.489 -141.467L265.142 -164.864L269.02 -165.75L274.367 -142.354L278.245 -143.24L272.898 -166.637L276.776 -167.523L282.123 -144.126L286.001 -145.012L280.654 -168.409L284.532 -169.295L289.879 -145.899L293.757 -146.785L288.41 -170.182L292.288 -171.068L297.635 -147.671L301.513 -148.558L296.165 -171.954L300.043 -172.84L305.391 -149.444L309.268 -150.33L303.921 -173.727L307.799 -174.613L313.146 -151.216L317.024 -152.103L311.677 -175.499L315.555 -176.386L320.902 -152.989L324.78 -153.875L319.433 -177.272L323.311 -178.158L328.658 -154.761L332.536 -155.648L327.189 -179.044L331.067 -179.931L336.414 -156.534L340.292 -157.42L334.945 -180.817L338.823 -181.703L344.17 -158.307L348.048 -159.193L342.7 -182.59L346.578 -183.476L351.926 -160.079L355.803 -160.965L350.456 -184.362L354.334 -185.248L359.681 -161.852L363.559 -162.738L358.212 -186.135L362.09 -187.021L367.437 -163.624L371.315 -164.51L365.968 -187.907L369.846 -188.793L375.193 -165.397L379.071 -166.283L373.724 -189.68L377.602 -190.566L382.949 -167.169L386.827 -168.056L381.48 -191.452L385.358 -192.339L390.705 -168.942L394.583 -169.828L389.235 -193.225L393.113 -194.111L398.461 -170.714L402.338 -171.601L396.991 -194.997L400.869 -195.884L406.216 -172.487L410.094 -173.373L404.747 -196.77L408.625 -197.656L413.972 -174.259L417.85 -175.146L412.503 -198.542L416.381 -199.429L421.728 -176.032L425.606 -176.918L420.259 -200.315L424.137 -201.201L429.484 -177.805L433.362 -178.691L428.015 -202.088L431.893 -202.974L437.24 -179.577L441.118 -180.463L435.77 -203.86L439.648 -204.746L444.996 -181.35L448.873 -182.236L443.526 -205.633L447.404 -206.519L452.751 -183.122L456.629 -184.008L451.282 -207.405L455.16 -208.291L460.507 -184.895L464.385 -185.781L459.038 -209.178L462.916 -210.064L468.263 -186.667L472.141 -187.554L466.794 -210.95L470.672 -211.837L476.019 -188.44L479.897 -189.326L474.55 -212.723L478.427 -213.609L483.775 -190.212L487.653 -191.099L482.305 -214.495L486.183 -215.382L491.53 -191.985L495.408 -192.871L490.061 -216.268L493.939 -217.154L499.286 -193.757L503.164 -194.644L497.817 -218.04L501.695 -218.927L507.042 -195.53L510.92 -196.416L505.573 -219.813L509.451 -220.699L514.798 -197.303L518.676 -198.189L513.329 -221.586L517.207 -222.472L522.554 -199.075L526.432 -199.961L523.134 -214.39L526.724 -216.536L527.656 -212.458L524.876 -210.796L526.917 -207.382L528.588 -208.381L529.52 -204.303L528.958 -203.968L529.992 -202.238L530.31 -200.848L530.762 -200.951L530.999 -200.553L532.223 -201.285L534.188 -201.734L534.042 -202.372L537.632 -204.518L538.065 -202.62L541.943 -203.506L541.222 -206.665L544.811 -208.811L545.743 -204.734L533.04 -197.139L535.082 -193.725L555.681 -206.04L557.722 -202.626L537.123 -190.311L539.164 -186.896L559.763 -199.212L561.805 -195.797L541.205 -183.482L543.247 -180.068L563.846 -192.383L565.887 -188.969L545.288 -176.654L547.329 -173.239L567.928 -185.555L569.97 -182.141L549.37 -169.825L551.412 -166.411L572.011 -178.726L574.052 -175.312L553.453 -162.997L555.494 -159.582L576.093 -171.898L578.135 -168.484L557.535 -156.168L559.577 -152.754L580.176 -165.069L582.217 -161.655L561.618 -149.34L563.659 -145.925L584.258 -158.241L586.3 -154.827L565.7 -142.511L567.742 -139.097L588.341 -151.412L590.382 -147.998L569.783 -135.683L571.824 -132.268L592.423 -144.584L594.465 -141.17L573.865 -128.854L575.907 -125.44L596.506 -137.755L598.547 -134.341L577.948 -122.026L579.989 -118.611L600.588 -130.927L602.629 -127.513L582.03 -115.197L584.071 -111.783L604.671 -124.098L606.712 -120.684L586.113 -108.369L588.154 -104.954L608.753 -117.27L610.794 -113.856L590.195 -101.54L592.236 -98.1259L612.836 -110.441L614.877 -107.027L594.278 -94.7117L596.319 -91.2974L616.918 -103.613L618.959 -100.199L598.36 -87.8832L600.401 -84.4689L621.001 -96.7844L623.042 -93.3701L602.443 -81.0547L604.484 -77.6404L625.083 -89.9559L627.124 -86.5416L606.525 -74.2262L608.566 -70.8119L629.166 -83.1274L631.207 -79.7132L610.608 -67.3977L612.649 -63.9834L633.248 -76.2989L635.289 -72.8847L614.69 -60.5692L616.731 -57.155L637.331 -69.4704L639.372 -66.0562L618.773 -53.7407L620.814 -50.3265L641.413 -62.6419L643.454 -59.2277L622.855 -46.9122L624.896 -43.498L645.496 -55.8134L647.537 -52.3992L626.938 -40.0837L628.979 -36.6695L649.578 -48.985L651.619 -45.5707L631.02 -33.2552L633.061 -29.841L653.66 -42.1565L655.702 -38.7422L635.102 -26.4268L637.144 -23.0125L657.743 -35.328L659.784 -31.9137L639.185 -19.5983L641.226 -16.184L661.825 -28.4995L663.867 -25.0852L643.267 -12.7698L645.309 -9.35552L665.908 -21.671L667.949 -18.2567L647.35 -5.94128L649.391 -2.52703L669.99 -14.8425L672.032 -11.4283L651.432 0.887212L653.474 4.30143L674.073 -8.01403L676.114 -4.59978L655.515 7.71569L657.556 11.1299L678.155 -1.18553L680.197 2.22871L659.597 14.5442L661.639 17.9584L682.238 5.64296L684.279 9.0572L663.68 21.3727L665.721 24.7869L686.32 12.4715L688.362 15.8857L667.762 28.2012L669.804 31.6154L690.403 19.2999L692.444 22.7142L671.845 35.0297L673.886 38.4439L694.485 26.1284L696.527 29.5427L675.927 41.8581L677.968 45.2724L698.568 32.9569L700.609 36.3712L680.01 48.6866L682.051 52.1009L702.65 39.7854L704.691 43.1997L684.092 55.5151L686.133 58.9294L706.733 46.6139L708.774 50.0281L688.175 62.3436L690.216 65.7578L710.815 53.4424L712.856 56.8566L692.257 69.1721L694.298 72.5863L714.898 60.2709L716.939 63.6851L696.34 76.0006L698.381 79.4148L718.98 67.0993L721.021 70.5136L700.422 82.8291L702.463 86.2433L723.063 73.9278L725.104 77.3421L704.505 89.6575L706.546 93.0718L719.249 85.4772L722.399 88.2281L718.81 90.3744L716.369 88.2437L713.753 91.2401L715.22 92.5207L711.63 94.667L711.137 94.2365L709.812 95.754L708.587 96.486L708.825 96.8839L708.52 97.2329L709.594 98.1708L710.628 99.9003L711.19 99.5643L714.341 102.315L712.67 103.315L714.711 106.729L717.491 105.066L720.642 107.817L717.052 109.964L705.904 100.229L703.287 103.226L721.366 119.011L718.749 122.007L700.671 106.222L698.055 109.218L716.133 125.004L713.517 128L695.438 112.215L692.822 115.211L710.9 130.997L708.284 133.993L690.206 118.208L687.589 121.204L705.667 136.989L703.051 139.986L684.973 124.2L682.357 127.197L700.435 142.982L697.818 145.979L679.74 130.193L677.124 133.19L695.202 148.975L692.586 151.971L674.507 136.186L671.891 139.182L689.969 154.968L687.353 157.964L669.275 142.179L666.658 145.175L684.737 160.961L682.12 163.957L664.042 148.172L661.426 151.168L679.504 166.953L676.888 169.95L658.809 154.164L656.193 157.161L674.271 172.946L671.655 175.943L653.577 160.157L650.96 163.154L669.038 178.939L666.422 181.935L648.344 166.15L645.727 169.146L663.806 184.932L661.189 187.928L643.111 172.143L640.495 175.139L658.573 190.925L655.957 193.921L637.878 178.136L635.262 181.132L653.34 196.917L650.724 199.914L632.646 184.128L630.029 187.125L648.108 202.91L645.491 205.906L627.413 190.121L624.797 193.118L642.875 208.903L640.258 211.899L622.18 196.114L619.564 199.11L637.642 214.896L635.026 217.892L616.947 202.107L614.331 205.103L632.409 220.888L629.793 223.885L611.715 208.099L609.098 211.096L627.177 226.881L624.56 229.878L606.482 214.092L603.866 217.089L621.944 232.874L619.328 235.87L601.249 220.085L598.633 223.081L616.711 238.867L614.095 241.863L596.017 226.078L593.4 229.074L611.478 244.86L608.862 247.856L590.784 232.071L588.168 235.067L606.246 250.852L603.629 253.849L585.551 238.063L582.935 241.06L601.013 256.845L598.397 259.842L580.318 244.056L577.702 247.053L595.78 262.838L593.164 265.834L575.086 250.049L572.469 253.045L590.548 268.831L587.931 271.827L569.853 256.042L567.237 259.038L585.315 274.824L582.698 277.82L564.62 262.035L562.004 265.031L580.082 280.816L577.466 283.813L559.388 268.027L556.771 271.024L574.849 286.809L572.233 289.806L554.155 274.02L551.538 277.017L569.617 292.802L567 295.798L548.922 280.013L546.306 283.009L564.384 298.795L561.768 301.791L543.689 286.006L541.073 289.002L559.151 304.787L556.535 307.784L538.457 291.999L535.84 294.995L553.919 310.78L551.302 313.777L533.224 297.991L530.608 300.988L548.686 316.773L546.069 319.769L527.991 303.984L525.375 306.98L543.453 322.766L540.837 325.762L522.758 309.977L520.142 312.973L538.22 328.759L535.604 331.755L517.526 315.97L514.909 318.966L532.988 334.751L530.371 337.748L512.293 321.962L509.677 324.959L527.755 340.744L525.139 343.741L507.06 327.955L504.444 330.952L522.522 346.737L519.906 349.733L501.828 333.948L499.211 336.944L517.29 352.73L514.673 355.726L496.595 339.941L493.979 342.937L512.057 358.722L509.44 361.719L491.362 345.934L488.746 348.93L506.824 364.715L504.208 367.712L486.129 351.926L483.513 354.923L494.662 364.657L493.019 368.504L489.868 365.753L491.141 362.773L487.482 361.211L486.718 363.002L483.567 360.251L483.824 359.649L481.971 358.857L480.897 357.919L480.592 358.268L480.166 358.086L479.606 359.398L478.28 360.915L478.774 361.346L477.131 365.193L475.664 363.912L473.048 366.908L475.488 369.039L473.845 372.886L470.695 370.135L476.508 356.524L472.849 354.962L463.423 377.033L459.765 375.471L469.191 353.399L465.533 351.837L456.107 373.908L452.448 372.346L461.875 350.274L458.216 348.712L448.79 370.783L445.132 369.221L454.558 347.15L450.9 345.587L441.474 367.659L437.815 366.096L447.242 344.025L443.583 342.463L434.157 364.534L430.499 362.972L439.925 340.9L436.267 339.338L426.841 361.409L423.182 359.847L432.609 337.775L428.95 336.213L419.524 358.284L415.866 356.722L425.292 334.651L421.634 333.088L412.208 355.16L408.549 353.597L417.976 331.526L414.318 329.964L404.891 352.035L401.233 350.473L410.659 328.401L407.001 326.839L397.575 348.91L393.916 347.348L403.343 325.276L399.685 323.714L390.258 345.785L386.6 344.223L396.026 322.152L392.368 320.589L382.942 342.661L379.284 341.098L388.71 319.027L385.052 317.465L375.625 339.536L371.967 337.974L381.393 315.902L377.735 314.34L368.309 336.411L364.651 334.849L374.077 312.778L370.419 311.215L360.992 333.286L357.334 331.724L366.76 309.653L363.102 308.09L353.676 330.162L350.018 328.599L359.444 306.528L355.786 304.966L346.359 327.037L342.701 325.475L352.127 303.403L348.469 301.841L339.043 323.912L335.385 322.35L344.811 300.279L341.153 298.716L331.726 320.788L328.068 319.225L337.494 297.154L333.836 295.591L324.41 317.663L320.752 316.1L330.178 294.029L326.52 292.467L317.093 314.538L313.435 312.976L322.861 290.904L319.203 289.342L309.777 311.413L306.119 309.851L315.545 287.78L311.887 286.217L302.46 308.289L298.802 306.726L308.229 284.655L304.57 283.092L295.144 305.164L291.486 303.601L300.912 281.53L297.254 279.968L287.828 302.039L284.169 300.477L293.596 278.405L289.937 276.843L280.511 298.914L276.853 297.352L286.279 275.281L282.621 273.718L273.195 295.79L269.536 294.227L278.963 272.156L275.304 270.593L265.878 292.665L262.22 291.102L271.646 269.031L267.988 267.469L258.562 289.54L254.903 287.978L264.33 265.906L260.671 264.344L251.245 286.415L247.587 284.853L257.013 262.782L253.355 261.219L243.929 283.291L240.27 281.728L249.697 259.657L246.038 258.094L236.612 280.166L232.954 278.603L242.38 256.532L238.722 254.97L229.296 277.041L225.637 275.479L235.064 253.407L231.405 251.845L221.979 273.916L218.321 272.354L227.747 250.283L224.089 248.72L214.663 270.792L211.004 269.229L220.431 247.158L216.773 245.596L207.346 267.667L203.688 266.105L213.114 244.033L209.456 242.471L200.03 264.542L196.371 262.98L205.798 240.908L202.14 239.346L192.713 261.417L189.055 259.855L198.481 237.784L194.823 236.221L185.397 258.293L181.739 256.73L191.165 234.659L187.507 233.097L178.08 255.168L174.422 253.606L183.848 231.534L180.19 229.972L170.764 252.043L167.106 250.481L176.532 228.409L172.874 226.847L163.447 248.918L159.789 247.356L169.215 225.285L165.557 223.722L159.744 237.333L155.578 236.959L157.221 233.113L160.448 233.402L160.803 229.44L158.864 229.266L160.507 225.42L161.159 225.478L161.339 223.472L161.899 222.16L161.473 221.978L161.514 221.516L160.094 221.389L158.241 220.598L157.984 221.2L153.818 220.826L154.582 219.035L150.924 217.473L149.652 220.452ZM137.966 215.41L145.046 216.045L143.403 219.892L137.61 219.372L137.966 215.41ZM136.899 227.296L137.255 223.334L141.76 223.738L140.117 227.585L136.899 227.296ZM136.188 235.22L136.544 231.258L138.475 231.431L136.832 235.278L136.188 235.22ZM175.259 -120.724L168.178 -121.359L168.534 -125.321L174.327 -124.802L175.259 -120.724ZM173.395 -128.879L168.889 -129.283L169.245 -133.245L172.463 -132.957L173.395 -128.879ZM171.531 -137.034L169.6 -137.207L169.956 -141.169L170.599 -141.112L171.531 -137.034ZM172.072 -143.593L175.95 -144.48L176.382 -142.59L172.216 -142.963L172.072 -143.593ZM173.614 -136.847L172.682 -140.925L176.848 -140.551L177.78 -136.474L173.614 -136.847ZM181.946 -136.1L181.014 -140.177L185.18 -139.804L186.112 -135.726L181.946 -136.1ZM193.045 -141.095L188.88 -141.469L187.584 -147.139L191.462 -148.025L193.045 -141.095ZM179.828 -145.366L183.706 -146.252L184.714 -141.842L180.548 -142.216L179.828 -145.366ZM182.877 -132.022L187.043 -131.649L187.975 -127.571L183.809 -127.945L182.877 -132.022ZM178.712 -132.396L179.643 -128.319L175.478 -128.692L174.546 -132.77L178.712 -132.396ZM522.668 -216.428L521.084 -223.358L524.962 -224.244L526.258 -218.574L522.668 -216.428ZM529.848 -220.721L528.84 -225.131L532.718 -226.017L533.438 -222.867L529.848 -220.721ZM537.028 -225.013L536.596 -226.903L540.474 -227.789L540.618 -227.159L537.028 -225.013ZM542.879 -226.194L543.434 -226.526L545.475 -223.111L543.811 -222.117L542.879 -226.194ZM544.743 -218.039L547.516 -219.697L549.557 -216.283L545.675 -213.962L544.743 -218.039ZM546.606 -209.884L551.598 -212.869L553.64 -209.454L547.538 -205.807L546.606 -209.884ZM542.948 -216.966L543.88 -212.889L540.29 -210.742L539.358 -214.82L542.948 -216.966ZM535.768 -212.673L536.7 -208.596L533.11 -206.45L532.178 -210.527L535.768 -212.673ZM534.836 -216.751L531.246 -214.605L530.314 -218.682L533.904 -220.828L534.836 -216.751ZM538.426 -218.897L537.494 -222.975L541.084 -225.121L542.016 -221.044L538.426 -218.897ZM721.044 84.4041L727.145 80.7563L729.186 84.1706L724.194 87.1551L721.044 84.4041ZM727.345 89.9061L731.228 87.5848L733.269 90.9991L730.495 92.6571L727.345 89.9061ZM733.646 95.4081L735.31 94.4133L737.351 97.8275L736.797 98.1591L733.646 95.4081ZM737.064 101.033L734.447 104.029L732.987 102.754L736.577 100.608L737.064 101.033ZM731.851 96.4812L735.002 99.2322L731.412 101.378L728.261 98.6275L731.851 96.4812ZM724.671 100.774L727.822 103.525L724.232 105.671L721.081 102.92L724.671 100.774ZM718.627 111.339L722.217 109.193L726.598 113.018L723.982 116.015L718.627 111.339ZM731.831 107.025L729.215 110.022L725.807 107.047L729.397 104.9L731.831 107.025ZM721.521 98.0228L717.931 100.169L714.78 97.418L718.37 95.2718L721.521 98.0228ZM725.111 95.8765L721.96 93.1254L725.55 90.9792L728.701 93.7302L725.111 95.8765ZM496.237 366.032L501.591 370.708L498.975 373.704L494.594 369.879L496.237 366.032ZM492.951 373.725L496.359 376.701L493.742 379.697L491.308 377.572L492.951 373.725ZM489.666 381.418L491.126 382.694L488.51 385.69L488.023 385.265L489.666 381.418ZM485.373 386.407L481.714 384.845L482.476 383.062L485.626 385.813L485.373 386.407ZM488.09 380.043L486.448 383.89L483.297 381.139L484.94 377.292L488.09 380.043ZM481.789 374.541L480.146 378.388L476.996 375.637L478.639 371.79L481.789 374.541ZM469.873 372.058L473.024 374.809L470.74 380.158L467.081 378.595L469.873 372.058ZM478.056 383.282L474.398 381.72L476.174 377.56L479.325 380.311L478.056 383.282ZM483.432 370.695L480.281 367.944L481.924 364.097L485.075 366.848L483.432 370.695ZM486.583 373.446L488.225 369.599L491.376 372.35L489.733 376.197L486.583 373.446ZM158.923 239.256L156.131 245.794L152.473 244.231L154.757 238.882L158.923 239.256ZM150.591 238.509L148.814 242.669L145.156 241.107L146.425 238.135L150.591 238.509ZM151.412 236.586L147.247 236.212L148.889 232.366L153.055 232.739L151.412 236.586ZM154.698 228.893L150.532 228.519L152.175 224.672L156.341 225.046L154.698 228.893Z" stroke="white" stroke-width="48" stroke-dasharray="4 4"/>
</g>
<defs>
<clipPath id="clip0_1403_24">
<rect width="1651" height="3296" fill="white"/>
</clipPath>
</defs>
</svg>
