<svg width="556" height="556" viewBox="0 0 556 556" fill="none" xmlns="http://www.w3.org/2000/svg">
<path fill-rule="evenodd" clip-rule="evenodd" d="M278 119.16C248 94.7749 150.4 45.6034 0 44V513H278H556V44C405.6 45.6034 308 94.7749 278 119.16Z" fill="#D3691F"/>
<path fill-rule="evenodd" clip-rule="evenodd" d="M182.915 455.557C182.915 279.623 325.537 137 501.472 137V200.925C360.842 200.925 246.839 314.927 246.839 455.557H182.915ZM501.472 261.653C394.381 261.653 307.567 348.467 307.567 455.557H373.623C373.623 384.948 430.863 327.708 501.472 327.708V261.653Z" fill="#FEE8CF"/>
<path fill-rule="evenodd" clip-rule="evenodd" d="M372.557 455.557C372.557 279.623 229.934 137 54 137V200.925C194.63 200.925 308.633 314.927 308.633 455.557H372.557ZM54 261.653C161.09 261.653 247.904 348.467 247.904 455.557H181.849C181.849 384.948 124.609 327.708 54 327.708V261.653Z" fill="white"/>
<path fill-rule="evenodd" clip-rule="evenodd" d="M182 455.56C182 279.624 324.624 137 500.56 137V200.925C359.929 200.925 245.925 314.929 245.925 455.56H182Z" fill="#FEE8CF"/>
</svg>
