<svg width="556" height="469" viewBox="0 0 556 469" fill="none" xmlns="http://www.w3.org/2000/svg">
<path fill-rule="evenodd" clip-rule="evenodd" d="M278 75.1603C248 50.7749 150.4 1.60342 0 0V469H278H556V0C405.6 1.60342 308 50.7749 278 75.1603Z" fill="#D3691F"/>
<path fill-rule="evenodd" clip-rule="evenodd" d="M182.915 411.557C182.915 235.623 325.537 93 501.472 93V156.925C360.842 156.925 246.839 270.927 246.839 411.557H182.915ZM501.472 217.653C394.381 217.653 307.567 304.467 307.567 411.557H373.623C373.623 340.948 430.863 283.708 501.472 283.708V217.653Z" fill="#FEE8CF"/>
<path fill-rule="evenodd" clip-rule="evenodd" d="M372.557 411.557C372.557 235.623 229.934 93 54 93V156.925C194.63 156.925 308.633 270.927 308.633 411.557H372.557ZM54 217.653C161.09 217.653 247.904 304.467 247.904 411.557H181.849C181.849 340.948 124.609 283.708 54 283.708V217.653Z" fill="white"/>
<path fill-rule="evenodd" clip-rule="evenodd" d="M182 411.56C182 235.624 324.624 93 500.56 93V156.925C359.929 156.925 245.925 270.929 245.925 411.56H182Z" fill="#FEE8CF"/>
</svg>
