<svg width="415" height="364" viewBox="0 0 415 364" fill="none" xmlns="http://www.w3.org/2000/svg">
<g clip-path="url(#clip0_63_1262)">
<path d="M276.505 282.242C260.484 285.591 243.922 287.2 227.089 287.908C184.365 289.689 139.458 285.919 98.5105 273.382C44 256.7 21.2761 190.304 56.5834 144.58C66.875 131.268 80.5 123.471 93.7032 113.617C109.24 102.007 123.474 88.6426 134.427 72.528C143.995 58.4551 150.297 42.3509 160.745 28.8822C172.287 13.9968 189.537 4.71552 207.995 1.7676C274.234 -8.81573 347.589 29.4499 387.682 81.1426C431.849 138.091 394.172 215.611 343.156 253.393C322.672 268.559 300.167 277.299 276.505 282.242Z" fill="#FFE8D1"/>
<path d="M25.7969 194.138C24.1354 194.138 22.724 192.862 22.5886 191.174C19.8333 157.565 36.1302 130.184 71.0313 109.804C102.667 91.3251 124.266 56.1688 124.484 55.8095C125.411 54.2938 127.391 53.799 128.917 54.7261C130.432 55.6532 130.917 57.6324 130 59.1636C129.094 60.6584 107.359 96.0542 74.2917 115.372C41.7188 134.398 26.4844 159.716 29.0261 190.648C29.1771 192.429 27.849 193.976 26.0833 194.127C25.9792 194.138 25.8906 194.138 25.7969 194.138Z" fill="#FFE8D1"/>
<path d="M124.036 347.132C124.036 347.132 125.307 356.611 126.557 358.044C130.755 362.877 140.213 361.247 144.906 358.33C147.875 356.486 145.119 350.111 145.119 350.111L124.036 347.132Z" fill="#D2691E"/>
<path d="M138.953 337.398C138.953 337.398 141.88 343.867 142.339 344.554C142.812 345.236 150.781 355.023 140.193 357.179C129.609 359.341 127.224 357.825 124.719 350.664C123.276 346.523 124.844 338.486 124.844 338.486C124.844 338.486 125.422 340.877 129.062 340.929C135.448 341.013 138.25 339.716 138.953 337.398Z" fill="#192351"/>
<path d="M137.766 342.194L129.682 343.33C129.38 343.372 129.104 343.163 129.062 342.856C129.021 342.549 129.229 342.278 129.536 342.236L137.615 341.096C137.922 341.054 138.198 341.267 138.24 341.569C138.281 341.877 138.068 342.153 137.766 342.194Z" fill="white"/>
<path d="M138.271 344.382L130.188 345.523C129.886 345.565 129.609 345.351 129.568 345.049C129.526 344.742 129.734 344.466 130.042 344.424L138.12 343.289C138.427 343.247 138.703 343.455 138.745 343.762C138.787 344.059 138.573 344.341 138.271 344.382Z" fill="white"/>
<path d="M138.828 346.955L130.745 348.091C130.443 348.132 130.167 347.924 130.125 347.617C130.083 347.309 130.292 347.039 130.599 346.997L138.677 345.856C138.984 345.815 139.26 346.028 139.302 346.33C139.344 346.638 139.13 346.914 138.828 346.955Z" fill="white"/>
<path d="M123.521 237.033C119.099 218.382 117.755 199.382 117.755 199.382L100.417 185.814L62.5677 199.653C61.3073 216.559 62.2657 292.309 62.2136 302.726C62.1615 313.143 62.0938 337.809 62.0938 337.809C62.0938 337.809 74.5834 340.59 79.573 336.377C79.573 336.377 82.0886 318.2 82.698 309.7C84.7605 280.715 90.0938 231.83 90.0938 231.83C90.0938 231.83 98.224 255.023 105.193 273.372L121.594 335.481C137.005 336.981 141.385 333.007 141.385 333.007C141.385 333.007 126.495 249.59 123.521 237.033Z" fill="#192351"/>
<path d="M90.0938 232.085C89.9793 232.085 89.8699 232.002 89.8491 231.887L87.5886 220.299C87.5678 220.163 87.6511 220.033 87.7761 220.012C87.9168 219.991 88.0418 220.08 88.0626 220.205L90.323 231.788C90.3438 231.929 90.2605 232.054 90.1355 232.075C90.1251 232.085 90.1147 232.085 90.0938 232.085Z" fill="#FFE8D1"/>
<path d="M88.9688 226.294C88.9376 226.294 88.9063 226.283 88.8751 226.273C88.6928 226.2 84.5782 224.492 82.8334 223.049C82.7292 222.966 82.7188 222.804 82.8021 222.7C82.8855 222.596 83.0417 222.586 83.1511 222.669C84.8438 224.059 89.0209 225.799 89.0626 225.82C89.1876 225.872 89.2396 226.007 89.198 226.132C89.1563 226.242 89.0626 226.294 88.9688 226.294Z" fill="#FFE8D1"/>
<path d="M41.8122 355.148C41.8122 355.148 40.8226 360.846 47.5257 361.528C54.2236 362.215 58.9267 361.846 62.3903 361.101C65.8538 360.34 67.7965 359.257 71.4372 359.559C75.0778 359.867 78.8017 361.382 80.6351 359.528C82.1403 358.012 80.7601 353.861 80.7601 353.861L60.6976 353.955L41.8122 355.148Z" fill="#D2691E"/>
<path d="M63.0313 342.898C63.0313 342.898 55.0782 348.575 51.1668 350.512C47.2501 352.439 42.1668 351.101 41.823 355.148C41.4741 359.195 52.5209 358.309 58.9949 357.705C65.4636 357.106 70.0001 354.58 73.3855 355.59C76.7709 356.59 80.5418 354.981 80.7813 353.861C81.0261 352.747 79.3907 342.908 78.5313 341.971C78.5313 341.971 78.0574 343.908 71.6824 344.08C65.3074 344.236 63.0313 342.898 63.0313 342.898Z" fill="#192351"/>
<path d="M55.6144 351.111L55.5207 351.179C55.3332 351.294 55.0988 351.231 54.9842 351.039L53.7759 348.986C53.6665 348.799 53.7238 348.554 53.9113 348.45L54.0051 348.387C54.1926 348.268 54.4269 348.335 54.5415 348.523L55.7499 350.575C55.8696 350.757 55.8019 350.997 55.6144 351.111Z" fill="white"/>
<path d="M57.4269 349.83L57.3279 349.893C57.1404 350.007 56.9113 349.945 56.7915 349.757L55.5832 347.7C55.479 347.512 55.5311 347.268 55.7186 347.163L55.8175 347.101C56.005 346.986 56.2342 347.049 56.354 347.236L57.5623 349.294C57.6665 349.481 57.604 349.726 57.4269 349.83Z" fill="white"/>
<path d="M59.5314 348.471L59.4324 348.533C59.2449 348.648 59.0158 348.585 58.896 348.398L57.6876 346.341C57.5835 346.153 57.6356 345.908 57.8231 345.804L57.922 345.742C58.1095 345.627 58.3387 345.69 58.4585 345.877L59.6668 347.934C59.771 348.122 59.7189 348.367 59.5314 348.471Z" fill="white"/>
<path d="M61.6144 347.132L61.5154 347.195C61.3279 347.309 61.0988 347.247 60.979 347.059L59.7707 345.007C59.6665 344.814 59.7186 344.575 59.9061 344.466L59.9998 344.403C60.1925 344.288 60.4217 344.351 60.5415 344.544L61.7498 346.596C61.854 346.773 61.7915 347.018 61.6144 347.132Z" fill="white"/>
<path d="M79.8122 158.82C67.6091 160.736 46.6924 165.856 46.6924 165.856C47.5153 153.356 49.0205 143.455 50.8695 135.627C57.458 107.757 70.3434 106.033 70.3434 106.033L79.8851 110.877L90.9424 115.575C90.9424 115.575 92.0205 156.903 79.8122 158.82Z" fill="#F7AF7A"/>
<path d="M66.1144 161.335C66.1144 161.335 71.4998 176.46 60.9582 178.065C57.1092 178.653 38.7915 163.835 38.7915 163.835L50.9009 156.179L66.1144 161.335Z" fill="#F7AF7A"/>
<path d="M79.8854 110.877C79.0885 121.325 77.0052 134.679 71.599 135.841C64.8854 137.273 55.2656 136.236 50.8594 135.627C57.4479 107.757 69.0104 105.809 69.0104 105.809L79.8854 110.877Z" fill="#D2691E"/>
<path d="M64.1769 136.669C64.0936 136.669 64.0415 136.606 64.0415 136.533C64.0415 136.45 64.5571 128.58 65.6196 124.325C65.6405 124.252 65.7134 124.21 65.7811 124.231C65.854 124.252 65.8957 124.325 65.8748 124.387C64.8123 128.632 64.3071 136.471 64.3071 136.554C64.3071 136.606 64.255 136.669 64.1769 136.669Z" fill="#192351"/>
<path d="M73.9634 113.898C74.005 113.783 84.3905 124.799 91.1665 122.58C98.7394 120.08 102.13 104.632 102.13 104.632L100.932 89.1166L100.917 88.8614L100.896 87.9343L99.4061 88.4812L93.4582 90.6531L91.0728 91.5281L84.9686 93.752C84.9686 93.752 84.8644 97.7625 84.104 101.018C84.0207 101.367 83.9478 101.679 83.8644 101.997C83.6978 102.533 83.4425 103.038 83.1613 103.46C82.505 104.481 81.6978 105.137 81.6978 105.148C80.1613 108.382 74.0155 113.898 73.9634 113.898Z" fill="#F7AF7A"/>
<path d="M76.2656 84.5436C78.1823 92.9707 81.5729 101.408 89.724 100.153C95.4271 99.2676 100.917 91.3613 102.151 84.1009C102.781 80.3509 103.37 77.0853 103.359 74.6217C103.349 72.6738 103.255 71.4499 103.255 71.4499L101.854 67.2207L101.026 64.7415C101.026 64.7415 99.1927 63.2572 97.1406 61.5853C94.5833 59.4863 90.651 62.5228 90.5885 62.3717C90.4844 62.153 79.026 60.5488 75.4271 65.1426C75.4167 65.153 75.4063 65.1634 75.4063 65.1738C75.0781 65.5957 74.8281 66.0176 74.6667 66.4499C74.5313 66.8092 74.4688 67.1738 74.4688 67.5436C74.4688 68.252 74.5 69.3145 74.5417 70.653C74.5729 71.2103 74.5938 71.8197 74.6354 72.4759C74.7031 73.5697 74.7969 74.7728 74.9219 76.0332C75.1719 78.679 75.5938 81.627 76.2656 84.5436Z" fill="#F7AF7A"/>
<path d="M77.2549 88.4082C79.0153 96.1113 82.2861 100.903 89.807 100.153C97.0049 99.4499 100.791 91.7468 101.916 85.1113C101.307 83.5436 100.677 79.6582 100.677 79.6582C100.677 79.6582 98.8382 76.7936 98.8591 76.8978C99.0986 78.0905 99.0153 86.2207 95.5205 87.2311C91.7236 88.3353 90.3643 89.3145 88.9163 89.2936C87.4632 89.2728 87.0309 88.7676 85.7601 89.0853C84.4736 89.3978 83.5986 90.0749 81.8747 89.778C80.2549 89.5176 78.4684 90.6634 77.2549 88.4082Z" fill="#192351"/>
<path d="M103.739 74.528C103.739 74.528 105.104 56.0749 94.3645 56.0749C94.3645 56.0749 85.9999 52.1582 76.7499 57.4968C70.6718 61.002 72.8697 68.3666 73.4791 70.9134C73.8593 72.5176 74.5103 73.8457 74.7239 73.7572C75.3124 73.5176 75.3749 71.9134 77.5312 72.4134C86.276 74.4134 91.7551 67.8509 94.2082 69.2832C96.6562 70.7155 101.927 85.1114 101.927 85.1114C101.927 85.1114 102.37 78.3093 103.739 74.528Z" fill="#192351"/>
<path d="M101.614 76.1271C101.614 76.1271 106.453 72.6531 106.515 77.6896C106.578 82.7208 101.906 85.1219 101.906 85.1219L101.614 76.1271Z" fill="#F7AF7A"/>
<path d="M102.906 77.6895C102.906 77.6895 106.76 76.3301 103.068 81.9134L102.906 77.6895Z" fill="#192351"/>
<path d="M84.1611 93.3927C84.1611 93.3927 84.2757 93.5907 84.5361 93.8354C84.9893 94.2782 85.8747 94.8771 87.208 94.7209C88.5257 94.5594 89.3538 93.7104 89.7861 93.1167C90.0205 92.7834 90.1351 92.5386 90.1351 92.5386L84.1611 93.3927Z" fill="white"/>
<path d="M125.927 111.919C118.109 126.799 116.776 175.882 118.677 201.846C101.521 205.903 76.8592 207.913 62.2446 203.867C64.3592 176.137 60.9582 130.372 69.0103 105.809C69.0103 105.809 78.1717 103.169 84.1925 102.924C79.1196 109.804 98.13 111.663 102.151 102.924C102.151 102.924 121.531 106.96 125.927 111.919Z" fill="#D2691E"/>
<path d="M64.1769 136.669C64.0936 136.669 64.0415 136.606 64.0415 136.533C64.0415 136.45 64.5571 128.58 65.6196 124.325C65.6405 124.252 65.7134 124.21 65.7811 124.231C65.854 124.252 65.8957 124.325 65.8748 124.387C64.8123 128.632 64.3071 136.471 64.3071 136.554C64.3071 136.606 64.255 136.669 64.1769 136.669Z" fill="#192351"/>
<path d="M150.823 165.163C153.219 174.736 144.885 178.705 126.896 171.986C118.396 168.814 112.26 167.7 110.26 165.898L111.364 156.018C112.859 156.471 122.245 156.705 130.682 157.809L123.39 141.663C125.38 141.507 133.031 139.705 139.677 133.533C145.792 146.887 148.76 156.945 150.823 165.163Z" fill="#F7AF7A"/>
<path d="M124.885 110.992C124.885 110.992 130.422 113.763 135.302 122.059C139.719 129.58 144.172 138.872 143.255 139.934C137.625 146.549 124.635 147.33 124.635 147.33L118.729 136.195L124.885 110.992Z" fill="#D2691E"/>
<path d="M147.109 162.971C147.063 162.971 147.021 162.95 147 162.919C143.109 157.533 130.797 157.924 130.682 157.935C130.609 157.935 130.557 157.882 130.547 157.81C130.547 157.737 130.599 157.674 130.672 157.674C130.703 157.674 133.839 157.565 137.427 158.127C140.75 158.653 145.141 159.882 147.224 162.757C147.266 162.825 147.255 162.908 147.193 162.95C147.172 162.961 147.141 162.971 147.109 162.971Z" fill="#192351"/>
<path d="M99.0572 166.434C100.161 165.71 101.51 165.424 106.083 166.085C108.844 166.486 113.25 165.476 114.448 165.215L114.005 156.715C112.229 156.252 109.338 154.346 107.177 153.325C104.474 152.049 101.51 149.866 99.2343 150.648C95.3749 151.955 90.7864 154.236 91.3541 155.679C91.9426 157.127 96.4895 155.705 96.4895 155.705C96.4895 155.705 94.1561 156.986 94.4478 158.549C94.7447 160.106 96.7968 160.622 96.7968 160.622C95.6926 162.241 97.677 163.752 97.677 163.752C96.7759 165.215 98.1718 167.002 99.0572 166.434Z" fill="#F7AF7A"/>
<path d="M97.6874 163.887C97.6457 163.887 97.6145 163.867 97.5832 163.835C97.5416 163.783 97.5416 163.695 97.6041 163.643C97.677 163.59 99.328 162.221 101.927 162.064C101.927 162.064 101.927 162.064 101.937 162.064C102.016 162.064 102.068 162.117 102.078 162.189C102.078 162.262 102.026 162.33 101.948 162.33C99.4478 162.486 97.7968 163.835 97.7864 163.846C97.7499 163.877 97.7187 163.887 97.6874 163.887Z" fill="#192351"/>
<path d="M96.807 160.757C96.7654 160.757 96.7341 160.747 96.7081 160.715C96.656 160.663 96.6664 160.58 96.7185 160.528C96.807 160.455 98.8799 158.642 101.328 158.241C101.401 158.221 101.468 158.273 101.489 158.346C101.5 158.419 101.442 158.481 101.38 158.502C99.0049 158.892 96.9216 160.715 96.9008 160.726C96.8695 160.747 96.8383 160.757 96.807 160.757Z" fill="#192351"/>
<path d="M96.5 155.841C96.4584 155.841 96.4063 155.82 96.3855 155.778C96.3542 155.716 96.375 155.627 96.4375 155.596C96.4584 155.585 98.5938 154.398 101.151 154.398C101.234 154.398 101.328 154.44 101.318 154.533C101.318 154.606 101.255 154.669 101.182 154.669C101.172 154.669 101.151 154.669 101.141 154.669C98.6563 154.669 96.5834 155.82 96.5625 155.83C96.5417 155.83 96.5209 155.841 96.5 155.841Z" fill="#192351"/>
<path d="M107.318 167.319H70.2812V164.309H104.677C106.125 164.309 107.307 165.486 107.307 166.939V167.319H107.318Z" fill="#192351"/>
<path d="M31.849 167.32H93.8281L87.5885 127.252H25.6094L31.849 167.32Z" fill="#192351"/>
<path d="M63.0519 148.101C63.1613 148.716 63.1613 149.325 63.0519 149.934C62.9373 150.539 62.7238 151.096 62.4009 151.606C62.0832 152.111 61.6821 152.528 61.203 152.861C60.7238 153.195 60.1978 153.408 59.6353 153.513C59.0675 153.617 58.505 153.601 57.9373 153.46C57.3748 153.32 56.8488 153.07 56.3696 152.71C55.8905 152.346 55.4946 151.903 55.1717 151.377C54.854 150.851 54.6353 150.278 54.5259 149.664C54.4113 149.049 54.4113 148.44 54.5259 147.83C54.6353 147.226 54.854 146.669 55.1717 146.158C55.4946 145.653 55.8957 145.231 56.3748 144.903C56.854 144.57 57.3748 144.356 57.9425 144.252C58.505 144.148 59.0728 144.164 59.6353 144.304C60.203 144.445 60.7238 144.695 61.203 145.054C61.6821 145.414 62.0832 145.861 62.4009 146.388C62.7238 146.914 62.9373 147.486 63.0519 148.101Z" fill="white"/>
<path d="M42.5571 167.288C42.5571 167.288 43.0728 167.049 42.8332 164.721C42.5884 162.403 43.3071 160.127 45.5363 160.377C45.5363 160.377 47.4425 158.075 49.4269 160.356C49.4269 160.356 51.7342 159.315 53.2498 161.231C53.2498 161.231 55.1509 160.169 56.1092 161.58C57.0675 162.992 57.5415 167.08 56.1196 168.091C54.6873 169.101 51.0363 169.658 47.6925 169.606C44.3488 169.554 42.5571 167.288 42.5571 167.288Z" fill="#F7AF7A"/>
<path d="M45.5366 166.814C45.5158 166.814 45.4949 166.804 45.4741 166.794C45.4116 166.752 45.3908 166.679 45.422 166.617C46.7449 164.34 45.422 160.455 45.4116 160.424C45.3908 160.346 45.422 160.273 45.4949 160.252C45.5679 160.231 45.6408 160.262 45.6616 160.335C45.7137 160.507 47.0418 164.382 45.6616 166.752C45.6304 166.794 45.5783 166.814 45.5366 166.814Z" fill="#192351"/>
<path d="M49.427 167.012C49.4061 167.012 49.3957 167.012 49.3749 167.002C49.3124 166.971 49.2811 166.898 49.302 166.825C50.4582 164.169 49.302 160.434 49.2916 160.387C49.2707 160.315 49.3124 160.242 49.3749 160.221C49.4478 160.2 49.5259 160.242 49.5468 160.304C49.5988 160.466 50.7447 164.19 49.5468 166.929C49.5363 166.981 49.4791 167.012 49.427 167.012Z" fill="#192351"/>
<path d="M52.7763 167.361C52.7554 167.361 52.7242 167.351 52.7034 167.34C52.6356 167.299 52.6252 167.215 52.6565 167.163C54.0471 165.043 53.12 161.293 53.1096 161.262C53.0888 161.189 53.1304 161.116 53.2086 161.106C53.2815 161.085 53.3544 161.127 53.3648 161.2C53.4065 161.356 54.3336 165.096 52.8804 167.309C52.8596 167.34 52.8179 167.361 52.7763 167.361Z" fill="#192351"/>
<path d="M354.698 250.085H167.317C163.802 250.085 161.479 247.033 162.13 243.263L194.073 56.4553C194.651 53.0751 197.849 50.0699 201.229 49.7261L380.349 31.7365C384.38 31.3355 387.312 33.9761 386.885 37.6636L363.255 242.554C362.77 246.716 358.927 250.085 354.698 250.085Z" fill="#192351"/>
<path d="M349.745 245.138H162.365C158.849 245.138 156.521 242.08 157.177 238.309L189.12 51.5021C189.698 48.1219 192.896 45.1219 196.271 44.7729L375.396 26.7833C379.422 26.3823 382.359 29.0281 381.927 32.7156L358.297 237.606C357.823 241.763 353.984 245.138 349.745 245.138Z" fill="white"/>
<path d="M347.995 234.742L166.453 235.622L194.135 71.3771L369.125 56.1167L347.995 234.742Z" fill="#FFE8D1"/>
<path d="M203.151 56.8666C202.89 58.4447 201.396 59.8353 199.818 59.9812C198.239 60.1322 197.187 58.9708 197.448 57.4031C197.713 55.8301 199.198 54.4447 200.776 54.2833C202.344 54.1374 203.406 55.2833 203.151 56.8666Z" fill="#D2691E"/>
<path d="M223.12 54.9813C222.87 56.5699 221.354 57.9813 219.745 58.1272C218.135 58.2782 217.052 57.1063 217.302 55.5282C217.557 53.9501 219.073 52.5386 220.672 52.3772C222.281 52.2313 223.375 53.3876 223.12 54.9813Z" fill="#D2691E"/>
<path d="M213.083 55.929C212.823 57.5071 211.328 58.9186 209.729 59.0644C208.141 59.2155 207.068 58.054 207.328 56.4759C207.594 54.8978 209.088 53.4967 210.677 53.3457C212.266 53.1894 213.349 54.3457 213.083 55.929Z" fill="#D2691E"/>
<path d="M316.37 202.226L202.417 204.533L205.354 186.163L318.854 182.825L316.37 202.226Z" fill="#D2691E"/>
<path d="M246.807 188.793L246.015 196.283H248.87L248.656 198.309H243.26L244.26 188.793H246.807Z" fill="white"/>
<path d="M254.031 198.403C251.432 198.403 249.542 196.377 249.833 193.513C250.141 190.648 252.453 188.648 255.052 188.648C257.662 188.648 259.537 190.658 259.24 193.513C258.938 196.377 256.63 198.403 254.031 198.403ZM254.297 195.95C255.609 195.95 256.505 194.992 256.651 193.523C256.813 192.028 256.115 191.08 254.802 191.08C253.474 191.08 252.594 192.028 252.432 193.523C252.287 194.992 252.958 195.95 254.297 195.95Z" fill="white"/>
<path d="M269.151 191.924H266.406C266.172 191.429 265.682 191.143 264.974 191.143C263.693 191.143 262.807 192.07 262.661 193.533C262.49 195.169 263.208 196.044 264.714 196.044C265.594 196.044 266.292 195.611 266.755 194.788H264.198L264.396 192.882H269.151L268.88 195.445C268.182 196.83 266.604 198.372 264.219 198.372C261.406 198.372 259.766 196.367 260.073 193.523C260.365 190.689 262.406 188.689 265.219 188.689C267.542 188.7 268.995 189.945 269.151 191.924Z" fill="white"/>
<path d="M270.729 188.793H273.276L272.276 198.309H269.729L270.729 188.793Z" fill="white"/>
<path d="M283.229 188.793L282.229 198.309H279.682L276.843 192.986L276.286 198.309H273.739L274.739 188.793H277.286L280.114 194.179L280.682 188.793H283.229Z" fill="white"/>
<path d="M294.729 98.0803C293.12 109.929 281.901 120.184 269.802 120.914C257.844 121.632 249.656 112.742 251.37 101.122C253.078 89.5907 263.953 79.5334 275.802 78.5751C287.786 77.6168 296.318 86.3147 294.729 98.0803Z" fill="white"/>
<path d="M268.448 121.346C263.083 121.346 258.38 119.419 255.094 115.825C251.604 112.012 250.14 106.768 250.984 101.07C252.708 89.4187 263.817 79.1635 275.76 78.2052C281.797 77.7208 287.109 79.5854 290.781 83.4604C294.338 87.2208 295.864 92.4239 295.099 98.1323C293.469 110.169 282.125 120.554 269.812 121.304C269.364 121.325 268.901 121.346 268.448 121.346ZM277.609 78.8875C277.021 78.8875 276.432 78.9083 275.823 78.9604C264.219 79.8979 253.401 89.8614 251.729 101.184C250.916 106.653 252.317 111.664 255.651 115.32C259.052 119.039 264.083 120.893 269.771 120.544C281.734 119.83 292.76 109.726 294.338 98.0385C295.078 92.5698 293.625 87.5802 290.224 83.9864C287.099 80.6687 282.661 78.8875 277.609 78.8875Z" fill="#192351"/>
<path d="M280.682 93.7937C280.135 97.6166 276.505 100.955 272.583 101.216C268.677 101.492 265.974 98.6166 266.531 94.8145C267.089 91.0229 270.688 87.7156 274.583 87.4187C278.484 87.127 281.229 89.9812 280.682 93.7937Z" fill="#192351"/>
<path d="M282.765 111.148L259.442 112.658L260.302 106.799C260.588 104.882 262.385 103.231 264.333 103.091L280.494 101.976C282.474 101.841 283.859 103.294 283.588 105.231L282.765 111.148Z" fill="#192351"/>
<path d="M320.042 166.617L208.625 170.742L211.042 155.544L322.104 150.596L320.042 166.617Z" fill="white"/>
<path d="M250.057 161.158L249.057 162.695H246.797L249.089 159.528L247.354 156.585H249.667L250.563 158.127L251.573 156.585H253.833L251.5 159.705L253.266 162.705H250.948L250.057 161.158Z" fill="#192351"/>
<path d="M256.651 161.158L255.651 162.695H253.391L255.682 159.528L253.948 156.585H256.266L257.156 158.127L258.167 156.585H260.432L258.094 159.705L259.859 162.705H257.547L256.651 161.158Z" fill="#192351"/>
<path d="M263.25 161.158L262.25 162.695H259.989L262.281 159.528L260.547 156.585H262.859L263.755 158.127L264.765 156.585H267.026L264.692 159.705L266.458 162.705H264.146L263.25 161.158Z" fill="#192351"/>
<path d="M269.843 161.158L268.849 162.695H266.583L268.88 159.528L267.14 156.585H269.458L270.349 158.127L271.359 156.585H273.625L271.286 159.705L273.057 162.705H270.739L269.843 161.158Z" fill="#192351"/>
<path d="M276.443 161.158L275.443 162.695H273.182L275.474 159.528L273.739 156.585H276.052L276.948 158.127L277.958 156.585H280.219L277.885 159.705L279.651 162.705H277.338L276.443 161.158Z" fill="#192351"/>
<path d="M283.042 161.158L282.042 162.695H279.776L282.073 159.528L280.333 156.585H282.651L283.547 158.127L284.557 156.585H286.818L284.479 159.705L286.25 162.705H283.932L283.042 161.158Z" fill="#192351"/>
<path d="M323.073 142.992L212.203 148.33L214.599 133.33L325.104 127.189L323.073 142.992Z" fill="white"/>
<path d="M294.453 137.69L240.469 140.46L240.797 138.346L294.75 135.523L294.453 137.69Z" fill="#FFE8D1"/>
<path d="M378.078 215.836C378.88 216.664 379.635 217.528 380.349 218.429C381.057 219.336 381.724 220.273 382.338 221.252C382.953 222.226 383.521 223.231 384.036 224.263C384.547 225.299 385.01 226.362 385.416 227.45C385.823 228.533 386.177 229.643 386.468 230.768C386.765 231.898 387.005 233.039 387.187 234.195C387.37 235.351 387.495 236.518 387.562 237.695C387.63 238.872 387.64 240.049 387.588 241.231C387.541 242.414 387.432 243.596 387.271 244.778C387.104 245.955 386.88 247.127 386.604 248.289C386.323 249.45 385.989 250.601 385.599 251.742C385.208 252.877 384.765 253.992 384.265 255.091C383.765 256.195 383.218 257.268 382.62 258.32C382.015 259.372 381.37 260.393 380.672 261.382C379.974 262.377 379.229 263.336 378.442 264.257C377.651 265.185 376.823 266.07 375.953 266.919C375.078 267.768 374.172 268.575 373.229 269.336C372.281 270.101 371.302 270.815 370.291 271.487C369.281 272.158 368.245 272.778 367.177 273.351C366.109 273.924 365.021 274.44 363.911 274.908C362.802 275.377 361.672 275.789 360.526 276.148C359.38 276.507 358.218 276.81 357.052 277.06C355.88 277.304 354.708 277.497 353.526 277.627C352.343 277.757 351.161 277.836 349.979 277.851C348.797 277.867 347.62 277.825 346.448 277.726C345.276 277.622 344.114 277.466 342.963 277.252C341.812 277.039 340.677 276.768 339.562 276.44C338.442 276.112 337.349 275.726 336.276 275.289C335.203 274.851 334.156 274.362 333.135 273.82C332.114 273.273 331.125 272.679 330.172 272.039C329.213 271.393 328.297 270.705 327.411 269.966C326.531 269.226 325.687 268.445 324.885 267.622C324.083 266.794 323.328 265.929 322.614 265.028C321.906 264.122 321.239 263.185 320.625 262.211C320.005 261.237 319.442 260.231 318.927 259.195C318.416 258.158 317.953 257.096 317.547 256.013C317.14 254.924 316.786 253.815 316.489 252.69C316.198 251.565 315.958 250.419 315.776 249.263C315.588 248.106 315.468 246.94 315.401 245.763C315.333 244.591 315.323 243.408 315.375 242.226C315.422 241.044 315.531 239.862 315.692 238.685C315.859 237.502 316.083 236.336 316.359 235.169C316.64 234.007 316.974 232.856 317.364 231.721C317.755 230.586 318.198 229.466 318.698 228.367C319.192 227.268 319.745 226.19 320.343 225.143C320.948 224.091 321.593 223.07 322.291 222.075C322.989 221.08 323.734 220.122 324.521 219.2C325.312 218.273 326.14 217.388 327.01 216.539C327.88 215.69 328.791 214.888 329.734 214.122C330.682 213.362 331.661 212.643 332.672 211.971C333.682 211.304 334.718 210.679 335.786 210.106C336.849 209.539 337.942 209.018 339.052 208.549C340.161 208.08 341.291 207.669 342.437 207.31C343.583 206.95 344.739 206.648 345.911 206.403C347.078 206.153 348.255 205.966 349.437 205.83C350.62 205.7 351.802 205.627 352.984 205.612C354.166 205.596 355.343 205.638 356.515 205.737C357.687 205.836 358.849 205.992 360 206.205C361.151 206.424 362.281 206.695 363.401 207.023C364.521 207.351 365.614 207.731 366.687 208.169C367.76 208.606 368.807 209.096 369.828 209.643C370.849 210.185 371.833 210.778 372.791 211.419C373.75 212.065 374.666 212.757 375.552 213.492C376.432 214.231 377.276 215.013 378.078 215.836Z" fill="#192351"/>
<path d="M373.266 213.132C374.068 213.955 374.823 214.82 375.536 215.721C376.25 216.627 376.911 217.565 377.531 218.544C378.146 219.518 378.714 220.523 379.224 221.554C379.74 222.591 380.198 223.653 380.604 224.742C381.016 225.825 381.365 226.934 381.661 228.059C381.958 229.19 382.198 230.33 382.38 231.486C382.562 232.643 382.687 233.809 382.755 234.986C382.823 236.164 382.828 237.341 382.781 238.523C382.729 239.71 382.625 240.887 382.458 242.07C382.292 243.247 382.073 244.419 381.792 245.58C381.516 246.747 381.177 247.893 380.792 249.033C380.401 250.169 379.953 251.289 379.458 252.387C378.958 253.486 378.411 254.559 377.807 255.611C377.208 256.664 376.557 257.684 375.859 258.674C375.161 259.669 374.417 260.627 373.63 261.554C372.844 262.476 372.01 263.361 371.141 264.21C370.271 265.059 369.365 265.867 368.417 266.627C367.474 267.393 366.495 268.106 365.484 268.778C364.474 269.45 363.432 270.07 362.37 270.643C361.302 271.216 360.214 271.736 359.099 272.2C357.99 272.669 356.859 273.085 355.714 273.44C354.568 273.799 353.411 274.106 352.245 274.351C351.073 274.596 349.896 274.789 348.714 274.919C347.531 275.049 346.354 275.127 345.167 275.143C343.984 275.158 342.807 275.117 341.635 275.018C340.464 274.919 339.302 274.757 338.151 274.544C337.005 274.33 335.87 274.059 334.75 273.731C333.635 273.403 332.542 273.018 331.464 272.58C330.391 272.143 329.344 271.653 328.323 271.111C327.307 270.565 326.318 269.976 325.359 269.33C324.406 268.684 323.484 267.997 322.604 267.257C321.719 266.518 320.88 265.736 320.078 264.914C319.276 264.091 318.521 263.226 317.807 262.32C317.094 261.414 316.432 260.476 315.812 259.502C315.198 258.528 314.63 257.523 314.12 256.486C313.604 255.45 313.146 254.387 312.74 253.304C312.328 252.216 311.979 251.111 311.682 249.981C311.385 248.856 311.146 247.71 310.964 246.554C310.781 245.398 310.656 244.231 310.589 243.054C310.521 241.882 310.516 240.7 310.562 239.518C310.615 238.335 310.719 237.153 310.885 235.976C311.052 234.799 311.271 233.627 311.552 232.46C311.828 231.299 312.167 230.148 312.552 229.012C312.943 227.877 313.391 226.757 313.885 225.658C314.385 224.559 314.932 223.481 315.536 222.434C316.135 221.382 316.786 220.361 317.484 219.367C318.182 218.377 318.927 217.414 319.714 216.492C320.5 215.565 321.333 214.679 322.203 213.83C323.073 212.986 323.979 212.179 324.927 211.414C325.87 210.653 326.849 209.934 327.859 209.262C328.87 208.596 329.911 207.971 330.974 207.403C332.042 206.83 333.13 206.309 334.24 205.841C335.354 205.372 336.484 204.96 337.63 204.601C338.776 204.242 339.932 203.94 341.099 203.695C342.271 203.445 343.448 203.257 344.63 203.122C345.812 202.992 346.99 202.919 348.177 202.903C349.359 202.887 350.536 202.929 351.708 203.028C352.88 203.127 354.042 203.283 355.193 203.497C356.339 203.716 357.474 203.986 358.594 204.315C359.708 204.643 360.802 205.023 361.88 205.46C362.953 205.898 364 206.387 365.021 206.934C366.036 207.476 367.026 208.07 367.984 208.716C368.937 209.356 369.859 210.049 370.74 210.783C371.625 211.523 372.464 212.304 373.266 213.132Z" fill="white"/>
<path d="M344.651 275.741C334.854 275.741 325.849 271.929 319.307 264.986C312.739 258.038 309.427 248.799 309.974 238.976C311.099 218.741 328.458 202.278 348.672 202.278C358.463 202.278 367.474 206.09 374.016 213.033C380.583 219.981 383.896 229.221 383.349 239.049C382.224 259.278 364.864 275.741 344.651 275.741ZM348.672 203.491C329.088 203.491 312.266 219.434 311.182 239.049C310.656 248.538 313.854 257.46 320.187 264.158C326.516 270.846 335.203 274.533 344.661 274.533C364.239 274.533 381.062 258.585 382.151 238.986C382.677 229.491 379.474 220.575 373.141 213.872C366.818 207.174 358.13 203.491 348.672 203.491Z" fill="#192351"/>
<path d="M188.917 18.8613C188.917 18.8613 177 28.5853 154.385 27.9759V66.0176C154.385 66.0176 169.823 101.82 188.937 101.82C208.057 101.82 223.448 66.0176 223.448 66.0176V27.9759C200.838 28.5853 188.917 18.8613 188.917 18.8613Z" fill="#192351"/>
<path d="M220.26 31.2155V65.278C219.177 67.6374 215.63 75.0436 210.547 82.3197C205.276 89.8613 197.25 98.8457 188.927 98.8457H188.906C180.594 98.8353 172.557 89.8509 167.286 82.3092C162.193 75.0436 158.641 67.6374 157.562 65.2676V31.2051C173.661 30.778 184.266 25.5645 188.906 22.7051C193.557 25.5749 204.161 30.7884 220.26 31.2155Z" fill="#D2691E"/>
<path d="M220.26 31.2155V65.278C219.177 67.6374 215.63 75.0436 210.547 82.3197C205.276 89.8613 197.25 98.8457 188.927 98.8457H188.906V22.7051C193.557 25.5749 204.161 30.7884 220.26 31.2155Z" fill="#192351" fill-opacity="0.2"/>
<path d="M178.489 68.9238L172.896 56.5071C172.328 55.2519 172.885 53.778 174.135 53.2207C175.385 52.6634 176.859 53.2102 177.417 54.4655L180.807 61.9967L204.974 48.8092C206.172 48.1425 207.687 48.5957 208.338 49.7988C208.989 51.0071 208.552 52.5123 207.349 53.1686L178.489 68.9238Z" fill="white"/>
<mask id="mask0_63_1262" style="mask-type:luminance" maskUnits="userSpaceOnUse" x="0" y="358" width="415" height="6">
<path d="M0 358.762H414.974V363.997H0V358.762Z" fill="white"/>
</mask>
<g mask="url(#mask0_63_1262)">
<path d="M0.0415039 359.804H414.911V363.934H0.0415039V359.804Z" fill="#192351"/>
</g>
<path d="M235.255 300.58V312.08C235.255 313.122 234.401 313.966 233.349 313.966H175.766C174.724 313.966 173.875 313.111 173.875 312.08V300.58C173.875 299.533 174.724 298.695 175.766 298.695H233.349C234.401 298.695 235.255 299.549 235.255 300.58Z" fill="#D2691E"/>
<path d="M235.255 311.059V312.08C235.255 313.122 234.401 313.965 233.349 313.965H175.766C174.724 313.965 173.875 313.111 173.875 312.08V311.059H235.255Z" fill="#192351"/>
<path d="M180.427 309.752C180.208 309.752 180.036 309.575 180.036 309.361V302.622C180.036 302.403 180.218 302.231 180.427 302.231C180.635 302.231 180.817 302.413 180.817 302.622V309.361C180.828 309.575 180.646 309.752 180.427 309.752Z" fill="#192351"/>
<path d="M188.474 309.752C188.255 309.752 188.088 309.575 188.088 309.361V302.622C188.088 302.403 188.265 302.231 188.474 302.231C188.687 302.231 188.864 302.413 188.864 302.622V309.361C188.864 309.575 188.698 309.752 188.474 309.752Z" fill="#192351"/>
<path d="M196.526 309.752C196.302 309.752 196.135 309.575 196.135 309.361V302.622C196.135 302.403 196.312 302.231 196.526 302.231C196.734 302.231 196.911 302.413 196.911 302.622V309.361C196.911 309.575 196.734 309.752 196.526 309.752Z" fill="#192351"/>
<path d="M204.563 309.752C204.344 309.752 204.172 309.575 204.172 309.361V302.622C204.172 302.403 204.354 302.231 204.563 302.231C204.771 302.231 204.953 302.413 204.953 302.622V309.361C204.964 309.575 204.781 309.752 204.563 309.752Z" fill="#192351"/>
<path d="M212.609 309.752C212.39 309.752 212.224 309.575 212.224 309.361V302.622C212.224 302.403 212.401 302.231 212.609 302.231C212.823 302.231 213 302.413 213 302.622V309.361C213 309.575 212.833 309.752 212.609 309.752Z" fill="#192351"/>
<path d="M220.661 309.752C220.437 309.752 220.271 309.575 220.271 309.361V302.622C220.271 302.403 220.448 302.231 220.661 302.231C220.869 302.231 221.047 302.413 221.047 302.622V309.361C221.047 309.575 220.869 309.752 220.661 309.752Z" fill="#192351"/>
<path d="M228.698 309.752C228.479 309.752 228.307 309.575 228.307 309.361V302.622C228.307 302.403 228.489 302.231 228.698 302.231C228.906 302.231 229.088 302.413 229.088 302.622V309.361C229.099 309.575 228.917 309.752 228.698 309.752Z" fill="#192351"/>
<path d="M227.901 315.861V327.361C227.901 328.403 227.047 329.247 225.994 329.247H168.411C167.369 329.247 166.521 328.393 166.521 327.361V315.861C166.521 314.82 167.369 313.976 168.411 313.976H225.994C227.057 313.976 227.901 314.82 227.901 315.861Z" fill="#D2691E"/>
<path d="M227.901 326.34V327.361C227.901 328.403 227.047 329.247 225.994 329.247H168.411C167.369 329.247 166.521 328.392 166.521 327.361V326.34H227.901Z" fill="#192351"/>
<path d="M173.083 325.033C172.864 325.033 172.692 324.856 172.692 324.648V317.903C172.692 317.684 172.875 317.512 173.083 317.512C173.291 317.512 173.474 317.694 173.474 317.903V324.648C173.474 324.856 173.291 325.033 173.083 325.033Z" fill="#192351"/>
<path d="M181.13 325.033C180.911 325.033 180.745 324.856 180.745 324.648V317.903C180.745 317.684 180.922 317.512 181.13 317.512C181.344 317.512 181.521 317.694 181.521 317.903V324.648C181.521 324.856 181.344 325.033 181.13 325.033Z" fill="#192351"/>
<path d="M189.172 325.033C188.948 325.033 188.781 324.856 188.781 324.648V317.903C188.781 317.684 188.958 317.512 189.172 317.512C189.38 317.512 189.557 317.694 189.557 317.903V324.648C189.568 324.856 189.391 325.033 189.172 325.033Z" fill="#192351"/>
<path d="M197.219 325.033C197 325.033 196.828 324.856 196.828 324.648V317.903C196.828 317.684 197.01 317.512 197.219 317.512C197.427 317.512 197.609 317.694 197.609 317.903V324.648C197.609 324.856 197.437 325.033 197.219 325.033Z" fill="#192351"/>
<path d="M205.265 325.033C205.047 325.033 204.88 324.856 204.88 324.648V317.903C204.88 317.684 205.057 317.512 205.265 317.512C205.479 317.512 205.656 317.694 205.656 317.903V324.648C205.656 324.856 205.479 325.033 205.265 325.033Z" fill="#192351"/>
<path d="M213.307 325.033C213.083 325.033 212.917 324.856 212.917 324.648V317.903C212.917 317.684 213.094 317.512 213.307 317.512C213.515 317.512 213.693 317.694 213.693 317.903V324.648C213.703 324.856 213.526 325.033 213.307 325.033Z" fill="#192351"/>
<path d="M221.354 325.033C221.135 325.033 220.963 324.856 220.963 324.648V317.903C220.963 317.684 221.146 317.512 221.354 317.512C221.562 317.512 221.745 317.694 221.745 317.903V324.648C221.745 324.856 221.573 325.033 221.354 325.033Z" fill="#192351"/>
<path d="M233.031 331.143V342.648C233.031 343.69 232.182 344.533 231.13 344.533H173.547C172.505 344.533 171.651 343.679 171.651 342.648V331.143C171.651 330.101 172.505 329.257 173.547 329.257H231.13C232.182 329.247 233.031 330.101 233.031 331.143Z" fill="#D2691E"/>
<path d="M233.031 341.622V342.648C233.031 343.689 232.182 344.533 231.13 344.533H173.547C172.505 344.533 171.651 343.679 171.651 342.648V341.622H233.031Z" fill="#192351"/>
<path d="M178.208 340.309C177.984 340.309 177.817 340.127 177.817 339.919V333.179C177.817 332.955 177.994 332.789 178.208 332.789C178.416 332.789 178.599 332.966 178.599 333.179V339.919C178.609 340.138 178.427 340.309 178.208 340.309Z" fill="#192351"/>
<path d="M186.255 340.309C186.036 340.309 185.864 340.127 185.864 339.919V333.179C185.864 332.955 186.047 332.789 186.255 332.789C186.468 332.789 186.646 332.966 186.646 333.179V339.919C186.656 340.138 186.479 340.309 186.255 340.309Z" fill="#192351"/>
<path d="M194.302 340.309C194.083 340.309 193.917 340.127 193.917 339.919V333.179C193.917 332.955 194.094 332.789 194.302 332.789C194.515 332.789 194.693 332.966 194.693 333.179V339.919C194.693 340.138 194.515 340.309 194.302 340.309Z" fill="#192351"/>
<path d="M202.344 340.309C202.12 340.309 201.953 340.127 201.953 339.919V333.179C201.953 332.955 202.13 332.789 202.344 332.789C202.552 332.789 202.734 332.966 202.734 333.179V339.919C202.745 340.138 202.562 340.309 202.344 340.309Z" fill="#192351"/>
<path d="M210.391 340.309C210.172 340.309 210 340.127 210 339.919V333.179C210 332.955 210.182 332.789 210.391 332.789C210.604 332.789 210.781 332.966 210.781 333.179V339.919C210.792 340.138 210.615 340.309 210.391 340.309Z" fill="#192351"/>
<path d="M218.442 340.309C218.218 340.309 218.052 340.127 218.052 339.919V333.179C218.052 332.955 218.229 332.789 218.442 332.789C218.651 332.789 218.828 332.966 218.828 333.179V339.919C218.828 340.138 218.651 340.309 218.442 340.309Z" fill="#192351"/>
<path d="M226.489 340.309C226.265 340.309 226.099 340.127 226.099 339.919V333.179C226.099 332.955 226.276 332.789 226.489 332.789C226.698 332.789 226.88 332.966 226.88 333.179V339.919C226.88 340.138 226.698 340.309 226.489 340.309Z" fill="#192351"/>
<path d="M235.255 346.429V357.929C235.255 358.971 234.401 359.814 233.349 359.814H175.766C174.724 359.814 173.875 358.96 173.875 357.929V346.429C173.875 345.382 174.724 344.544 175.766 344.544H233.349C234.401 344.533 235.255 345.382 235.255 346.429Z" fill="#D2691E"/>
<path d="M235.255 356.898V357.919C235.255 358.96 234.401 359.804 233.349 359.804H175.766C174.724 359.804 173.875 358.95 173.875 357.919V356.898H235.255Z" fill="#192351"/>
<path d="M180.427 355.591C180.208 355.591 180.036 355.414 180.036 355.2V348.46C180.036 348.236 180.218 348.07 180.427 348.07C180.635 348.07 180.817 348.247 180.817 348.46V355.2C180.828 355.414 180.646 355.591 180.427 355.591Z" fill="#192351"/>
<path d="M188.474 355.591C188.255 355.591 188.088 355.414 188.088 355.2V348.46C188.088 348.236 188.265 348.07 188.474 348.07C188.687 348.07 188.864 348.247 188.864 348.46V355.2C188.864 355.414 188.698 355.591 188.474 355.591Z" fill="#192351"/>
<path d="M196.526 355.591C196.302 355.591 196.135 355.414 196.135 355.2V348.46C196.135 348.236 196.312 348.07 196.526 348.07C196.734 348.07 196.911 348.247 196.911 348.46V355.2C196.911 355.414 196.734 355.591 196.526 355.591Z" fill="#192351"/>
<path d="M204.563 355.591C204.344 355.591 204.172 355.414 204.172 355.2V348.46C204.172 348.236 204.354 348.07 204.563 348.07C204.771 348.07 204.953 348.247 204.953 348.46V355.2C204.964 355.414 204.781 355.591 204.563 355.591Z" fill="#192351"/>
<path d="M212.609 355.591C212.39 355.591 212.224 355.414 212.224 355.2V348.46C212.224 348.236 212.401 348.07 212.609 348.07C212.823 348.07 213 348.247 213 348.46V355.2C213 355.414 212.833 355.591 212.609 355.591Z" fill="#192351"/>
<path d="M220.661 355.591C220.437 355.591 220.271 355.414 220.271 355.2V348.46C220.271 348.236 220.448 348.07 220.661 348.07C220.869 348.07 221.047 348.247 221.047 348.46V355.2C221.047 355.414 220.869 355.591 220.661 355.591Z" fill="#192351"/>
<path d="M228.698 355.591C228.479 355.591 228.307 355.414 228.307 355.2V348.46C228.307 348.236 228.489 348.07 228.698 348.07C228.906 348.07 229.088 348.247 229.088 348.46V355.2C229.099 355.414 228.917 355.591 228.698 355.591Z" fill="#192351"/>
<path d="M244.713 315.861V327.361C244.713 328.403 245.562 329.247 246.614 329.247H304.198C305.239 329.247 306.094 328.393 306.094 327.361V315.861C306.094 314.82 305.239 313.976 304.198 313.976H246.614C245.552 313.976 244.713 314.82 244.713 315.861Z" fill="#D2691E"/>
<path d="M244.713 326.34V327.361C244.713 328.403 245.562 329.247 246.614 329.247H304.198C305.239 329.247 306.094 328.392 306.094 327.361V326.34H244.713Z" fill="#192351"/>
<path d="M299.526 325.033C299.307 325.033 299.135 324.856 299.135 324.648V317.903C299.135 317.684 299.318 317.512 299.526 317.512C299.734 317.512 299.917 317.694 299.917 317.903V324.648C299.927 324.856 299.745 325.033 299.526 325.033Z" fill="#192351"/>
<path d="M291.489 325.033C291.265 325.033 291.099 324.856 291.099 324.648V317.903C291.099 317.684 291.276 317.512 291.489 317.512C291.698 317.512 291.875 317.694 291.875 317.903V324.648C291.875 324.856 291.698 325.033 291.489 325.033Z" fill="#192351"/>
<path d="M283.437 325.033C283.218 325.033 283.052 324.856 283.052 324.648V317.903C283.052 317.684 283.229 317.512 283.437 317.512C283.651 317.512 283.828 317.694 283.828 317.903V324.648C283.828 324.856 283.651 325.033 283.437 325.033Z" fill="#192351"/>
<path d="M275.391 325.033C275.172 325.033 275 324.856 275 324.648V317.903C275 317.684 275.182 317.512 275.391 317.512C275.599 317.512 275.781 317.694 275.781 317.903V324.648C275.781 324.856 275.609 325.033 275.391 325.033Z" fill="#192351"/>
<path d="M267.344 325.033C267.12 325.033 266.953 324.856 266.953 324.648V317.903C266.953 317.684 267.13 317.512 267.344 317.512C267.552 317.512 267.729 317.694 267.729 317.903V324.648C267.74 324.856 267.562 325.033 267.344 325.033Z" fill="#192351"/>
<path d="M259.302 325.033C259.083 325.033 258.917 324.856 258.917 324.648V317.903C258.917 317.684 259.094 317.512 259.302 317.512C259.515 317.512 259.693 317.694 259.693 317.903V324.648C259.693 324.856 259.515 325.033 259.302 325.033Z" fill="#192351"/>
<path d="M251.255 325.033C251.036 325.033 250.864 324.856 250.864 324.648V317.903C250.864 317.684 251.047 317.512 251.255 317.512C251.463 317.512 251.646 317.694 251.646 317.903V324.648C251.646 324.856 251.474 325.033 251.255 325.033Z" fill="#192351"/>
<path d="M235.411 331.143V342.648C235.411 343.69 236.26 344.533 237.312 344.533H294.896C295.937 344.533 296.791 343.679 296.791 342.648V331.143C296.791 330.101 295.937 329.257 294.896 329.257H237.312C236.26 329.247 235.411 330.101 235.411 331.143Z" fill="#D2691E"/>
<path d="M235.411 341.622V342.648C235.411 343.689 236.26 344.533 237.312 344.533H294.896C295.937 344.533 296.791 343.679 296.791 342.648V341.622H235.411Z" fill="#192351"/>
<path d="M290.234 340.309C290.015 340.309 289.849 340.127 289.849 339.919V333.179C289.849 332.955 290.026 332.789 290.234 332.789C290.448 332.789 290.625 332.966 290.625 333.179V339.919C290.625 340.138 290.458 340.309 290.234 340.309Z" fill="#192351"/>
<path d="M282.188 340.309C281.969 340.309 281.797 340.127 281.797 339.919V333.179C281.797 332.955 281.979 332.789 282.188 332.789C282.396 332.789 282.578 332.966 282.578 333.179V339.919C282.589 340.138 282.406 340.309 282.188 340.309Z" fill="#192351"/>
<path d="M274.151 340.309C273.927 340.309 273.76 340.127 273.76 339.919V333.179C273.76 332.955 273.937 332.789 274.151 332.789C274.359 332.789 274.536 332.966 274.536 333.179V339.919C274.536 340.138 274.359 340.309 274.151 340.309Z" fill="#192351"/>
<path d="M266.099 340.309C265.88 340.309 265.713 340.127 265.713 339.919V333.179C265.713 332.955 265.89 332.789 266.099 332.789C266.312 332.789 266.489 332.966 266.489 333.179V339.919C266.489 340.138 266.312 340.309 266.099 340.309Z" fill="#192351"/>
<path d="M258.052 340.309C257.833 340.309 257.661 340.127 257.661 339.919V333.179C257.661 332.955 257.843 332.789 258.052 332.789C258.26 332.789 258.442 332.966 258.442 333.179V339.919C258.453 340.138 258.271 340.309 258.052 340.309Z" fill="#192351"/>
<path d="M250.005 340.309C249.781 340.309 249.614 340.127 249.614 339.919V333.179C249.614 332.955 249.791 332.789 250.005 332.789C250.213 332.789 250.39 332.966 250.39 333.179V339.919C250.401 340.138 250.224 340.309 250.005 340.309Z" fill="#192351"/>
<path d="M241.964 340.309C241.745 340.309 241.578 340.127 241.578 339.919V333.179C241.578 332.955 241.755 332.789 241.964 332.789C242.177 332.789 242.354 332.966 242.354 333.179V339.919C242.354 340.138 242.177 340.309 241.964 340.309Z" fill="#192351"/>
<path d="M237.359 346.429V357.929C237.359 358.971 238.208 359.814 239.26 359.814H296.844C297.885 359.814 298.74 358.96 298.74 357.929V346.429C298.74 345.382 297.885 344.544 296.844 344.544H239.26C238.208 344.533 237.359 345.382 237.359 346.429Z" fill="#D2691E"/>
<path d="M237.359 356.898V357.919C237.359 358.96 238.208 359.804 239.26 359.804H296.844C297.885 359.804 298.74 358.95 298.74 357.919V356.898H237.359Z" fill="#192351"/>
<path d="M292.182 355.591C291.963 355.591 291.792 355.414 291.792 355.2V348.46C291.792 348.236 291.974 348.07 292.182 348.07C292.39 348.07 292.573 348.247 292.573 348.46V355.2C292.573 355.414 292.39 355.591 292.182 355.591Z" fill="#192351"/>
<path d="M284.135 355.591C283.911 355.591 283.745 355.414 283.745 355.2V348.46C283.745 348.236 283.922 348.07 284.135 348.07C284.344 348.07 284.521 348.247 284.521 348.46V355.2C284.521 355.414 284.354 355.591 284.135 355.591Z" fill="#192351"/>
<path d="M276.083 355.591C275.864 355.591 275.698 355.414 275.698 355.2V348.46C275.698 348.236 275.875 348.07 276.083 348.07C276.297 348.07 276.474 348.247 276.474 348.46V355.2C276.484 355.414 276.307 355.591 276.083 355.591Z" fill="#192351"/>
<path d="M268.047 355.591C267.828 355.591 267.656 355.414 267.656 355.2V348.46C267.656 348.236 267.839 348.07 268.047 348.07C268.255 348.07 268.438 348.247 268.438 348.46V355.2C268.438 355.414 268.255 355.591 268.047 355.591Z" fill="#192351"/>
<path d="M260 355.591C259.776 355.591 259.609 355.414 259.609 355.2V348.46C259.609 348.236 259.786 348.07 260 348.07C260.208 348.07 260.385 348.247 260.385 348.46V355.2C260.385 355.414 260.208 355.591 260 355.591Z" fill="#192351"/>
<path d="M251.948 355.591C251.729 355.591 251.562 355.414 251.562 355.2V348.46C251.562 348.236 251.74 348.07 251.948 348.07C252.161 348.07 252.339 348.247 252.339 348.46V355.2C252.349 355.414 252.172 355.591 251.948 355.591Z" fill="#192351"/>
<path d="M243.901 355.591C243.682 355.591 243.51 355.414 243.51 355.2V348.46C243.51 348.236 243.693 348.07 243.901 348.07C244.109 348.07 244.292 348.247 244.292 348.46V355.2C244.302 355.414 244.12 355.591 243.901 355.591Z" fill="#192351"/>
<path d="M393.25 120.914L395.786 123.45L384.255 134.997L381.719 132.455L393.25 120.914Z" fill="#D2691E"/>
<path d="M395.797 132.466L393.26 135.002L381.729 123.46L384.265 120.919L395.797 132.466Z" fill="#D2691E"/>
<path d="M403.484 70.8093L405.213 72.5437L397.312 80.4552L395.583 78.7208L403.484 70.8093Z" fill="#FFE8D1"/>
<path d="M405.224 78.7261L403.489 80.4604L395.588 72.5542L397.323 70.8198L405.224 78.7261Z" fill="#FFE8D1"/>
<g clip-path="url(#clip1_63_1262)">
<path d="M335.842 217C336.037 217 336.037 217 336.104 217.006C336.119 217.007 336.135 217.008 336.151 217.009C336.175 217.012 336.175 217.012 336.2 217.014C336.217 217.015 336.235 217.017 336.253 217.018C336.311 217.023 336.368 217.028 336.426 217.033C336.446 217.035 336.467 217.037 336.487 217.039C337.253 217.106 338.015 217.197 338.776 217.307C338.807 217.311 338.838 217.316 338.869 217.32C340.004 217.483 341.133 217.699 347.503 219.682C347.512 219.686 347.521 219.69 347.53 219.694C347.619 219.733 347.707 219.772 347.795 219.813C347.807 219.819 347.819 219.824 347.832 219.83C347.854 219.841 347.876 219.851 347.898 219.862C347.907 219.866 347.917 219.871 347.927 219.876C347.935 219.879 347.943 219.883 347.951 219.887C348.024 219.905 348.092 219.868 348.156 219.839C348.166 219.834 348.175 219.83 348.185 219.826C348.205 219.817 348.226 219.808 348.246 219.798C348.278 219.784 348.311 219.769 348.343 219.755C348.387 219.735 348.431 219.715 348.476 219.695C349.135 219.399 349.81 219.141 350.493 218.905C350.527 218.893 350.561 218.881 350.595 218.869C350.982 218.735 351.371 218.609 351.764 218.493C351.805 218.48 351.845 218.468 351.885 218.456C352.909 218.15 353.95 217.904 356.095 217.488C356.138 217.48 356.18 217.473 356.223 217.465C357.353 217.269 358.494 217.127 359.636 217.028C359.661 217.026 359.661 217.026 359.687 217.024C359.735 217.02 359.783 217.016 359.831 217.012C359.845 217.011 359.859 217.009 359.873 217.008C359.972 217 360.067 217 360.167 217C360.167 223.821 360.167 230.643 360.167 237.671C352.14 237.671 344.112 237.671 335.842 237.671C335.842 230.85 335.842 224.028 335.842 217Z" fill="#D2691E"/>
<path d="M339.096 221.894C339.744 221.894 339.744 221.894 339.945 221.911C339.969 221.913 339.992 221.915 340.016 221.916C340.382 221.945 340.747 221.98 341.109 222.041C341.119 222.042 341.128 222.044 341.138 222.046C341.682 222.137 342.222 222.248 342.749 222.415C342.79 222.428 342.832 222.44 342.873 222.453C343.723 222.714 344.558 223.057 345.329 223.502C345.371 223.525 345.413 223.548 345.455 223.571C345.814 223.768 346.156 223.996 346.491 224.232C346.519 224.251 346.548 224.271 346.576 224.291C346.694 224.374 346.808 224.463 346.922 224.552C346.952 224.575 346.981 224.599 347.011 224.622C347.066 224.664 347.12 224.708 347.174 224.751C347.183 224.759 347.192 224.766 347.202 224.774C347.281 224.838 347.359 224.904 347.436 224.97C347.458 224.989 347.481 225.008 347.504 225.027C347.603 225.112 347.7 225.198 347.795 225.288C347.835 225.325 347.875 225.361 347.915 225.398C347.93 225.412 347.944 225.425 347.959 225.439C347.97 225.449 347.98 225.458 347.991 225.468C348.031 225.45 348.059 225.43 348.091 225.4C348.1 225.392 348.108 225.383 348.117 225.375C348.131 225.362 348.131 225.362 348.145 225.348C348.164 225.33 348.183 225.312 348.203 225.294C348.212 225.285 348.221 225.276 348.231 225.267C348.501 225.012 348.788 224.772 349.084 224.548C349.094 224.541 349.104 224.533 349.114 224.526C349.267 224.41 349.421 224.297 349.578 224.188C349.587 224.182 349.595 224.176 349.604 224.17C349.921 223.948 350.248 223.742 350.585 223.553C350.616 223.536 350.646 223.519 350.675 223.502C351.492 223.04 352.371 222.658 353.275 222.409C353.361 222.385 353.446 222.361 353.531 222.335C353.797 222.255 354.067 222.196 354.338 222.141C354.361 222.136 354.361 222.136 354.385 222.131C354.666 222.074 354.947 222.028 355.232 221.991C355.257 221.988 355.283 221.984 355.309 221.981C355.496 221.956 355.683 221.938 355.871 221.924C355.913 221.921 355.955 221.917 355.997 221.913C356.305 221.888 356.6 221.894 356.913 221.894C356.913 222.836 356.913 223.778 356.913 224.748C356.719 224.753 356.525 224.757 356.326 224.761C356.135 224.776 356.135 224.776 355.944 224.795C355.903 224.8 355.862 224.804 355.821 224.809C355.515 224.842 355.213 224.885 354.912 224.948C354.902 224.95 354.892 224.952 354.882 224.955C354.807 224.971 354.732 224.987 354.657 225.003C354.647 225.005 354.637 225.008 354.627 225.01C354.498 225.038 354.372 225.071 354.246 225.108C354.219 225.116 354.192 225.124 354.165 225.131C353.333 225.371 352.534 225.714 351.792 226.162C351.771 226.174 351.75 226.187 351.729 226.199C351.488 226.344 351.257 226.502 351.032 226.669C351.022 226.675 351.013 226.682 351.003 226.689C350.825 226.822 350.649 226.958 350.48 227.103C350.457 227.123 350.434 227.142 350.411 227.162C350.28 227.273 350.151 227.388 350.03 227.511C349.995 227.545 349.958 227.576 349.922 227.608C349.895 227.632 349.869 227.656 349.845 227.682C349.861 227.727 349.88 227.766 349.907 227.806C349.914 227.817 349.921 227.828 349.928 227.839C349.936 227.851 349.944 227.863 349.952 227.875C350.132 228.154 350.295 228.442 350.45 228.735C350.471 228.774 350.491 228.813 350.512 228.851C350.589 228.996 350.661 229.142 350.73 229.29C350.734 229.298 350.738 229.306 350.741 229.315C350.796 229.432 350.848 229.55 350.898 229.669C350.95 229.631 350.99 229.59 351.03 229.539C351.191 229.337 351.378 229.141 351.576 228.974C351.609 228.946 351.64 228.916 351.672 228.886C351.742 228.82 351.813 228.757 351.889 228.697C351.917 228.675 351.945 228.653 351.972 228.63C352.104 228.521 352.239 228.42 352.378 228.322C352.389 228.315 352.4 228.307 352.41 228.3C353.055 227.845 353.78 227.466 354.539 227.242C354.551 227.239 354.562 227.235 354.574 227.232C354.644 227.211 354.713 227.192 354.783 227.172C354.816 227.163 354.85 227.153 354.883 227.143C355.348 227.006 355.835 226.939 356.316 226.899C356.326 226.898 356.336 226.897 356.346 226.896C356.536 226.88 356.721 226.882 356.913 226.882C356.913 227.824 356.913 228.766 356.913 229.736C356.794 229.74 356.675 229.745 356.553 229.749C356.449 229.757 356.347 229.765 356.244 229.78C356.232 229.782 356.22 229.784 356.208 229.785C356.098 229.802 355.989 229.823 355.88 229.848C355.856 229.854 355.832 229.859 355.808 229.864C355.484 229.935 355.173 230.037 354.872 230.176C354.859 230.182 354.845 230.188 354.832 230.195C354.489 230.353 354.169 230.543 353.872 230.776C353.861 230.784 353.851 230.793 353.839 230.801C353.711 230.903 353.583 231.008 353.469 231.126C353.444 231.151 353.418 231.173 353.391 231.196C353.347 231.234 353.309 231.275 353.272 231.319C353.246 231.348 353.22 231.376 353.194 231.405C353.107 231.497 353.028 231.595 352.952 231.696C352.945 231.705 352.938 231.714 352.931 231.723C352.425 232.398 352.092 233.192 351.984 234.029C351.978 234.071 351.971 234.113 351.964 234.155C351.949 234.251 351.946 234.346 351.944 234.443C351.943 234.476 351.943 234.51 351.942 234.544C351.941 234.559 351.941 234.573 351.941 234.588C351.938 234.63 351.938 234.63 351.925 234.71C350.983 234.71 350.041 234.71 349.071 234.71C349.062 234.49 349.054 234.27 349.044 234.043C349.04 234.008 349.036 233.973 349.031 233.937C349.03 233.916 349.029 233.895 349.028 233.874C349.027 233.863 349.027 233.852 349.027 233.84C349.026 233.818 349.025 233.796 349.024 233.774C349.021 233.698 349.011 233.625 348.998 233.55C348.989 233.499 348.984 233.447 348.979 233.394C348.929 232.903 348.821 232.399 348.668 231.929C348.654 231.885 348.642 231.841 348.63 231.797C348.486 231.267 348.266 230.745 348.018 230.256C348.009 230.256 348 230.256 347.991 230.256C347.718 230.817 347.473 231.398 347.318 232.004C347.304 232.058 347.289 232.112 347.271 232.166C347.239 232.269 347.216 232.375 347.192 232.481C347.19 232.491 347.188 232.501 347.185 232.512C347.116 232.831 347.055 233.148 347.02 233.472C347.019 233.482 347.018 233.491 347.017 233.501C347.014 233.526 347.012 233.551 347.009 233.576C347.005 233.609 346.999 233.638 346.991 233.67C346.949 234.017 346.951 234.379 346.937 234.724C345.996 234.724 345.054 234.724 344.083 234.724C344.079 234.631 344.075 234.539 344.07 234.444C344.066 234.395 344.062 234.347 344.057 234.299C344.055 234.281 344.055 234.281 344.053 234.263C344.049 234.226 344.044 234.19 344.04 234.153C344.039 234.14 344.037 234.127 344.036 234.114C344.013 233.919 343.987 233.727 343.937 233.537C343.931 233.515 343.931 233.515 343.925 233.492C343.751 232.837 343.465 232.216 343.043 231.683C343.036 231.674 343.029 231.665 343.022 231.656C342.929 231.538 342.831 231.425 342.728 231.316C342.7 231.286 342.673 231.255 342.646 231.225C342.605 231.178 342.561 231.136 342.513 231.096C342.483 231.069 342.453 231.041 342.423 231.013C342.328 230.924 342.228 230.841 342.123 230.763C342.114 230.756 342.105 230.749 342.095 230.742C341.759 230.491 341.4 230.29 341.016 230.123C341.007 230.119 340.997 230.114 340.988 230.11C340.385 229.85 339.746 229.763 339.096 229.736C339.096 228.794 339.096 227.852 339.096 226.882C339.553 226.882 339.553 226.882 339.726 226.904C339.77 226.91 339.814 226.913 339.859 226.917C340.06 226.935 340.26 226.958 340.46 226.995C340.495 227.002 340.529 227.008 340.564 227.014C341.835 227.24 343.092 227.826 344.167 228.742C344.191 228.763 344.215 228.783 344.238 228.803C344.323 228.874 344.403 228.947 344.48 229.026C344.507 229.053 344.535 229.078 344.564 229.102C344.657 229.183 344.742 229.271 344.822 229.364C344.843 229.389 344.865 229.411 344.889 229.433C344.94 229.484 344.984 229.54 345.029 229.596C345.054 229.626 345.079 229.646 345.11 229.669C345.114 229.661 345.118 229.652 345.122 229.643C345.352 229.114 345.611 228.602 345.91 228.109C345.925 228.085 345.939 228.062 345.953 228.039C346.02 227.927 346.09 227.817 346.164 227.709C346.122 227.613 346.03 227.547 345.952 227.481C345.92 227.452 345.89 227.421 345.86 227.39C345.803 227.333 345.744 227.282 345.681 227.232C345.643 227.202 345.608 227.17 345.573 227.137C345.504 227.074 345.433 227.017 345.359 226.96C345.327 226.935 345.294 226.909 345.262 226.883C345.145 226.788 345.025 226.698 344.902 226.611C344.869 226.588 344.837 226.565 344.804 226.541C344.67 226.446 344.533 226.357 344.391 226.272C344.356 226.251 344.322 226.229 344.288 226.207C343.72 225.845 343.101 225.563 342.47 225.335C342.46 225.331 342.45 225.328 342.441 225.324C342.18 225.23 341.918 225.147 341.649 225.08C341.608 225.069 341.567 225.059 341.526 225.048C341.437 225.024 341.349 225.002 341.259 224.983C341.245 224.98 341.232 224.978 341.218 224.975C340.751 224.88 340.279 224.8 339.802 224.778C339.758 224.774 339.713 224.768 339.669 224.761C339.385 224.755 339.385 224.755 339.096 224.748C339.096 223.806 339.096 222.865 339.096 221.894Z" fill="#FEE7D0"/>
<path d="M347.058 242.152C347.652 242.152 348.246 242.152 348.858 242.152C348.923 242.241 348.987 242.33 349.047 242.422C349.054 242.433 349.062 242.444 349.069 242.455C349.1 242.501 349.131 242.547 349.161 242.594C349.237 242.708 349.312 242.822 349.394 242.932C349.439 242.995 349.481 243.059 349.524 243.124C349.545 243.156 349.566 243.188 349.588 243.22C349.596 243.232 349.596 243.232 349.605 243.245C349.676 243.352 349.747 243.458 349.819 243.564C349.826 243.574 349.833 243.585 349.84 243.595C349.876 243.649 349.912 243.702 349.948 243.755C350.011 243.848 350.074 243.942 350.138 244.035C350.172 244.086 350.207 244.138 350.242 244.189C350.256 244.21 350.269 244.23 350.283 244.251C350.294 244.266 350.294 244.266 350.304 244.282C350.367 244.374 350.367 244.374 350.387 244.405C350.401 244.426 350.415 244.446 350.429 244.467C350.464 244.518 350.498 244.569 350.533 244.621C350.596 244.714 350.66 244.808 350.723 244.902C350.752 244.944 350.781 244.987 350.81 245.029C350.824 245.05 350.838 245.071 350.852 245.092C350.924 245.198 350.995 245.304 351.065 245.41C351.071 245.419 351.076 245.428 351.082 245.436C351.109 245.476 351.135 245.516 351.161 245.556C351.17 245.57 351.179 245.584 351.188 245.598C351.196 245.61 351.204 245.622 351.212 245.634C351.219 245.642 351.225 245.651 351.232 245.659C351.241 245.659 351.249 245.659 351.258 245.659C351.279 245.631 351.298 245.603 351.317 245.574C351.329 245.555 351.341 245.537 351.354 245.518C351.36 245.508 351.366 245.499 351.373 245.489C351.403 245.442 351.435 245.396 351.466 245.349C351.479 245.33 351.492 245.311 351.505 245.291C351.519 245.271 351.532 245.251 351.546 245.231C351.561 245.209 351.575 245.188 351.59 245.166C351.62 245.122 351.65 245.077 351.68 245.032C351.744 244.938 351.808 244.844 351.871 244.75C351.906 244.698 351.941 244.647 351.975 244.596C351.989 244.575 352.003 244.555 352.017 244.534C352.767 243.424 352.767 243.424 352.788 243.393C352.802 243.373 352.816 243.352 352.83 243.331C352.864 243.28 352.899 243.229 352.934 243.178C353.004 243.073 353.075 242.968 353.146 242.863C353.394 242.496 353.394 242.496 353.511 242.324C353.525 242.303 353.54 242.281 353.554 242.26C353.567 242.241 353.567 242.241 353.58 242.222C353.587 242.211 353.594 242.201 353.602 242.19C353.619 242.165 353.619 242.165 353.632 242.152C354.231 242.152 354.829 242.152 355.446 242.152C355.446 244.889 355.446 247.627 355.446 250.447C354.892 250.447 354.337 250.447 353.766 250.447C353.761 248.585 353.757 246.724 353.752 244.806C353.66 244.942 353.568 245.079 353.472 245.219C353.406 245.317 353.339 245.415 353.273 245.512C353.227 245.581 353.18 245.649 353.134 245.717C353.125 245.731 353.115 245.744 353.106 245.758C353.034 245.863 352.963 245.968 352.892 246.073C352.765 246.26 352.638 246.447 352.511 246.634C352.402 246.793 352.294 246.953 352.185 247.113C352.058 247.3 351.931 247.487 351.804 247.674C351.776 247.715 351.748 247.756 351.72 247.797C351.711 247.811 351.702 247.824 351.692 247.838C351.641 247.914 351.589 247.99 351.538 248.066C351.527 248.083 351.515 248.099 351.504 248.116C351.482 248.148 351.46 248.18 351.439 248.212C351.379 248.3 351.319 248.387 351.258 248.473C351.205 248.456 351.19 248.423 351.162 248.377C351.15 248.359 351.138 248.341 351.126 248.322C351.116 248.307 351.116 248.307 351.106 248.292C351.068 248.234 351.029 248.176 350.989 248.119C350.972 248.094 350.955 248.068 350.937 248.043C350.929 248.03 350.92 248.018 350.911 248.005C350.869 247.943 350.827 247.881 350.785 247.82C350.768 247.795 350.752 247.771 350.735 247.746C350.568 247.502 350.402 247.257 350.235 247.013C350.227 247.001 350.218 246.989 350.21 246.976C350.193 246.952 350.177 246.927 350.16 246.903C350.119 246.842 350.077 246.782 350.036 246.721C349.938 246.578 349.84 246.434 349.743 246.29C349.656 246.163 349.569 246.036 349.483 245.909C349.441 245.848 349.4 245.787 349.358 245.726C349.341 245.702 349.325 245.677 349.308 245.653C349.208 245.506 349.208 245.506 349.183 245.469C349.166 245.445 349.15 245.421 349.133 245.396C349.091 245.334 349.048 245.271 349.005 245.208C348.992 245.189 348.992 245.189 348.979 245.17C348.962 245.145 348.946 245.121 348.929 245.097C348.866 245.004 348.802 244.912 348.738 244.819C348.734 246.676 348.729 248.534 348.725 250.447C348.175 250.447 347.624 250.447 347.058 250.447C347.058 247.71 347.058 244.972 347.058 242.152Z" fill="black"/>
<path d="M357.207 242.152C357.779 242.152 358.351 242.152 358.94 242.152C359.09 242.346 359.09 242.346 359.138 242.414C359.149 242.43 359.16 242.446 359.171 242.462C359.177 242.47 359.183 242.478 359.189 242.486C359.29 242.629 359.393 242.77 359.497 242.911C359.557 242.992 359.616 243.073 359.675 243.155C359.728 243.228 359.781 243.3 359.834 243.372C359.931 243.504 360.026 243.636 360.122 243.769C360.211 243.892 360.3 244.015 360.391 244.138C360.451 244.219 360.51 244.3 360.569 244.382C360.621 244.455 360.674 244.527 360.727 244.599C360.795 244.691 360.862 244.783 360.929 244.875C360.981 244.948 361.034 245.02 361.087 245.092C361.184 245.224 361.28 245.356 361.375 245.489C361.464 245.612 361.554 245.735 361.644 245.858C361.704 245.939 361.763 246.021 361.822 246.102C361.875 246.175 361.928 246.247 361.981 246.319C362.049 246.411 362.116 246.503 362.182 246.596C362.235 246.669 362.288 246.741 362.341 246.813C362.423 246.924 362.505 247.037 362.586 247.15C362.608 247.18 362.63 247.211 362.652 247.241C362.66 247.252 362.667 247.262 362.675 247.273C362.689 247.292 362.703 247.311 362.717 247.33C362.783 247.422 362.849 247.514 362.914 247.606C362.919 245.806 362.923 244.006 362.928 242.152C363.473 242.152 364.019 242.152 364.581 242.152C364.581 244.889 364.581 247.627 364.581 250.447C364.031 250.447 363.481 250.447 362.914 250.447C362.87 250.385 362.826 250.324 362.781 250.26C362.753 250.221 362.725 250.182 362.697 250.144C362.682 250.123 362.667 250.103 362.652 250.082C362.645 250.072 362.638 250.062 362.63 250.051C362.608 250.021 362.586 249.991 362.565 249.96C362.491 249.858 362.416 249.755 362.341 249.653C362.258 249.542 362.177 249.429 362.096 249.316C362.06 249.266 362.024 249.217 361.988 249.167C361.944 249.107 361.901 249.047 361.858 248.987C361.784 248.884 361.709 248.782 361.634 248.68C361.552 248.568 361.47 248.456 361.389 248.343C361.353 248.293 361.317 248.243 361.281 248.193C361.238 248.133 361.194 248.073 361.151 248.014C361.077 247.911 361.003 247.808 360.927 247.706C360.845 247.595 360.763 247.482 360.682 247.369C360.646 247.319 360.61 247.27 360.574 247.22C360.531 247.16 360.487 247.1 360.444 247.04C360.369 246.936 360.294 246.833 360.218 246.729C360.154 246.643 360.09 246.555 360.028 246.467C359.921 246.317 359.813 246.169 359.704 246.021C359.629 245.92 359.555 245.818 359.482 245.716C359.446 245.666 359.41 245.616 359.374 245.566C359.33 245.506 359.287 245.446 359.244 245.386C359.126 245.223 359.008 245.06 358.887 244.899C358.882 246.73 358.878 248.561 358.874 250.447C358.323 250.447 357.773 250.447 357.207 250.447C357.207 247.71 357.207 244.972 357.207 242.152Z" fill="black"/>
<path d="M331.254 242.152C331.839 242.152 332.425 242.152 333.028 242.152C333.088 242.272 333.088 242.272 333.104 242.315C333.108 242.325 333.112 242.335 333.116 242.345C333.12 242.356 333.124 242.366 333.128 242.377C333.135 242.394 333.135 242.394 333.142 242.412C333.152 242.436 333.161 242.461 333.171 242.486C333.192 242.541 333.213 242.595 333.234 242.649C333.246 242.679 333.257 242.708 333.268 242.737C333.327 242.888 333.387 243.039 333.446 243.191C333.465 243.238 333.483 243.285 333.502 243.332C333.527 243.396 333.552 243.46 333.577 243.523C333.632 243.664 333.688 243.805 333.743 243.946C333.773 244.024 333.804 244.101 333.835 244.179C333.847 244.21 333.859 244.241 333.871 244.272C333.877 244.288 333.883 244.303 333.89 244.319C334.797 246.63 334.797 246.63 335.705 248.94C335.714 248.963 335.714 248.963 335.723 248.987C335.736 249.018 335.748 249.049 335.76 249.08C335.79 249.157 335.821 249.235 335.851 249.312C335.909 249.458 335.966 249.605 336.024 249.751C336.047 249.812 336.071 249.873 336.095 249.934C336.112 249.976 336.128 250.017 336.144 250.059C336.162 250.105 336.181 250.151 336.199 250.197C336.204 250.21 336.209 250.224 336.215 250.238C336.22 250.251 336.225 250.263 336.23 250.276C336.234 250.287 336.238 250.298 336.243 250.309C336.251 250.331 336.261 250.353 336.27 250.375C336.282 250.407 336.282 250.407 336.282 250.447C335.701 250.447 335.12 250.447 334.521 250.447C334.48 250.347 334.439 250.248 334.401 250.148C334.396 250.135 334.391 250.122 334.386 250.108C334.371 250.067 334.355 250.025 334.339 249.983C334.316 249.923 334.294 249.864 334.271 249.805C334.266 249.789 334.26 249.774 334.254 249.759C334.213 249.652 334.172 249.545 334.131 249.438C334.126 249.423 334.12 249.409 334.114 249.394C334.093 249.338 334.071 249.281 334.049 249.225C334.034 249.187 334.02 249.148 334.005 249.11C334 249.098 333.996 249.087 333.991 249.075C333.961 248.996 333.961 248.996 333.961 248.967C332.76 248.967 331.558 248.967 330.32 248.967C330.307 249.011 330.294 249.055 330.28 249.1C330.265 249.143 330.249 249.185 330.233 249.227C330.228 249.239 330.224 249.251 330.219 249.263C330.204 249.302 330.189 249.341 330.174 249.38C330.152 249.436 330.131 249.492 330.109 249.548C330.104 249.562 330.098 249.577 330.092 249.592C330.051 249.699 330.01 249.807 329.969 249.915C329.963 249.93 329.958 249.945 329.952 249.961C329.929 250.021 329.906 250.081 329.884 250.14C329.868 250.182 329.852 250.223 329.837 250.265C329.832 250.277 329.827 250.289 329.823 250.302C329.818 250.313 329.814 250.325 329.81 250.336C329.806 250.346 329.802 250.356 329.798 250.366C329.787 250.394 329.774 250.42 329.76 250.447C329.179 250.447 328.599 250.447 328 250.447C328.009 250.392 328.016 250.355 328.036 250.305C328.041 250.293 328.045 250.281 328.05 250.269C328.055 250.257 328.06 250.244 328.066 250.231C328.071 250.217 328.076 250.204 328.082 250.19C328.094 250.16 328.105 250.131 328.117 250.102C328.143 250.038 328.168 249.975 328.193 249.911C328.207 249.878 328.22 249.845 328.233 249.812C328.297 249.651 328.36 249.49 328.423 249.329C328.522 249.079 328.62 248.828 328.719 248.578C328.725 248.565 328.73 248.552 328.735 248.538C328.756 248.486 328.776 248.434 328.797 248.382C328.844 248.264 328.891 248.145 328.938 248.027C328.942 248.017 328.946 248.007 328.95 247.997C329.021 247.814 329.093 247.632 329.165 247.45C329.171 247.434 329.177 247.418 329.184 247.401C329.19 247.385 329.196 247.37 329.203 247.353C329.29 247.13 329.378 246.907 329.466 246.685C329.474 246.665 329.474 246.665 329.482 246.644C329.503 246.592 329.523 246.54 329.544 246.488C329.591 246.37 329.638 246.251 329.685 246.133C329.688 246.123 329.692 246.113 329.696 246.103C329.768 245.921 329.84 245.738 329.911 245.556C329.918 245.54 329.924 245.524 329.93 245.508C329.94 245.484 329.94 245.484 329.949 245.459C330.037 245.236 330.125 245.014 330.213 244.791C330.218 244.778 330.223 244.764 330.229 244.751C330.249 244.699 330.27 244.647 330.291 244.595C330.338 244.476 330.385 244.358 330.431 244.239C330.435 244.229 330.439 244.219 330.443 244.209C330.528 243.995 330.612 243.78 330.696 243.566C330.794 243.317 330.892 243.069 330.99 242.82C331.078 242.598 331.166 242.375 331.254 242.152ZM332.134 244.206C331.976 244.614 331.819 245.023 331.663 245.431C331.517 245.815 331.371 246.199 331.224 246.582C331.219 246.595 331.214 246.607 331.209 246.62C331.154 246.765 331.098 246.91 331.042 247.055C331.037 247.069 331.031 247.083 331.026 247.097C331 247.163 330.975 247.229 330.949 247.295C330.94 247.319 330.931 247.342 330.922 247.365C330.918 247.376 330.913 247.387 330.909 247.398C330.889 247.441 330.889 247.441 330.881 247.486C331.708 247.486 332.535 247.486 333.388 247.486C333.377 247.417 333.377 247.417 333.356 247.354C333.352 247.344 333.349 247.335 333.345 247.325C333.341 247.315 333.337 247.304 333.332 247.294C333.328 247.283 333.324 247.272 333.319 247.26C333.31 247.236 333.301 247.212 333.291 247.188C333.265 247.122 333.239 247.055 333.214 246.989C333.208 246.975 333.203 246.962 333.197 246.947C333.138 246.795 333.08 246.642 333.022 246.489C333 246.432 332.979 246.376 332.958 246.319C332.952 246.305 332.947 246.292 332.942 246.277C332.882 246.12 332.822 245.962 332.761 245.805C332.702 245.652 332.644 245.498 332.585 245.344C332.576 245.321 332.576 245.321 332.567 245.298C332.561 245.282 332.555 245.267 332.549 245.251C332.416 244.902 332.282 244.554 332.148 244.206C332.143 244.206 332.139 244.206 332.134 244.206Z" fill="black"/>
<path d="M339.096 221.895C339.744 221.895 339.744 221.895 339.945 221.911C339.969 221.913 339.992 221.915 340.016 221.917C340.382 221.945 340.747 221.98 341.109 222.041C341.119 222.043 341.128 222.044 341.138 222.046C341.682 222.138 342.222 222.248 342.749 222.415C342.79 222.428 342.832 222.441 342.873 222.453C343.723 222.715 344.558 223.057 345.329 223.502C345.371 223.526 345.413 223.549 345.455 223.572C345.814 223.768 346.156 223.996 346.491 224.232C346.519 224.252 346.548 224.272 346.576 224.292C346.694 224.375 346.808 224.463 346.922 224.552C346.952 224.576 346.981 224.599 347.011 224.622C347.066 224.665 347.12 224.708 347.174 224.752C347.183 224.759 347.192 224.767 347.202 224.774C347.281 224.839 347.359 224.904 347.436 224.97C347.458 224.989 347.481 225.008 347.504 225.028C347.603 225.112 347.7 225.199 347.795 225.288C347.835 225.325 347.875 225.362 347.915 225.399C347.93 225.412 347.944 225.426 347.959 225.439C347.97 225.449 347.98 225.459 347.991 225.469C347.983 225.51 347.972 225.532 347.942 225.562C347.935 225.569 347.927 225.577 347.919 225.584C347.911 225.592 347.903 225.6 347.895 225.608C347.882 225.62 347.882 225.62 347.87 225.633C347.843 225.659 347.816 225.686 347.789 225.712C347.754 225.746 347.719 225.781 347.684 225.816C347.676 225.824 347.667 225.832 347.659 225.841C347.609 225.89 347.562 225.939 347.517 225.992C347.482 226.034 347.443 226.073 347.406 226.113C347.34 226.183 347.278 226.254 347.218 226.328C347.191 226.362 347.162 226.394 347.132 226.426C347.078 226.486 347.029 226.548 346.979 226.611C346.94 226.662 346.9 226.712 346.858 226.761C346.678 226.975 346.519 227.207 346.358 227.437C346.35 227.447 346.343 227.458 346.335 227.469C346.286 227.54 346.238 227.611 346.191 227.682C346.148 227.662 346.12 227.641 346.087 227.607C346.052 227.571 346.017 227.537 345.979 227.504C345.937 227.468 345.898 227.43 345.86 227.391C345.803 227.333 345.744 227.283 345.681 227.233C345.643 227.202 345.608 227.17 345.573 227.137C345.504 227.074 345.433 227.017 345.359 226.96C345.327 226.935 345.294 226.909 345.262 226.883C345.145 226.788 345.025 226.699 344.902 226.611C344.869 226.588 344.837 226.565 344.804 226.542C344.67 226.446 344.533 226.357 344.391 226.272C344.356 226.251 344.322 226.229 344.288 226.207C343.72 225.846 343.101 225.564 342.47 225.335C342.46 225.332 342.45 225.328 342.441 225.325C342.18 225.23 341.918 225.148 341.649 225.08C341.608 225.07 341.567 225.059 341.526 225.048C341.437 225.024 341.349 225.002 341.259 224.984C341.245 224.981 341.232 224.978 341.218 224.975C340.751 224.881 340.279 224.8 339.802 224.778C339.758 224.775 339.713 224.768 339.669 224.762C339.385 224.755 339.385 224.755 339.096 224.748C339.096 223.807 339.096 222.865 339.096 221.895Z" fill="#FEFEFE"/>
<path d="M337.255 242.152C337.805 242.152 338.355 242.152 338.922 242.152C338.922 244.388 338.922 246.623 338.922 248.927C340.123 248.927 341.325 248.927 342.563 248.927C342.563 249.428 342.563 249.93 342.563 250.447C340.811 250.447 339.06 250.447 337.255 250.447C337.255 247.71 337.255 244.972 337.255 242.152Z" fill="black"/>
<path d="M356.913 226.882C356.913 227.824 356.913 228.766 356.913 229.736C356.734 229.743 356.734 229.743 356.552 229.749C356.449 229.757 356.347 229.765 356.244 229.78C356.232 229.782 356.22 229.784 356.208 229.785C356.098 229.802 355.989 229.823 355.88 229.848C355.856 229.854 355.832 229.859 355.808 229.864C355.484 229.935 355.173 230.037 354.872 230.176C354.859 230.182 354.845 230.188 354.831 230.195C354.489 230.353 354.169 230.543 353.872 230.776C353.861 230.785 353.85 230.793 353.839 230.802C353.711 230.903 353.583 231.008 353.469 231.126C353.444 231.151 353.418 231.173 353.391 231.196C353.347 231.234 353.309 231.275 353.271 231.319C353.246 231.348 353.22 231.377 353.194 231.405C353.107 231.497 353.028 231.595 352.952 231.696C352.945 231.705 352.938 231.714 352.931 231.724C352.425 232.398 352.092 233.192 351.984 234.029C351.978 234.071 351.971 234.113 351.964 234.155C351.949 234.252 351.946 234.349 351.943 234.448C351.943 234.466 351.942 234.483 351.942 234.501C351.94 234.544 351.939 234.587 351.938 234.63C351.934 234.63 351.929 234.63 351.925 234.63C351.915 234.542 351.909 234.454 351.906 234.365C351.905 234.339 351.904 234.313 351.904 234.287C351.903 234.274 351.903 234.261 351.902 234.247C351.861 233.104 351.674 231.963 351.279 230.734C351.268 230.698 351.256 230.662 351.244 230.625C351.194 230.467 351.136 230.312 351.077 230.157C351.073 230.147 351.07 230.137 351.066 230.127C351.031 230.037 350.997 229.947 350.958 229.859C350.952 229.843 350.952 229.843 350.945 229.826C350.937 229.808 350.928 229.79 350.92 229.772C350.896 229.717 350.896 229.717 350.905 229.682C350.932 229.646 350.963 229.612 350.994 229.579C351.007 229.565 351.021 229.551 351.034 229.536C351.04 229.529 351.047 229.522 351.053 229.515C351.076 229.491 351.098 229.466 351.12 229.441C351.127 229.433 351.134 229.424 351.142 229.415C351.158 229.397 351.174 229.379 351.19 229.361C351.255 229.287 351.323 229.216 351.392 229.147C351.401 229.138 351.41 229.129 351.419 229.12C351.471 229.068 351.524 229.019 351.579 228.972C351.619 228.937 351.658 228.9 351.696 228.863C351.759 228.805 351.821 228.75 351.888 228.698C351.917 228.675 351.944 228.653 351.972 228.63C352.103 228.522 352.239 228.42 352.378 228.322C352.394 228.311 352.394 228.311 352.41 228.3C353.055 227.846 353.78 227.466 354.539 227.242C354.55 227.239 354.562 227.235 354.574 227.232C354.643 227.212 354.713 227.192 354.783 227.172C354.816 227.163 354.849 227.153 354.883 227.143C355.347 227.006 355.834 226.939 356.316 226.899C356.326 226.898 356.336 226.897 356.346 226.896C356.536 226.88 356.721 226.882 356.913 226.882Z" fill="#FEE7D0"/>
<path d="M339.096 226.882C339.553 226.882 339.553 226.882 339.726 226.904C339.77 226.91 339.814 226.914 339.859 226.918C340.06 226.936 340.26 226.958 340.46 226.995C340.495 227.002 340.529 227.008 340.564 227.014C341.835 227.241 343.092 227.826 344.167 228.743C344.191 228.763 344.215 228.783 344.238 228.803C344.323 228.874 344.403 228.947 344.48 229.026C344.507 229.053 344.535 229.078 344.564 229.103C344.657 229.183 344.742 229.271 344.822 229.365C344.843 229.389 344.865 229.411 344.889 229.433C344.94 229.484 344.985 229.54 345.03 229.597C345.055 229.629 345.055 229.629 345.081 229.648C345.097 229.669 345.097 229.669 345.097 229.708C345.082 229.784 345.048 229.855 345.018 229.926C345.004 229.959 344.991 229.991 344.977 230.024C344.974 230.032 344.971 230.04 344.967 230.049C344.83 230.384 344.709 230.731 344.612 231.08C344.602 231.115 344.592 231.149 344.582 231.184C344.478 231.548 344.395 231.912 344.323 232.283C344.318 232.311 344.313 232.339 344.307 232.367C344.303 232.39 344.298 232.414 344.293 232.437C344.292 232.447 344.29 232.457 344.288 232.466C344.247 232.679 344.217 232.893 344.191 233.108C344.189 233.122 344.187 233.136 344.186 233.15C344.153 233.418 344.132 233.686 344.114 233.955C344.113 233.969 344.112 233.984 344.111 233.999C344.109 234.026 344.107 234.053 344.106 234.08C344.105 234.092 344.104 234.104 344.103 234.117C344.103 234.127 344.102 234.137 344.101 234.148C344.096 234.18 344.086 234.203 344.07 234.23C344.048 234.191 344.039 234.158 344.034 234.113C344.033 234.1 344.032 234.088 344.03 234.075C344.029 234.061 344.027 234.048 344.026 234.034C343.927 233.188 343.571 232.35 343.043 231.683C343.036 231.674 343.029 231.665 343.022 231.656C342.929 231.538 342.831 231.425 342.728 231.316C342.7 231.286 342.673 231.255 342.646 231.225C342.605 231.178 342.561 231.136 342.513 231.096C342.483 231.069 342.453 231.042 342.423 231.014C342.328 230.924 342.228 230.842 342.123 230.763C342.114 230.756 342.105 230.749 342.095 230.742C341.759 230.491 341.4 230.29 341.016 230.123C341.007 230.119 340.997 230.115 340.988 230.11C340.385 229.85 339.746 229.763 339.096 229.736C339.096 228.794 339.096 227.852 339.096 226.882Z" fill="#FEFEFE"/>
<path d="M349.818 227.696C349.876 227.749 349.914 227.806 349.954 227.874C349.961 227.885 349.967 227.895 349.974 227.906C349.987 227.928 350 227.95 350.013 227.972C350.029 227.998 350.045 228.025 350.061 228.051C350.085 228.092 350.11 228.133 350.134 228.173C350.146 228.194 350.158 228.214 350.171 228.235C350.507 228.797 350.791 229.384 351.026 229.995C351.044 230.042 351.063 230.089 351.081 230.136C351.483 231.171 351.742 232.264 351.925 234.71C350.983 234.71 350.041 234.71 349.071 234.71C349.058 234.38 349.058 234.38 349.044 234.044C349.04 234.008 349.035 233.973 349.031 233.937C349.029 233.916 349.028 233.895 349.028 233.874C349.027 233.863 349.027 233.852 349.026 233.84C349.025 233.818 349.025 233.796 349.024 233.774C349.021 233.698 349.011 233.625 348.998 233.551C348.989 233.499 348.984 233.447 348.978 233.395C348.928 232.903 348.821 232.399 348.668 231.929C348.654 231.886 348.642 231.841 348.63 231.797C348.49 231.282 348.289 230.729 348.019 230.267C348.004 230.229 348.004 230.229 348.013 230.196C348.019 230.185 348.025 230.174 348.031 230.163C348.039 230.146 348.039 230.146 348.048 230.128C348.139 229.95 348.232 229.773 348.337 229.603C348.345 229.59 348.353 229.577 348.361 229.565C348.6 229.178 348.855 228.802 349.145 228.452C349.173 228.419 349.2 228.385 349.228 228.351C349.275 228.293 349.324 228.238 349.374 228.183C349.405 228.148 349.433 228.113 349.462 228.077C349.513 228.014 349.569 227.957 349.627 227.899C349.673 227.854 349.717 227.807 349.759 227.757C349.778 227.736 349.797 227.715 349.818 227.696Z" fill="#FEFEFE"/>
<path d="M366.341 242.152C366.891 242.152 367.442 242.152 368.008 242.152C368.008 244.889 368.008 247.627 368.008 250.447C367.458 250.447 366.908 250.447 366.341 250.447C366.341 247.71 366.341 244.972 366.341 242.152Z" fill="black"/>
<path d="M343.617 242.152C344.167 242.152 344.717 242.152 345.284 242.152C345.284 244.889 345.284 247.627 345.284 250.447C344.734 250.447 344.183 250.447 343.617 250.447C343.617 247.71 343.617 244.972 343.617 242.152Z" fill="black"/>
<path d="M343.59 252.688C343.81 252.688 344.03 252.688 344.257 252.688C344.301 252.749 344.345 252.811 344.39 252.874C344.418 252.913 344.446 252.951 344.473 252.99C344.481 253 344.488 253.01 344.495 253.02C344.556 253.105 344.618 253.189 344.68 253.273C344.74 253.354 344.799 253.436 344.858 253.517C344.911 253.59 344.964 253.662 345.017 253.734C345.114 253.866 345.209 253.998 345.305 254.131C345.396 254.257 345.488 254.383 345.58 254.508C345.591 254.523 345.591 254.523 345.602 254.538C345.612 254.551 345.612 254.551 345.622 254.565C345.652 254.605 345.681 254.647 345.71 254.688C345.717 253.698 345.717 253.698 345.724 252.688C345.926 252.688 346.129 252.688 346.337 252.688C346.337 253.709 346.337 254.73 346.337 255.781C346.135 255.781 345.932 255.781 345.724 255.781C345.658 255.7 345.595 255.619 345.534 255.535C345.519 255.514 345.504 255.493 345.489 255.472C345.482 255.461 345.474 255.451 345.466 255.44C345.43 255.389 345.393 255.339 345.357 255.288C345.314 255.228 345.27 255.168 345.227 255.108C345.152 255.005 345.077 254.901 345.001 254.798C344.937 254.711 344.873 254.624 344.811 254.535C344.704 254.386 344.596 254.237 344.487 254.09C344.423 254.003 344.36 253.916 344.297 253.828C344.29 253.819 344.283 253.809 344.276 253.799C344.27 253.791 344.264 253.783 344.258 253.774C344.244 253.755 344.244 253.755 344.23 253.741C344.226 254.414 344.221 255.088 344.217 255.781C344.01 255.781 343.803 255.781 343.59 255.781C343.59 254.76 343.59 253.739 343.59 252.688Z" fill="black"/>
<path d="M338.922 252.688C339.142 252.688 339.362 252.688 339.589 252.688C339.642 252.762 339.695 252.837 339.749 252.914C339.78 252.956 339.811 252.998 339.842 253.04C339.903 253.122 339.963 253.205 340.023 253.288C340.082 253.37 340.142 253.453 340.203 253.534C340.3 253.666 340.395 253.798 340.491 253.931C340.58 254.054 340.669 254.177 340.759 254.299C340.823 254.385 340.885 254.471 340.947 254.558C340.954 254.567 340.961 254.576 340.968 254.586C340.973 254.594 340.979 254.602 340.985 254.611C341.004 254.637 341.024 254.662 341.043 254.688C341.049 253.698 341.049 253.698 341.056 252.688C341.259 252.688 341.461 252.688 341.67 252.688C341.67 253.709 341.67 254.73 341.67 255.782C341.463 255.782 341.256 255.782 341.043 255.782C340.964 255.669 340.964 255.669 340.883 255.555C340.855 255.515 340.826 255.476 340.798 255.437C340.791 255.427 340.784 255.417 340.776 255.407C340.716 255.323 340.654 255.24 340.592 255.156C340.518 255.055 340.444 254.953 340.371 254.851C340.335 254.801 340.299 254.751 340.263 254.701C340.219 254.642 340.176 254.582 340.133 254.522C340.05 254.407 339.967 254.293 339.883 254.179C339.827 254.103 339.771 254.026 339.717 253.949C339.666 253.879 339.614 253.81 339.562 253.741C339.558 254.415 339.554 255.088 339.549 255.782C339.342 255.782 339.135 255.782 338.922 255.782C338.922 254.761 338.922 253.74 338.922 252.688Z" fill="black"/>
<path d="M357.06 252.688C357.28 252.688 357.5 252.688 357.726 252.688C357.77 252.749 357.814 252.811 357.86 252.874C357.887 252.913 357.915 252.951 357.943 252.99C357.95 253 357.957 253.01 357.965 253.02C358.026 253.105 358.088 253.189 358.15 253.273C358.21 253.354 358.269 253.436 358.328 253.517C358.38 253.59 358.433 253.662 358.487 253.734C358.584 253.866 358.679 253.998 358.775 254.131C358.866 254.257 358.957 254.383 359.05 254.508C359.061 254.523 359.061 254.523 359.072 254.538C359.082 254.551 359.082 254.551 359.091 254.565C359.121 254.605 359.151 254.647 359.18 254.688C359.187 253.698 359.187 253.698 359.193 252.688C359.396 252.688 359.598 252.688 359.807 252.688C359.807 253.709 359.807 254.73 359.807 255.781C359.604 255.781 359.402 255.781 359.193 255.781C359.128 255.7 359.065 255.619 359.004 255.535C358.989 255.514 358.974 255.493 358.959 255.472C358.951 255.461 358.944 255.451 358.936 255.44C358.9 255.389 358.863 255.339 358.827 255.288C358.783 255.228 358.74 255.168 358.697 255.108C358.623 255.006 358.548 254.903 358.473 254.801C358.391 254.69 358.309 254.577 358.228 254.464C358.185 254.404 358.141 254.344 358.098 254.285C358.062 254.234 358.026 254.184 357.989 254.134C357.982 254.123 357.975 254.113 357.967 254.103C357.954 254.084 357.94 254.065 357.927 254.046C357.852 253.943 357.776 253.843 357.7 253.741C357.695 254.414 357.691 255.088 357.686 255.781C357.48 255.781 357.273 255.781 357.06 255.781C357.06 254.76 357.06 253.739 357.06 252.688Z" fill="black"/>
<path d="M336.082 252.688C337.764 252.688 337.764 252.688 338.075 252.984C338.266 253.175 338.364 253.417 338.367 253.688C338.364 253.961 338.263 254.196 338.077 254.393C337.993 254.473 337.9 254.534 337.789 254.568C337.835 254.665 337.888 254.757 337.944 254.849C337.969 254.89 337.994 254.931 338.019 254.972C338.027 254.984 338.027 254.984 338.035 254.997C338.096 255.097 338.154 255.198 338.213 255.298C338.283 255.42 338.356 255.54 338.432 255.658C338.439 255.669 338.445 255.679 338.452 255.69C338.458 255.699 338.464 255.708 338.47 255.717C338.482 255.741 338.482 255.741 338.482 255.781C338.384 255.787 338.286 255.791 338.187 255.794C338.154 255.795 338.121 255.797 338.087 255.799C337.819 255.814 337.819 255.814 337.748 255.761C337.703 255.709 337.677 255.648 337.653 255.584C337.637 255.543 337.615 255.507 337.593 255.47C337.577 255.443 337.562 255.417 337.547 255.391C337.534 255.369 337.534 255.369 337.522 255.347C337.457 255.234 337.392 255.121 337.327 255.007C337.32 254.995 337.32 254.995 337.313 254.983C337.3 254.961 337.287 254.938 337.275 254.916C337.267 254.903 337.26 254.89 337.252 254.877C337.222 254.823 337.192 254.769 337.162 254.715C337.017 254.71 336.871 254.706 336.722 254.701C336.722 255.058 336.722 255.414 336.722 255.781C336.51 255.781 336.299 255.781 336.082 255.781C336.082 254.76 336.082 253.739 336.082 252.688ZM336.722 253.261C336.722 253.543 336.722 253.824 336.722 254.114C336.822 254.116 336.922 254.117 337.026 254.118C337.057 254.118 337.089 254.119 337.121 254.119C337.146 254.119 337.172 254.12 337.197 254.12C337.216 254.12 337.216 254.12 337.236 254.121C337.373 254.121 337.503 254.079 337.602 253.981C337.699 253.86 337.722 253.748 337.709 253.594C337.681 253.484 337.604 253.393 337.511 253.33C337.404 253.27 337.299 253.255 337.178 253.257C337.166 253.257 337.154 253.257 337.142 253.257C337.099 253.257 337.056 253.258 337.013 253.258C336.917 253.259 336.821 253.26 336.722 253.261Z" fill="black"/>
<path d="M349.44 253.006C349.505 253.064 349.561 253.126 349.615 253.194C349.62 253.201 349.626 253.209 349.632 253.216C349.671 253.269 349.671 253.269 349.671 253.314C349.64 253.337 349.64 253.337 349.597 253.362C349.589 253.366 349.581 253.371 349.573 253.376C349.549 253.39 349.524 253.404 349.499 253.418C349.474 253.432 349.45 253.446 349.426 253.461C349.41 253.47 349.394 253.479 349.378 253.488C349.322 253.521 349.268 253.556 349.216 253.595C349.191 253.608 349.191 253.608 349.163 253.605C349.126 253.589 349.108 253.563 349.082 253.533C348.923 253.352 348.714 253.247 348.474 253.223C348.233 253.211 348.012 253.278 347.818 253.421C347.809 253.427 347.801 253.433 347.792 253.439C347.589 253.597 347.497 253.854 347.464 254.1C347.437 254.409 347.506 254.708 347.708 254.95C347.885 255.14 348.135 255.235 348.391 255.248C348.637 255.254 348.854 255.188 349.035 255.019C349.15 254.899 349.18 254.772 349.218 254.608C348.985 254.608 348.751 254.608 348.511 254.608C348.511 254.445 348.511 254.282 348.511 254.114C348.947 254.114 349.382 254.114 349.831 254.114C349.831 254.716 349.831 254.716 349.765 254.928C349.76 254.942 349.756 254.957 349.751 254.972C349.691 255.157 349.594 255.31 349.458 255.448C349.447 255.459 349.437 255.471 349.426 255.483C349.145 255.737 348.795 255.827 348.424 255.826C348.414 255.826 348.404 255.826 348.393 255.826C348.232 255.826 348.08 255.813 347.924 255.768C347.915 255.766 347.907 255.763 347.898 255.761C347.689 255.704 347.504 255.597 347.337 255.461C347.328 255.454 347.319 255.447 347.31 255.44C347.018 255.201 346.852 254.805 346.812 254.438C346.775 253.966 346.877 253.523 347.184 253.154C347.468 252.827 347.869 252.667 348.294 252.636C348.722 252.609 349.113 252.724 349.44 253.006Z" fill="black"/>
<path d="M365.621 252.688C367.302 252.688 367.302 252.688 367.613 252.997C367.815 253.209 367.897 253.44 367.895 253.73C367.886 254.006 367.776 254.218 367.582 254.408C367.573 254.416 367.565 254.425 367.556 254.433C367.489 254.495 367.408 254.537 367.328 254.581C367.348 254.636 367.375 254.685 367.405 254.735C367.41 254.743 367.415 254.751 367.42 254.76C367.436 254.787 367.453 254.815 367.469 254.842C367.48 254.861 367.492 254.88 367.503 254.9C367.577 255.023 367.652 255.147 367.727 255.27C367.797 255.385 367.867 255.5 367.936 255.616C367.943 255.628 367.951 255.64 367.958 255.653C367.965 255.664 367.971 255.675 367.978 255.687C367.987 255.701 367.987 255.701 367.996 255.716C368.008 255.741 368.008 255.741 368.008 255.781C367.775 255.781 367.542 255.781 367.301 255.781C367.099 255.431 367.099 255.431 367.034 255.318C367.012 255.279 366.99 255.24 366.967 255.202C366.913 255.109 366.867 255.017 366.828 254.916C366.791 254.844 366.737 254.78 366.688 254.715C366.543 254.71 366.398 254.706 366.248 254.701C366.248 255.058 366.248 255.414 366.248 255.781C366.041 255.781 365.834 255.781 365.621 255.781C365.621 254.76 365.621 253.739 365.621 252.688ZM366.248 253.261C366.248 253.543 366.248 253.824 366.248 254.114C366.35 254.116 366.453 254.117 366.558 254.119C366.59 254.119 366.622 254.12 366.655 254.12C366.837 254.122 366.966 254.113 367.114 253.999C367.205 253.91 367.241 253.814 367.243 253.687C367.241 253.568 367.205 253.484 367.125 253.397C367.002 253.284 366.868 253.257 366.706 253.258C366.689 253.258 366.689 253.258 366.671 253.258C366.628 253.259 366.584 253.259 366.541 253.259C366.396 253.26 366.396 253.26 366.248 253.261Z" fill="black"/>
<path d="M333.855 252.688C334.079 252.688 334.303 252.688 334.535 252.688C334.743 253.217 334.95 253.746 335.158 254.275C335.164 254.29 335.17 254.305 335.176 254.321C335.189 254.352 335.201 254.384 335.213 254.415C335.244 254.492 335.274 254.569 335.304 254.647C335.362 254.793 335.419 254.939 335.477 255.086C335.501 255.147 335.525 255.207 335.549 255.268C335.565 255.31 335.581 255.352 335.598 255.393C335.616 255.439 335.634 255.485 335.652 255.531C335.657 255.545 335.662 255.559 335.668 255.573C335.673 255.585 335.678 255.598 335.683 255.611C335.687 255.622 335.692 255.632 335.696 255.644C335.705 255.666 335.714 255.688 335.723 255.71C335.735 255.742 335.735 255.742 335.735 255.782C335.515 255.782 335.295 255.782 335.068 255.782C335.035 255.697 335.002 255.612 334.968 255.524C334.952 255.484 334.952 255.484 334.936 255.443C334.928 255.422 334.92 255.4 334.912 255.379C334.908 255.368 334.903 255.357 334.899 255.346C334.895 255.335 334.891 255.325 334.886 255.314C334.881 255.3 334.881 255.3 334.876 255.286C334.868 255.261 334.868 255.261 334.868 255.221C334.424 255.221 333.979 255.221 333.521 255.221C333.508 255.265 333.495 255.31 333.481 255.355C333.469 255.389 333.456 255.424 333.443 255.458C333.439 255.467 333.436 255.476 333.432 255.485C333.425 255.504 333.418 255.522 333.41 255.541C333.399 255.569 333.388 255.598 333.377 255.627C333.323 255.766 333.323 255.766 333.308 255.782C333.287 255.783 333.267 255.783 333.246 255.783C333.233 255.783 333.22 255.783 333.207 255.783C333.192 255.783 333.178 255.783 333.164 255.783C333.142 255.783 333.142 255.783 333.12 255.783C333.073 255.783 333.027 255.783 332.98 255.782C332.949 255.782 332.917 255.782 332.886 255.782C332.809 255.782 332.732 255.782 332.654 255.782C332.663 255.715 332.683 255.656 332.708 255.594C332.712 255.584 332.716 255.573 332.72 255.563C332.734 255.528 332.747 255.494 332.761 255.459C332.771 255.434 332.78 255.41 332.79 255.385C332.815 255.321 332.841 255.257 332.866 255.192C332.88 255.157 332.894 255.121 332.909 255.085C332.945 254.993 332.981 254.902 333.017 254.81C333.096 254.611 333.175 254.411 333.253 254.212C333.371 253.91 333.491 253.608 333.61 253.307C333.692 253.1 333.773 252.894 333.855 252.688ZM334.188 253.474C334.142 253.582 334.099 253.691 334.057 253.801C334.051 253.816 334.046 253.831 334.039 253.847C334.021 253.896 334.002 253.945 333.984 253.994C333.971 254.026 333.959 254.058 333.947 254.09C333.923 254.153 333.899 254.216 333.875 254.279C333.853 254.337 333.831 254.395 333.809 254.453C333.804 254.466 333.798 254.48 333.793 254.493C333.784 254.517 333.775 254.542 333.765 254.566C333.744 254.613 333.744 254.613 333.735 254.661C334.034 254.661 334.333 254.661 334.641 254.661C334.629 254.601 334.612 254.547 334.59 254.49C334.584 254.474 334.584 254.474 334.578 254.458C334.565 254.424 334.553 254.39 334.54 254.356C334.531 254.333 334.522 254.309 334.513 254.285C334.432 254.071 334.35 253.857 334.267 253.643C334.264 253.633 334.26 253.624 334.256 253.614C334.238 253.568 334.22 253.521 334.201 253.474C334.197 253.474 334.192 253.474 334.188 253.474Z" fill="black"/>
<path d="M352.618 252.632C353.043 252.62 353.436 252.778 353.746 253.067C353.877 253.202 353.995 253.358 354.046 253.541C353.971 253.57 353.896 253.599 353.821 253.627C353.796 253.637 353.771 253.647 353.745 253.656C353.709 253.671 353.672 253.685 353.635 253.698C353.624 253.703 353.613 253.707 353.601 253.712C353.5 253.75 353.5 253.75 353.446 253.728C353.426 253.702 353.426 253.702 353.409 253.668C353.371 253.599 353.324 253.545 353.269 253.488C353.246 253.461 353.246 253.461 353.246 253.434C353.234 253.429 353.234 253.429 353.223 253.424C353.189 253.406 353.158 253.385 353.126 253.363C352.919 253.231 352.7 253.2 352.46 253.241C352.292 253.28 352.151 253.365 352.032 253.487C352.024 253.495 352.015 253.503 352.007 253.511C351.822 253.7 351.762 253.995 351.762 254.249C351.766 254.539 351.866 254.815 352.072 255.024C352.235 255.18 352.457 255.246 352.679 255.248C352.898 255.238 353.069 255.162 353.232 255.021C353.241 255.014 353.249 255.007 353.258 255C353.346 254.919 353.408 254.808 353.459 254.701C353.532 254.709 353.596 254.727 353.665 254.753C353.681 254.758 353.681 254.758 353.697 254.764C353.719 254.772 353.741 254.78 353.763 254.788C353.797 254.8 353.83 254.812 353.864 254.824C353.885 254.832 353.907 254.84 353.928 254.848C353.938 254.851 353.948 254.855 353.959 254.859C354.029 254.885 354.029 254.885 354.059 254.914C353.881 255.293 353.615 255.586 353.218 255.739C353.042 255.801 352.87 255.826 352.684 255.826C352.656 255.825 352.628 255.826 352.599 255.826C352.239 255.828 351.887 255.704 351.619 255.461C351.606 255.452 351.606 255.452 351.594 255.443C351.318 255.231 351.173 254.846 351.125 254.512C351.07 254.08 351.137 253.613 351.392 253.25C351.417 253.217 351.444 253.185 351.472 253.154C351.481 253.143 351.49 253.133 351.499 253.121C351.742 252.834 352.104 252.672 352.476 252.638C352.523 252.635 352.571 252.634 352.618 252.632Z" fill="black"/>
<path d="M354.472 252.688C355.119 252.688 355.766 252.688 356.433 252.688C356.433 252.877 356.433 253.066 356.433 253.261C355.992 253.261 355.552 253.261 355.099 253.261C355.099 253.481 355.099 253.701 355.099 253.928C355.482 253.928 355.865 253.928 356.259 253.928C356.259 254.113 356.259 254.297 356.259 254.488C355.876 254.488 355.493 254.488 355.099 254.488C355.099 254.721 355.099 254.954 355.099 255.195C355.548 255.195 355.997 255.195 356.459 255.195C356.459 255.388 356.459 255.582 356.459 255.781C355.804 255.781 355.148 255.781 354.472 255.781C354.472 254.76 354.472 253.739 354.472 252.688Z" fill="black"/>
<path d="M363.034 252.688C363.681 252.688 364.328 252.688 364.994 252.688C364.994 252.877 364.994 253.066 364.994 253.261C364.554 253.261 364.114 253.261 363.66 253.261C363.66 253.481 363.66 253.701 363.66 253.928C364.039 253.928 364.417 253.928 364.807 253.928C364.807 254.113 364.807 254.298 364.807 254.488C364.429 254.488 364.05 254.488 363.66 254.488C363.66 254.721 363.66 254.954 363.66 255.195C364.109 255.195 364.558 255.195 365.021 255.195C365.021 255.388 365.021 255.582 365.021 255.782C364.365 255.782 363.709 255.782 363.034 255.782C363.034 254.761 363.034 253.74 363.034 252.688Z" fill="black"/>
<path d="M330.36 252.688C331.007 252.688 331.654 252.688 332.321 252.688C332.321 252.877 332.321 253.066 332.321 253.261C331.881 253.261 331.441 253.261 330.987 253.261C330.987 253.481 330.987 253.701 330.987 253.928C331.366 253.928 331.744 253.928 332.134 253.928C332.134 254.113 332.134 254.298 332.134 254.488C331.756 254.488 331.377 254.488 330.987 254.488C330.987 254.721 330.987 254.954 330.987 255.195C331.436 255.195 331.885 255.195 332.347 255.195C332.347 255.388 332.347 255.582 332.347 255.782C331.692 255.782 331.036 255.782 330.36 255.782C330.36 254.761 330.36 253.74 330.36 252.688Z" fill="black"/>
<path d="M360.193 252.688C361.003 252.688 361.813 252.688 362.647 252.688C362.647 252.877 362.647 253.066 362.647 253.261C362.348 253.261 362.049 253.261 361.74 253.261C361.74 254.093 361.74 254.925 361.74 255.781C361.534 255.781 361.327 255.781 361.114 255.781C361.114 254.95 361.114 254.118 361.114 253.261C360.81 253.261 360.506 253.261 360.193 253.261C360.193 253.072 360.193 252.882 360.193 252.688Z" fill="black"/>
<path d="M328 252.688C328.207 252.688 328.414 252.688 328.627 252.688C328.627 253.515 328.627 254.342 328.627 255.195C329.071 255.195 329.516 255.195 329.974 255.195C329.974 255.388 329.974 255.582 329.974 255.781C329.322 255.781 328.671 255.781 328 255.781C328 254.76 328 253.739 328 252.688Z" fill="black"/>
<path d="M342.323 252.688C342.53 252.688 342.736 252.688 342.95 252.688C342.95 253.709 342.95 254.73 342.95 255.782C342.743 255.782 342.536 255.782 342.323 255.782C342.323 254.761 342.323 253.74 342.323 252.688Z" fill="black"/>
<path d="M344.084 234.177C344.088 234.177 344.093 234.177 344.097 234.177C344.097 234.247 344.097 234.318 344.097 234.39C344.088 234.395 344.08 234.399 344.071 234.404C344.059 234.363 344.055 234.325 344.055 234.283C344.055 234.271 344.054 234.26 344.054 234.248C344.057 234.217 344.057 234.217 344.084 234.177Z" fill="#FAE9DD"/>
</g>
</g>
<defs>
<clipPath id="clip0_63_1262">
<rect width="415" height="364" fill="white"/>
</clipPath>
<clipPath id="clip1_63_1262">
<rect width="40.0084" height="38.8214" fill="white" transform="translate(328 217)"/>
</clipPath>
</defs>
</svg>
